<svg width="368" height="560" viewBox="0 0 368 560" fill="none" xmlns="http://www.w3.org/2000/svg">
<mask id="mask0_111_5" style="mask-type:alpha" maskUnits="userSpaceOnUse" x="0" y="0" width="368" height="560">
<rect width="368" height="560" fill="#D9D9D9"/>
</mask>
<g mask="url(#mask0_111_5)">
<path d="M151.95 152.128C152.675 156.279 153.242 160.012 153.991 163.709C154.836 167.854 155.642 172.025 156.83 176.081C158.289 181.049 160.689 182.758 165.887 182.481C171.812 182.168 177.718 181.487 183.633 180.951C184.42 180.877 185.201 180.737 186.311 180.586C186.113 181.575 186.025 182.284 185.825 182.96C183.821 189.725 181.989 196.551 179.712 203.226C178.093 207.987 178.499 211.938 182.462 215.28C185.18 217.577 187.685 220.165 190.59 222.181C192.476 223.494 194.846 224.342 197.121 224.826C201.276 225.711 205.026 223.842 207.053 220.097C207.927 218.488 208.605 216.698 209 214.912C213.396 194.878 217.764 174.842 222.019 154.785C222.695 151.608 223.029 148.3 223.056 145.051C223.112 138.088 218.588 134.72 212 136.943C208.656 138.073 205.423 139.74 202.401 141.588C194.799 146.244 187.352 151.149 179.826 155.934C178.99 156.471 178.067 156.877 176.629 157.631C176.948 153.711 177.187 150.336 177.505 146.973C178.333 138.172 179.353 129.388 179.968 120.572C180.245 116.672 179.76 112.715 179.546 108.789C179.494 107.835 179.218 106.877 178.922 105.966C177.442 101.434 173.807 99.607 169.464 101.529C166.975 102.633 164.589 104.112 162.428 105.773C150.222 115.125 138.087 124.581 125.949 134.022C123.486 135.939 121.096 137.944 118.654 139.891C118.102 140.334 117.492 140.702 116.373 141.469C116.763 139.918 116.903 138.974 117.237 138.1C120.086 130.684 122.981 123.286 125.846 115.869C127.126 112.548 128.428 109.226 129.58 105.851C130.006 104.611 130.21 103.232 130.189 101.921C130.142 98.8575 128.053 96.6862 124.997 96.6287C123.32 96.5928 121.586 96.8897 119.956 97.3325C99.5112 102.852 79.0545 108.339 58.6677 114.052C53.6116 115.469 48.6324 117.354 43.8739 119.573C37.1721 122.696 32.5681 127.924 30.5883 135.199C28.8968 141.431 27.2715 147.691 25.6524 153.945C25.413 154.876 25.2776 155.845 25.2256 156.808C25.1211 158.745 25.7878 160.36 27.6729 161.151C29.5525 161.942 31.2291 161.355 32.5001 159.886C34.1935 157.917 35.8807 155.918 37.3335 153.772C39.6095 150.424 42.5875 147.903 46.1036 146.055C59.0594 139.228 73.1512 137.438 87.514 136.885C89.5334 136.808 90.4914 137.724 90.9194 139.593C92.2732 145.53 93.6579 151.46 95.0798 157.385C95.7941 160.343 96.4702 163.322 97.4177 166.206C98.0127 168.019 98.8865 169.8 99.954 171.383C102.615 175.33 105.949 176.226 110.182 174.08C117.14 170.55 124.034 166.9 130.924 163.234C137.09 159.954 143.204 156.58 149.348 153.262C150.052 152.882 150.813 152.616 151.952 152.126L151.95 152.128Z" fill="#3EAD53"/>
<path d="M65.4945 484.15C64.4746 501.209 65.27 516.533 69.2913 531.54C70.3792 535.597 71.8684 539.628 73.7331 543.391C77.8472 551.677 85.0432 555.712 93.9857 556.909C105.16 558.409 116.331 557.638 127.234 555.273C149.737 550.389 172.114 544.922 194.553 539.737C201.885 538.043 206.238 533.378 208.379 526.354C210.489 519.433 211.129 512.305 210.614 505.177C209.973 496.298 208.895 487.436 207.672 478.615C206.864 472.792 202.9 470.699 197.423 472.991C190.407 475.922 184.477 480.504 179.003 485.722C172.765 491.669 167.687 498.537 163.474 506.004C161.558 509.393 158.875 511.352 155.231 512.195C148.929 513.643 142.623 515.054 136.317 516.459C125.73 518.824 115.154 521.25 104.546 523.5C99.249 524.625 98.6081 524.443 97.3161 519.127C94.9882 509.534 93.1668 499.823 91.1723 490.159C89.6978 483.03 88.2449 475.896 86.8546 468.752C85.5317 461.93 80.9545 458.806 74.5539 457.624C69.6754 456.723 65.4049 460.477 65.4729 465.481C65.5552 472.242 65.4945 479 65.4945 484.15Z" fill="#F9A549"/>
<path d="M127.761 381.042C118.695 381.042 109.629 381.022 100.562 381.048C95.0729 381.063 90.0263 386.843 90.6212 392.378C90.8909 394.883 92.6776 396.71 95.7656 397.126C98.6248 397.518 101.536 397.7 104.426 397.736C119.955 397.95 135.49 398.074 151.018 398.251C155.116 398.299 155.502 398.513 155.961 402.552C156.929 411.162 157.976 409.51 150.227 410.682C134.358 413.071 118.408 414.9 102.531 417.264C92.6875 418.732 82.9145 420.685 73.1388 422.554C68.551 423.429 66.6603 425.893 67.4569 430.516C68.2442 435.11 69.4984 439.65 70.9259 444.091C72.0187 447.492 74.8575 449.21 78.368 449.033C82.8099 448.81 87.2777 448.423 91.6472 447.622C112.986 443.726 134.307 439.701 155.611 435.625C158.735 435.027 161.756 433.886 164.828 433.01C169.879 431.574 173.27 428.398 174.671 423.316C177.874 411.718 181.316 400.174 184.072 388.473C188.133 371.238 190.914 353.769 191.726 336.043C191.888 332.491 191.758 328.913 191.524 325.363C191.179 320.003 188.606 315.936 183.884 313.298C182.716 312.647 181.566 311.943 180.347 311.402C159.788 302.3 138.895 294.167 116.674 290.037C115.102 289.74 113.118 289.791 111.769 290.516C108.477 292.286 108.733 298.41 111.983 300.248C112.951 300.795 113.982 301.233 114.998 301.696C128.366 307.825 141.744 313.932 155.106 320.078C164.517 324.399 165.979 326.357 165.042 336.73C164.022 348.045 162.319 359.298 160.913 370.576C160.58 373.231 160.121 375.883 159.981 378.548C159.861 380.773 158.726 381.564 156.726 381.554C151.826 381.523 146.925 381.448 142.02 381.428C137.27 381.408 132.516 381.424 127.762 381.424L127.761 381.042Z" fill="#FEFEFE"/>
<path d="M-30.9382 202.686C-30.2251 212.037 -29.7822 220.427 -28.8861 228.768C-28.142 235.669 -25.746 237.813 -18.8408 238.85C-15.0186 239.423 -11.1909 239.938 -7.36373 240.459C-5.4947 240.708 -4.68761 241.719 -4.24478 243.604C-2.44193 251.264 -0.468464 258.882 1.50509 266.506C3.16137 272.91 7.44683 276.436 13.9031 277.378C21.9909 278.564 30.0935 279.643 38.1758 280.846C44.4879 281.784 43.5342 281.788 42.951 286.887C42.2954 292.546 41.2638 298.169 40.1493 303.762C39.3991 307.538 37.1083 309.308 32.9324 309.485C25.8904 309.781 18.8825 310.772 11.8628 311.496C11.0495 311.578 10.2479 311.761 9.45683 311.965C4.77992 313.172 3.30123 315.875 4.80104 320.473C5.02987 321.175 5.28531 321.874 5.55496 322.566C7.7221 328.101 9.61766 329.404 15.4808 328.966C24.0739 328.33 32.6603 327.586 41.2435 326.83C42.64 326.707 44.0093 326.289 45.378 325.951C52.2467 324.253 56.3398 320.191 57.7196 312.975C60.1879 300.045 62.8807 287.174 62.9073 273.926C62.9116 272.146 63.0428 270.354 62.9117 268.584C62.4435 262.423 59.8441 258.836 53.8449 257.383C47.7263 255.904 41.4266 255.17 35.2233 254.019C29.6731 252.988 24.1526 251.802 18.6123 250.744C16.8305 250.405 16.1217 249.494 16.2268 247.667C16.5441 241.881 16.7153 236.086 17.0388 230.3C17.4031 223.729 15.4455 220.01 9.13332 218.074C3.05557 216.205 -3.30157 215.258 -9.54137 213.913C-10.3429 213.742 -11.2435 213.794 -11.9257 213.419C-12.5825 213.06 -13.452 212.31 -13.478 211.696C-13.7068 206.727 -13.7587 201.75 -13.8682 196.778C-13.909 195.027 -13.1392 193.918 -11.5194 193.142C-6.42686 190.701 -1.443 188.023 3.68663 185.664C8.03513 183.665 10.2788 180.249 10.3839 175.704C10.6641 163.748 10.726 151.787 10.726 139.825C10.7216 136.712 9.08209 135.217 6.01445 134.962C3.27461 134.733 0.525504 134.545 -2.22424 134.53C-8.06697 134.504 -10.9781 136.842 -11.7648 142.602C-12.7333 149.668 -13.4835 156.764 -14.0828 163.868C-14.3073 166.549 -15.3848 167.997 -17.8736 168.887C-20.593 169.866 -23.2072 171.158 -25.7993 172.45C-28.2423 173.667 -29.6066 175.729 -29.7463 178.49C-30.1793 186.868 -30.5746 195.252 -30.9395 202.688L-30.9382 202.686Z" fill="#CF3438"/>
<path d="M153.309 3.20045C145.102 3.86031 136.853 4.18376 128.709 5.2821C122.063 6.17635 115.737 8.54126 110.065 12.2871C103.79 16.4349 99.0312 21.9142 96.9637 29.2086C94.637 37.4127 92.7518 45.7448 90.735 54.0361C88.856 61.7529 87.0432 69.4913 85.2305 77.2236C84.9812 78.2966 84.7111 79.4215 84.7526 80.5049C84.8775 83.5662 87.4082 85.2223 90.2037 84.0195C91.7511 83.3479 93.3085 82.4988 94.5689 81.3949C102.713 74.2403 110.832 67.0554 118.857 59.7647C123.471 55.5699 128.131 51.3775 132.36 46.8054C139.917 38.6322 149.321 34.8641 160.174 34.8128C173.608 34.7479 187.071 34.7503 200.474 35.511C214.925 36.3329 229.314 38.169 243.749 39.3472C245.529 39.4931 247.314 39.5729 249.104 39.6155C259.091 11.4756 197.067 5.99145 169.375 4.69398C166.703 4.56844 164.032 4.34582 161.367 4.17575C158.695 4.00753 155.981 3.36433 153.309 3.20045Z" fill="#F9A549"/>
<path d="M249 146.5C244.512 149.167 240.382 152.428 236.605 156.284L235.392 157.585C224.971 169.313 224.612 182.32 234.45 194.542C238.627 199.736 243.558 203.954 249 207.497L249 190.119C243.008 183.036 243.06 173.837 249 166.449L249 146.5ZM249 218.812C244.273 220.578 239.731 222.792 235.439 225.612C230.778 228.675 227.715 232.899 226.05 238.209C224.592 242.849 225.424 246.989 228.382 250.785C233.148 256.897 239.474 260.589 246.843 262.551C247.561 262.742 247.5 263 248.5 263L249 250.019C247.114 249.405 245.28 248.596 243.526 247.513C238.287 244.275 238.005 242.087 242.844 238.369C244.847 236.829 246.898 235.423 249 234.152L249 218.812Z" fill="#FEFEFE"/>
<path d="M45.9871 415.555C51.4241 415.347 55.6268 413.192 58.7303 408.922C65.2348 399.959 71.5549 390.862 78.2276 382.026C82.6058 376.225 87.3606 370.701 92.1359 365.213C96.8122 359.838 102.76 357.213 109.987 357.99C117.59 358.802 125.188 359.681 132.792 360.463C135.145 360.703 137.557 361.004 139.883 360.759C144.982 360.218 147.56 355.807 144.978 351.386C142.493 347.132 139.364 343.181 136.093 339.477C133.406 336.432 130.079 333.958 127.058 331.208C125.522 329.814 124.104 328.273 122.506 326.96C117.178 322.585 111.155 319.592 104.264 318.863C100.25 318.44 96.6613 320.059 93.7291 322.851C92.0672 324.439 90.489 326.132 89.0157 327.897C72.7474 347.459 57.2748 367.602 44.2157 389.497C41.3565 394.283 38.3465 398.975 35.4928 403.76C34.7785 404.953 34.1953 406.301 33.9151 407.65C33.3981 410.124 34.6115 412.388 37.2054 413.29C40.0485 414.279 43.0555 414.821 45.9871 415.555Z" fill="#CF3438"/>
<path d="M223.065 319.503C220.53 319.623 217.462 319.561 214.456 319.951C206.864 320.94 202.522 329.47 205.995 336.333C206.327 336.995 206.666 337.671 207.124 338.249C212.124 344.592 213.436 352.043 213.639 359.822C214.227 382.541 211.473 404.896 206.469 427.021C205.697 430.411 205.089 433.874 204.838 437.337C204.561 441.185 206.238 443.252 210.014 443.903C213.66 444.533 217.373 445.091 221.055 445.112C227.314 445.143 230.486 442.352 231.621 436.155C233.203 427.537 234.547 418.867 236.146 410.248C240.01 389.483 242.499 368.54 244.452 347.524C244.999 341.665 245.093 335.792 243.719 330.006C242.229 323.741 239.489 321.15 233.131 320.279C229.975 319.848 226.768 319.78 223.065 319.503Z" fill="#3EAD53"/>
<path d="M222.945 53.983C218.924 54.6045 215.029 55.0813 211.197 55.8605C209.723 56.1598 208.26 56.9632 207.01 57.8488C203.844 60.0924 203.167 63.2279 204.943 66.6534C205.907 68.4975 207.042 70.257 207.942 72.1271C214.123 84.9626 214.13 97.5007 205.812 109.483C203.927 112.206 204.584 114.691 205.808 117.237C206.896 119.491 209.051 119.433 211.177 119.59C216.284 119.97 221.373 120.553 226.476 120.949C228.169 121.079 229.893 120.976 231.585 120.819C234.012 120.601 235.948 119.398 237.345 117.408C238.115 116.32 238.896 115.206 239.454 114.002C242.085 108.341 264.411 84.0195 259.682 68.1116L249.104 60.3578C240.397 59.0269 231.663 55.2136 222.945 53.983Z" fill="#FEFEFE"/>
<path d="M26.6567 25.2023C19.3927 25.0032 12.2525 25.8504 5.34726 28.1058C-4.99488 31.4862 -12.1556 38.0403 -15.133 48.8196C-18.701 61.7213 -17.597 74.3491 -13.1137 86.7684C-12.3579 88.8513 -10.8637 90.7257 -9.45298 92.4914C-8.24386 94.0059 -6.52078 94.2613 -4.97397 92.8767C-3.05793 91.1587 -1.29219 89.2675 0.603441 87.529C7.73941 80.9879 14.8569 74.4276 22.0695 67.9755C29.4325 61.388 36.9 54.9186 44.3272 48.4034C47.3206 45.7819 50.582 43.4083 53.221 40.4751C54.7004 38.835 55.4498 36.3434 55.9402 34.1059C56.1425 33.1919 55.0441 31.4058 54.0904 30.9408C51.3357 29.6006 48.4252 28.4522 45.4516 27.7453C41.4575 26.7961 37.3533 26.2561 33.2813 25.6804C31.095 25.3718 28.8653 25.3532 26.6567 25.2023Z" fill="#FEFEFE"/>
<path d="M118.924 243.744C118.924 240.844 118.883 237.949 118.935 235.053C118.986 232.215 117.742 230.246 115.248 228.955C97.1097 219.557 79.7899 208.617 61.0903 200.284C58.4494 199.108 56.0802 197.342 53.4659 196.108C51.2734 195.072 51.0487 193.671 52.1947 191.864C54.9389 187.547 57.6375 183.194 60.6 179.029C63.1363 175.461 66.0945 172.196 68.7342 168.698C71.8754 164.537 70.6824 160.501 65.87 158.533C61.2822 156.652 59.4855 156.887 56.2409 160.694C49.1947 168.937 42.306 177.314 35.3903 185.668C34.5411 186.693 33.864 187.866 33.188 189.015C31.074 192.625 31.2452 196.213 33.9003 199.394C35.9364 201.831 38.1134 204.289 40.6603 206.142C50.883 213.552 61.1417 220.931 71.6446 227.925C79.4362 233.11 87.6124 237.708 95.6575 242.504C97.1468 243.389 98.0683 244.535 98.0374 246.228C97.9694 249.784 97.8141 253.335 97.6267 256.886C97.516 258.965 97.2092 261.031 97.0998 263.11C96.9643 265.781 97.9694 267.109 100.495 267.858C103.13 268.639 105.74 269.531 108.4 270.196C112.677 271.269 115.316 269.947 116.26 265.614C117.312 260.771 117.821 255.803 118.363 250.868C118.619 248.519 118.405 246.119 118.405 243.744L118.924 243.744Z" fill="#3EAD53"/>
<path d="M249.104 447.26C238.633 451.544 231.672 460.088 227.116 470.459C223.455 478.796 226.341 485.94 234.819 489.315C238.272 490.694 242.11 491.315 245.832 491.768C246.914 491.898 248.006 491.951 249.104 491.964L249.104 447.26Z" fill="#F9A549"/>
<path d="M190.017 237.189C185.34 237.189 180.664 237.261 175.989 237.168C170.786 237.068 168.511 240.114 170.464 244.9C171.583 247.65 172.885 250.326 174.166 253.003C176.806 258.543 181.222 261.438 187.346 261.757C189.72 261.881 192.09 262.095 194.46 262.167C195.674 262.199 196.241 262.637 196.22 263.875C196.131 269.219 196.08 274.566 195.991 279.909C195.954 282.07 194.824 283.558 192.907 284.423C190.402 285.554 187.872 286.621 185.336 287.668C179.972 289.876 178.431 293.901 181.488 300.07C182.242 301.602 183.039 303.111 183.888 304.59C185.367 307.184 187.586 308.554 190.612 308.626C198.188 308.799 205.567 307.559 212.79 305.408C217.431 304.023 220.596 300.971 221.185 296.009C222.846 281.934 223.175 267.854 220.424 253.867C219.846 250.909 218.81 247.984 217.545 245.24C215.154 240.042 211.119 237.002 205.157 237.006C200.11 237.016 195.064 237.011 190.018 237.011L190.017 237.189Z" fill="#3EAD53"/>
<path d="M18.1584 108.086C30.4574 107.936 40.7685 106.087 49.9343 100.078C57.2521 95.2824 62.7813 88.7672 67.1508 81.2644C71.3372 74.0788 73.4735 66.299 72.0931 58.0108C71.3478 53.5717 70.4368 49.0268 67.6407 45.1925C65.5459 42.3261 61.8394 41.6694 59.1781 44.1196C55.2204 47.7671 51.4236 51.5933 47.555 55.3385C42.3054 60.4196 37.0355 65.4765 31.8118 70.5835C28.5896 73.735 25.4378 76.9632 22.2564 80.1543C15.9498 86.4765 9.67974 92.8346 3.32182 99.1037C1.16086 101.238 1.35865 104.145 4.06572 105.54C5.09734 106.077 6.29045 106.394 7.44638 106.571C11.5135 107.201 15.596 107.727 18.1584 108.086Z" fill="#FEFEFE"/>
<path d="M20.2041 363.89C16.5433 364.64 13.3619 365.259 10.1897 365.952C8.66948 366.28 7.14308 366.644 5.67976 367.17C1.86254 368.554 0.618211 371.179 2.20646 374.897C3.92458 378.923 5.894 382.849 7.74263 386.816C8.17494 387.753 8.58051 388.701 9.10188 389.879C8.27374 390.269 7.57121 390.623 6.85193 390.936C3.31054 392.466 -0.271835 393.919 -3.7724 395.549C-5.2351 396.227 -6.65196 397.133 -7.87592 398.183C-11.3851 401.195 -11.6566 404.594 -8.68356 408.084C-3.8978 413.708 1.37408 418.8 7.53347 422.94C12.7769 426.459 16.3819 425.923 20.6296 419.877C22.6563 416.987 21.4948 414.222 18.1569 413.108L17.3184 412.822C13.9069 410.02 10.512 407.203 6.6577 404.011C8.21502 403.359 9.0537 402.958 9.92884 402.651C13.4331 401.433 16.9851 400.329 20.4628 399.027C26.2232 396.866 27.3846 393.496 24.1871 388.295C22.323 385.26 20.2654 382.343 18.3754 379.323C17.6833 378.218 17.22 376.969 16.4742 375.417C18.6104 375.094 20.3594 374.892 22.0837 374.552C25.5781 373.876 29.1343 373.382 32.5248 372.345C37.8159 370.726 38.9464 366.777 35.5553 362.373C33.2441 359.374 30.7696 356.504 28.3743 353.566C27.9209 353.016 27.5046 352.431 26.8163 351.537C32.082 350.719 36.9667 350.38 41.9399 350.682C44.0903 350.812 46.4183 350.536 48.4128 349.782C49.5954 349.333 50.8397 347.693 51.0952 346.401C52.1787 340.852 49.5273 337.508 43.8615 337.545C34.2058 337.612 24.5521 337.904 14.9063 338.33C9.75629 338.555 8.01278 341.492 9.56886 346.366C11.334 351.891 13.876 356.947 17.9375 361.164C18.6519 361.903 19.2553 362.741 20.2028 363.888L20.2041 363.89Z" fill="#CF3438"/>
<path d="M138.193 178.02C128.24 178.873 118.545 180.962 108.961 183.767C102.202 185.747 95.3544 187.403 88.5227 189.111C84.8879 190.022 83.5285 193.396 85.768 196.478C87.6779 199.114 90.4442 200.353 93.6003 200.625C99.4431 201.134 105.296 201.509 111.145 201.972C112.847 202.102 114.54 202.347 116.237 202.514C121.736 203.04 126.44 205.066 130.553 208.929C138.108 216.038 146.946 221.437 155.716 226.9C156.34 227.29 157.012 227.629 157.7 227.899C159.746 228.701 161.787 228.847 163.584 227.327C165.402 225.79 165.646 223.687 164.974 221.61C163.007 215.537 161.167 209.403 158.746 203.509C156.387 197.749 153.492 192.2 150.592 186.679C149.508 184.617 147.883 182.779 146.274 181.066C144.129 178.785 141.353 177.816 138.193 178.02Z" fill="#FEFEFE"/>
<path d="M103.415 479.905C104.087 484.966 104.385 490.112 105.504 495.074C107.582 504.254 113.493 508.367 122.877 507.654C128.355 507.242 133.822 506.676 139.29 506.159C142.868 505.827 145.244 503.858 146.28 500.504C147.045 498.036 147.644 495.48 147.955 492.913C149.107 483.482 150.118 474.031 151.143 464.585C151.268 463.407 151.231 462.211 151.185 461.028C151.049 457.419 149.253 454.671 145.816 453.935C141.212 452.952 136.463 452.458 131.75 452.213C129.064 452.071 127.073 454.29 126.829 457.347C126.584 460.357 126.699 463.43 126.944 466.45C127.448 472.517 128.116 478.566 128.787 484.617C128.938 486.002 128.631 486.794 127.135 486.835L126.474 486.929C120.59 487.82 120.178 487.585 118.919 481.9C118.31 479.164 118.205 476.29 117.383 473.635C116.472 470.704 115.211 467.823 113.659 465.188C113.138 464.298 111.21 463.751 109.999 463.86C107.488 464.085 104.78 467.282 104.467 469.834C104.306 471.161 104.16 472.494 104.123 473.828C104.066 475.833 104.108 477.837 104.108 479.842L103.415 479.905Z" fill="#FEFEFE"/>
<path d="M51.6171 451.786C51.9659 445.871 52.2993 439.956 52.6686 434.041C52.736 432.931 53.0125 431.833 53.0595 430.724C53.2512 426.287 50.3302 424.017 46.315 425.807C30.6515 432.812 14.8457 439.576 0.536015 449.229C-3.48531 451.942 -4.1303 456.046 -0.574073 459.338C1.55163 461.305 4.1808 463.107 6.90456 463.977C19.4547 467.966 32.3226 470.71 45.3669 472.538C48.9602 473.043 51.6011 471.091 51.8504 467.388C52.1949 462.222 51.9394 457.015 51.9394 451.823L51.6171 451.786Z" fill="#FEFEFE"/>
<path d="M249.104 511.404C242.272 512.445 235.44 513.49 228.616 514.575C223.2 515.434 221.45 517.856 222.393 523.272C222.961 526.531 223.752 529.812 224.945 532.89C226.169 536.044 228.47 537.196 231.756 536.535C237.541 535.375 243.323 534.203 249.104 533.026L249.104 511.404Z" fill="#CF3438"/>
<path d="M140.197 79.8371C140.374 81.753 140.422 84.9725 141.009 88.0851C141.837 92.5063 144.931 94.5372 149.336 93.6164C152.004 93.0536 154.654 92.1785 157.148 91.0801C167.272 86.6225 177.354 82.082 187.393 77.4536C191.926 75.3652 192.461 71.3708 188.68 68.1116C186.951 66.6268 185.03 65.2421 182.978 64.2736C174.171 60.1227 165.162 56.4604 155.566 54.5315C153.19 54.0529 150.706 53.926 148.275 53.9588C144.062 54.012 141.833 56.1642 141.509 60.3578C141.041 66.4184 140.687 72.4951 140.197 79.8371Z" fill="#FEFEFE"/>
<path d="M249.104 281.808C245.147 281.808 241.191 281.81 237.236 281.819C236.272 281.819 235.303 281.903 234.349 282.033C231.585 282.407 230.157 283.72 229.871 286.443C229.533 289.766 229.262 293.104 229.184 296.436C229.096 300.352 231.179 302.419 235.142 302.201C239.797 301.945 244.452 301.681 249.104 301.408L249.104 281.808Z" fill="#F9A549"/>
<path d="M188.591 431.458C188.236 431.505 187.392 431.505 186.628 431.75C179.555 434 172.489 436.259 165.447 438.608C164.203 439.018 163.027 439.747 161.933 440.503C159.761 442.003 158.834 444.138 159.574 446.71C160.767 450.849 161.949 455 163.439 459.035C165.058 463.441 167.453 464.41 171.995 463.175C177.082 461.796 182.242 460.671 187.293 459.165C190.616 458.171 193.898 456.895 197.022 455.38C200.1 453.88 201.088 451.615 200.048 448.339C198.631 443.908 196.964 439.535 195.116 435.265C194.048 432.801 191.882 431.442 188.591 431.458Z" fill="#F9A549"/>
<path d="M47.6849 539.195C46.1127 540.756 44.7366 541.996 43.5132 543.365C38.4937 548.989 39.9774 555.164 47.1221 557.399C51.0655 558.633 55.2105 559.304 59.3079 559.925C62.412 560.393 64.0002 558.647 64.6353 555.602C65.3806 552.051 64.7857 548.729 64.0361 545.292C62.8283 539.782 61.9636 534.195 60.8343 528.67C60.3191 526.145 59.5837 523.65 58.8193 521.188C58.1884 519.157 56.1469 517.855 53.8239 518.438C47.5068 520.02 42.3981 523.453 39.4047 529.378C37.9563 532.248 39.2378 535.272 42.2584 536.887C43.8733 537.752 45.6389 538.336 47.6849 539.195Z" fill="#F9A549"/>
<path d="M12.3149 496.386C12.9717 505.504 13.6223 515.429 14.4301 525.344C14.8877 530.931 17.549 532.867 23.1159 532.025C23.7053 531.936 24.2929 531.831 24.8712 531.701C30.5327 530.399 32.1625 528.005 31.2249 522.271C29.443 511.352 27.6364 500.437 25.8398 489.523C25.481 487.327 25.1737 485.118 24.7562 482.931C24.1377 479.707 22.8297 478.364 20.1375 478.026C17.1954 477.651 15.534 478.708 14.0905 481.79C12.0285 486.202 12.2426 490.893 12.3149 496.386Z" fill="#3EAD53"/>
<path d="M129.209 270.676C129.709 273.066 130.037 275.514 130.751 277.841C132.021 281.971 134.729 283.871 139.004 283.329C142.671 282.865 146.357 282.143 149.877 281.034C155.466 279.263 160.969 277.18 166.412 274.998C167.979 274.368 169.541 273.181 170.552 271.836C172.285 269.514 171.245 267.016 169.323 264.933C166.292 261.641 162.839 261.824 158.944 262.308C150.908 263.312 142.837 264.041 134.776 264.844C130.604 265.265 129.344 266.587 129.209 270.676Z" fill="#CF3438"/>
<path d="M-39.3439 106.149C-38.0104 112.232 -36.9065 118.48 -33.8599 124.093C-32.1517 127.233 -28.4761 128.3 -25.6107 126.197C-20.9028 122.74 -16.2735 119.079 -12.1557 114.96C-8.68235 111.487 -9.88955 107.144 -14.4508 105.342C-20.2422 103.046 -26.1271 100.973 -32.0274 98.9683C-35.1575 97.9064 -37.6196 99.3696 -38.5467 102.54C-38.8801 103.675 -39.0631 104.853 -39.3439 106.149Z" fill="#CF3438"/>
<path d="M84.8101 310.255C85.3253 310.255 85.846 310.25 86.3612 310.255C92.074 310.292 94.3388 307.803 93.677 302.085C93.4383 300.029 93.1786 297.946 92.5997 295.973C91.549 292.357 89.0541 290.796 85.3457 291.265C81.4456 291.754 77.5602 292.333 73.6811 292.947C71.1967 293.342 69.6499 294.706 69.6146 297.221C69.5615 300.529 69.8121 303.881 70.3539 307.146C70.7602 309.589 72.7645 310.885 75.4988 310.813C78.603 310.735 81.7016 310.37 84.8001 310.131L84.8101 310.255Z" fill="#CF3438"/>
<path d="M41.2013 507.045C42.9399 506.686 46.3205 506.145 49.5965 505.249C53.1627 504.275 55.0806 501.442 54.0119 497.938C52.5121 492.986 50.5855 488.132 48.398 483.442C46.9965 480.436 41.8051 480.447 39.3986 483.592C35.4676 488.722 32.7233 494.506 32.6188 501.151C32.5563 505.146 35.1298 507.212 41.2013 507.045Z" fill="#F9A549"/>
<path d="M75.4309 12.0984C68.8998 12.078 63.396 16.6891 63.396 22.1771C63.4016 28.3181 69.4323 34.0076 75.9003 33.9724C82.0232 33.9396 86.8616 29.0255 86.8721 22.8326C86.8764 16.4943 82.2162 12.1207 75.4309 12.0984Z" fill="#3EAD53"/>
<path d="M-1.31819 295.17C-1.44374 293.619 -1.44804 292.051 -1.72388 290.526C-2.25082 287.579 -4.23919 285.922 -7.21838 286.167C-9.79557 286.381 -12.3747 286.823 -14.89 287.428C-17.4468 288.036 -19.8638 291.895 -19.8576 294.91C-19.8471 298.472 -18.0918 301.237 -14.9933 302.091C-12.6449 302.743 -10.2242 303.206 -7.80159 303.523C-3.77593 304.049 -1.65782 302.174 -1.42713 298.07C-1.3758 297.108 -1.42273 296.14 -1.42273 295.176L-1.31819 295.17Z" fill="#FEFEFE"/>
<path d="M39.2068 224.988C35.9356 224.957 34.0932 226.139 33.1086 228.331C31.4993 231.903 29.9055 235.517 28.7125 239.24C28.3229 240.458 28.8541 242.329 29.6087 243.468C30.5667 244.906 32.3424 244.733 33.8632 244C37.3162 242.329 40.7999 240.708 44.1638 238.87C45.4923 238.147 46.6853 237.026 47.6582 235.85C49.0028 234.235 49.2935 232.199 47.9873 230.486C45.6018 227.373 42.2682 225.686 39.2068 224.988Z" fill="#FEFEFE"/>
<path d="M-34.0357 331.217C-38.0558 331.839 -41.951 332.315 -45.783 333.095C-47.2575 333.394 -48.7201 334.197 -49.9706 335.083C-53.136 337.326 -53.8133 340.462 -52.0377 343.887C-51.0735 345.732 -49.9386 347.491 -49.0381 349.361C-42.8571 362.197 -42.8508 374.735 -51.168 386.717C-53.0531 389.44 -52.3965 391.925 -51.1725 394.471C-50.0846 396.725 -47.9292 396.667 -45.8035 396.824C-40.6962 397.204 -35.6072 397.787 -30.5048 398.183C-28.8114 398.313 -27.087 398.21 -25.3955 398.053C-22.9686 397.835 -21.0323 396.632 -19.6358 394.642C-18.8651 393.554 -18.0839 392.44 -17.526 391.236C-14.8957 385.575 -11.5727 380.407 -7.87603 375.505L-7.87603 334.921C-16.5829 333.59 -25.3177 332.448 -34.0357 331.217Z" fill="#FEFEFE"/>
<path d="M302.558 342.951C304.829 347.471 304.973 351.853 302.914 356.282C298.589 365.569 294.073 374.765 289.925 384.132C287.202 390.28 284.87 396.611 282.577 402.943C280.332 409.144 280.879 415.156 284.748 420.696C288.815 426.527 292.934 432.323 296.976 438.168C298.226 439.977 299.552 441.807 300.397 443.811C302.247 448.204 299.839 452.267 295.108 452.132C290.555 452.002 285.959 451.213 281.499 450.197C277.833 449.364 274.341 447.756 270.763 446.52C268.947 445.889 267.066 445.421 265.288 444.703C259.363 442.312 254.242 438.739 250.561 433.452C248.419 430.371 248.118 426.728 249.059 423.097C249.597 421.037 250.257 418.998 251.022 417.012C259.533 395.056 268.87 373.489 280.706 353.107C283.291 348.649 285.732 344.109 288.319 339.655C288.963 338.542 289.79 337.467 290.755 336.638C292.522 335.116 294.896 335.097 296.789 336.807C298.863 338.683 300.65 340.89 302.558 342.951Z" fill="#CF3438"/>
<path d="M375.81 152.128C374.86 156.279 374.117 160.012 373.134 163.709C372.028 167.854 370.97 172.025 369.413 176.081C367.501 181.049 364.354 182.758 357.541 182.481C349.773 182.168 342.031 181.487 334.277 180.95C333.246 180.877 332.222 180.737 330.767 180.586C331.026 181.575 331.142 182.284 331.404 182.96C334.032 189.725 336.433 196.551 339.417 203.226C341.54 207.986 341.008 211.938 335.812 215.28C332.25 217.577 328.965 220.165 325.157 222.181C322.686 223.494 319.578 224.342 316.597 224.826C311.149 225.711 306.233 223.842 303.577 220.097C302.431 218.488 301.542 216.698 301.024 214.912C295.261 194.878 289.535 174.842 283.957 154.785C283.071 151.608 282.633 148.3 282.598 145.051C282.525 138.088 288.456 134.72 297.092 136.943C301.475 138.073 305.713 139.74 309.674 141.588C319.64 146.244 329.402 151.149 339.268 155.934C340.364 156.471 341.574 156.877 343.459 157.631C343.041 153.711 342.727 150.336 342.311 146.973C341.225 138.172 339.888 129.388 339.082 120.572C338.719 116.672 339.354 112.715 339.635 108.789C339.703 107.835 340.065 106.877 340.454 105.966C342.393 101.434 347.158 99.607 352.852 101.529C356.115 102.633 359.242 104.112 362.075 105.773C378.076 115.125 393.983 124.581 409.894 134.022C413.124 135.939 416.257 137.944 419.457 139.891C420.181 140.334 420.981 140.702 422.447 141.469C421.937 139.918 421.753 138.974 421.316 138.1C417.58 130.684 413.785 123.286 410.03 115.869C408.352 112.548 406.645 109.226 405.136 105.851C404.577 104.611 404.309 103.232 404.337 101.921C404.399 98.8575 407.136 96.6862 411.142 96.6287C413.341 96.5928 415.614 96.8897 417.751 97.3325C444.552 102.852 471.368 108.339 498.093 114.052C504.721 115.469 511.248 117.354 517.486 119.573C526.271 122.696 532.307 127.924 534.902 135.199C537.119 141.431 539.25 147.691 541.373 153.945C541.686 154.876 541.864 155.845 541.932 156.808C542.069 158.745 541.195 160.36 538.724 161.151C536.26 161.942 534.062 161.355 532.396 159.886C530.176 157.917 527.964 155.918 526.06 153.772C523.076 150.424 519.172 147.903 514.563 146.055C497.58 139.228 479.107 137.438 460.279 136.885C457.632 136.808 456.376 137.724 455.815 139.593C454.04 145.53 452.225 151.46 450.361 157.385C449.425 160.343 448.538 163.322 447.296 166.206C446.516 168.019 445.371 169.8 443.971 171.383C440.483 175.33 436.113 176.226 430.563 174.08C421.443 170.55 412.405 166.9 403.373 163.234C395.29 159.954 387.275 156.58 379.221 153.262C378.299 152.882 377.301 152.616 375.808 152.126L375.81 152.128Z" fill="#3EAD53"/>
<path d="M489.144 484.15C490.481 501.209 489.438 516.533 484.167 531.54C482.741 535.597 480.788 539.628 478.344 543.391C472.951 551.676 463.518 555.712 451.795 556.909C437.146 558.409 422.503 557.638 408.21 555.273C378.711 550.389 349.378 544.921 319.962 539.737C310.35 538.043 304.644 533.378 301.838 526.354C299.073 519.433 298.233 512.305 298.908 505.177C299.748 496.298 301.161 487.436 302.765 478.615C303.824 472.792 309.02 470.699 316.201 472.991C325.397 475.922 333.172 480.504 340.347 485.722C348.525 491.669 355.181 498.537 360.704 506.004C363.216 509.393 366.732 511.352 371.51 512.195C379.77 513.643 388.037 515.054 396.303 516.459C410.182 518.824 424.046 521.25 437.952 523.5C444.896 524.625 445.736 524.443 447.429 519.127C450.481 509.534 452.869 499.823 455.483 490.159C457.416 483.03 459.321 475.896 461.143 468.752C462.877 461.93 468.878 458.806 477.268 457.624C483.663 456.723 489.261 460.477 489.172 465.481C489.064 472.242 489.144 479 489.144 484.15Z" fill="#F9A549"/>
<path d="M407.519 381.042C419.404 381.042 431.289 381.022 443.174 381.048C450.37 381.063 456.986 386.843 456.206 392.378C455.852 394.883 453.51 396.71 449.462 397.126C445.714 397.518 441.897 397.7 438.109 397.736C417.752 397.95 397.388 398.074 377.032 398.251C371.66 398.299 371.154 398.513 370.553 402.552C369.283 411.162 367.911 409.51 378.069 410.682C398.871 413.071 419.78 414.9 440.593 417.264C453.497 418.732 466.308 420.685 479.123 422.554C485.137 423.429 487.616 425.893 486.571 430.516C485.539 435.11 483.895 439.65 482.024 444.091C480.591 447.492 476.87 449.21 472.268 449.033C466.445 448.81 460.589 448.423 454.861 447.622C426.887 443.726 398.939 439.701 371.012 435.625C366.916 435.027 362.956 433.886 358.929 433.01C352.307 431.574 347.862 428.398 346.026 423.315C341.826 411.718 337.315 400.174 333.702 388.473C328.379 371.237 324.733 353.769 323.669 336.043C323.456 332.491 323.627 328.913 323.934 325.363C324.385 320.003 327.758 315.936 333.948 313.298C335.479 312.647 336.987 311.943 338.585 311.402C365.535 302.3 392.924 294.167 422.053 290.037C424.114 289.74 426.714 289.791 428.484 290.516C432.798 292.286 432.464 298.41 428.202 300.248C426.933 300.794 425.583 301.233 424.251 301.696C406.727 307.825 389.189 313.932 371.673 320.078C359.337 324.399 357.42 326.357 358.648 336.73C359.985 348.045 362.218 359.298 364.06 370.576C364.497 373.231 365.1 375.883 365.283 378.548C365.44 380.773 366.928 381.564 369.55 381.554C375.973 381.523 382.398 381.448 388.827 381.428C395.055 381.408 401.286 381.424 407.518 381.424L407.519 381.042Z" fill="#FEFEFE"/>
<path d="M615.556 202.686C614.622 212.037 614.041 220.427 612.866 228.768C611.891 235.669 608.75 237.813 599.698 238.85C594.688 239.423 589.67 239.938 584.653 240.459C582.203 240.708 581.145 241.719 580.564 243.604C578.201 251.264 575.614 258.882 573.027 266.506C570.856 272.91 565.238 276.436 556.775 277.378C546.172 278.564 535.551 279.643 524.956 280.846C516.681 281.784 517.931 281.788 518.696 286.887C519.555 292.546 520.908 298.169 522.369 303.762C523.352 307.538 526.355 309.308 531.829 309.485C541.06 309.781 550.247 310.772 559.449 311.496C560.515 311.578 561.566 311.761 562.603 311.965C568.734 313.172 570.672 315.875 568.706 320.473C568.406 321.175 568.071 321.874 567.718 322.566C564.877 328.101 562.392 329.404 554.706 328.966C543.442 328.33 532.186 327.586 520.934 326.83C519.104 326.707 517.309 326.289 515.514 325.951C506.51 324.253 501.145 320.191 499.336 312.975C496.1 300.045 492.57 287.173 492.535 273.926C492.53 272.146 492.358 270.354 492.53 268.584C493.143 262.423 496.551 258.836 504.415 257.383C512.436 255.904 520.694 255.17 528.826 254.019C536.102 252.988 543.339 251.802 550.601 250.744C552.937 250.405 553.866 249.494 553.728 247.667C553.312 241.881 553.088 236.086 552.664 230.3C552.186 223.729 554.753 220.01 563.027 218.074C570.994 216.205 579.328 215.258 587.508 213.913C588.558 213.742 589.739 213.794 590.633 213.419C591.494 213.06 592.634 212.31 592.668 211.696C592.968 206.727 593.036 201.75 593.18 196.778C593.233 195.027 592.224 193.918 590.101 193.142C583.425 190.701 576.892 188.023 570.167 185.664C564.467 183.665 561.526 180.249 561.388 175.704C561.02 163.748 560.939 151.787 560.939 139.825C560.945 136.712 563.094 135.217 567.116 134.962C570.707 134.733 574.311 134.545 577.916 134.53C585.575 134.504 589.391 136.842 590.422 142.602C591.692 149.668 592.675 156.764 593.461 163.868C593.755 166.549 595.168 167.997 598.43 168.887C601.995 169.866 605.422 171.158 608.82 172.45C612.022 173.667 613.811 175.729 613.994 178.49C614.562 186.868 615.08 195.252 615.558 202.688L615.556 202.686Z" fill="#CF3438"/>
<path d="M249 146.519C255.5 142.52 259.75 152.328 264.701 156.183L266.292 157.485C279.952 169.212 280.422 182.219 267.527 194.441C262.05 199.636 255 208.02 249 207.519L241.5 191.019C249.355 183.937 241.287 192.907 233.5 185.519L249 146.519ZM248.5 219.019C254 217.02 260.603 222.691 266.23 225.512C272.339 228.575 276.355 232.798 278.537 238.109C280.449 242.748 279.358 246.889 275.48 250.685C269.233 256.797 260.94 260.489 251.28 262.451C250.339 262.641 249.5 263 248.453 263L245 257.019C247.473 256.405 239.702 257.602 242 256.519C248.868 253.281 247.843 256.741 241.5 253.023C238.874 251.483 236.256 246.53 233.5 245.259L248.5 219.019Z" fill="#FEFEFE"/>
<path d="M514.716 415.555C507.589 415.347 502.079 413.192 498.011 408.922C489.484 399.959 481.199 390.862 472.452 382.026C466.713 376.225 460.48 370.701 454.22 365.213C448.09 359.838 440.293 357.213 430.819 357.99C420.852 358.802 410.893 359.681 400.924 360.463C397.84 360.703 394.678 361.004 391.628 360.759C384.945 360.218 381.565 355.807 384.95 351.386C388.207 347.132 392.309 343.18 396.597 339.477C400.119 336.432 404.481 333.958 408.441 331.208C410.455 329.814 412.313 328.273 414.409 326.96C421.393 322.585 429.289 319.592 438.322 318.863C443.584 318.44 448.288 320.059 452.132 322.851C454.31 324.439 456.379 326.132 458.31 327.897C479.636 347.459 499.919 367.602 517.038 389.497C520.786 394.283 524.732 398.975 528.473 403.76C529.409 404.953 530.174 406.301 530.541 407.65C531.219 410.124 529.628 412.388 526.228 413.29C522.501 414.279 518.559 414.821 514.716 415.555Z" fill="#CF3438"/>
<path d="M540.056 25.2023C549.578 25.0032 558.938 25.8504 567.99 28.1058C581.548 31.4862 590.935 38.0403 594.838 48.8196C599.515 61.7213 598.068 74.3491 592.19 86.7684C591.2 88.8513 589.241 90.7257 587.392 92.4913C585.807 94.0059 583.548 94.2613 581.52 92.8766C579.009 91.1586 576.694 89.2675 574.209 87.529C564.854 80.9879 555.524 74.4276 546.069 67.9755C536.417 61.388 526.628 54.9186 516.892 48.4034C512.968 45.7819 508.693 43.4083 505.233 40.4751C503.294 38.835 502.311 36.3434 501.669 34.1059C501.403 33.1918 502.843 31.4058 504.093 30.9408C507.705 29.6006 511.52 28.4522 515.418 27.7453C520.654 26.796 526.034 26.2561 531.372 25.6804C534.238 25.3718 537.161 25.3532 540.056 25.2023Z" fill="#FEFEFE"/>
<path d="M419.104 243.744C419.104 240.844 419.157 237.949 419.09 235.053C419.022 232.215 420.653 230.246 423.922 228.955C447.7 219.557 470.404 208.617 494.917 200.284C498.379 199.108 501.485 197.342 504.912 196.108C507.786 195.072 508.081 193.671 506.578 191.864C502.981 187.547 499.444 183.194 495.56 179.029C492.235 175.461 488.357 172.196 484.897 168.698C480.779 164.537 482.343 160.501 488.652 158.533C494.666 156.652 497.021 156.887 501.274 160.694C510.511 168.937 519.541 177.314 528.607 185.668C529.72 186.693 530.608 187.866 531.494 189.015C534.265 192.625 534.041 196.213 530.56 199.394C527.891 201.831 525.038 204.289 521.699 206.142C508.298 213.552 494.85 220.931 481.082 227.925C470.868 233.11 460.15 237.708 449.604 242.504C447.651 243.389 446.443 244.535 446.484 246.228C446.573 249.784 446.776 253.335 447.022 256.886C447.167 258.965 447.569 261.031 447.713 263.11C447.89 265.781 446.573 267.108 443.262 267.858C439.808 268.639 436.387 269.531 432.9 270.196C427.293 271.269 423.833 269.947 422.596 265.614C421.217 260.771 420.549 255.803 419.839 250.868C419.504 248.519 419.785 246.119 419.785 243.744L419.104 243.744Z" fill="#3EAD53"/>
<path d="M248.453 447.26C262.179 451.544 271.304 460.088 277.276 470.459C282.075 478.796 278.292 485.94 267.179 489.315C262.652 490.694 257.621 491.315 252.741 491.768C251.323 491.898 249.891 491.951 248.453 491.964L248.453 447.26Z" fill="#F9A549"/>
<path d="M325.909 237.189C332.04 237.189 338.17 237.261 344.297 237.168C351.119 237.068 354.101 240.114 351.541 244.9C350.074 247.65 348.367 250.326 346.688 253.003C343.227 258.543 337.438 261.438 329.41 261.757C326.298 261.881 323.192 262.095 320.084 262.167C318.493 262.199 317.75 262.637 317.778 263.875C317.893 269.219 317.961 274.566 318.078 279.909C318.125 282.07 319.608 283.558 322.12 284.423C325.404 285.554 328.72 286.621 332.045 287.668C339.077 289.875 341.097 293.901 337.09 300.07C336.101 301.602 335.056 303.111 333.943 304.59C332.005 307.184 329.096 308.554 325.129 308.626C315.198 308.799 305.525 307.559 296.056 305.408C289.972 304.023 285.823 300.971 285.051 296.009C282.874 281.934 282.443 267.854 286.048 253.867C286.806 250.909 288.165 247.984 289.823 245.24C292.957 240.042 298.247 237.001 306.062 237.006C312.678 237.016 319.292 237.011 325.908 237.011L325.909 237.189Z" fill="#3EAD53"/>
<path d="M551.196 108.086C535.074 107.935 521.557 106.087 509.542 100.078C499.949 95.2824 492.701 88.7672 486.973 81.2644C481.485 74.0788 478.684 66.299 480.494 58.0108C481.471 53.5717 482.665 49.0268 486.331 45.1925C489.077 42.3261 493.935 41.6693 497.424 44.1196C502.612 47.7671 507.589 51.5933 512.661 55.3385C519.542 60.4196 526.451 65.4765 533.298 70.5835C537.522 73.735 541.654 76.9632 545.824 80.1543C554.092 86.4765 562.311 92.8346 570.645 99.1037C573.478 101.238 573.219 104.145 569.67 105.54C568.318 106.077 566.754 106.394 565.239 106.571C559.907 107.201 554.555 107.727 551.196 108.086Z" fill="#FEFEFE"/>
<path d="M548.515 363.89C553.313 364.64 557.484 365.259 561.642 365.952C563.635 366.28 565.636 366.644 567.554 367.17C572.558 368.554 574.19 371.179 572.107 374.897C569.855 378.923 567.274 382.849 564.85 386.816C564.283 387.753 563.752 388.701 563.068 389.879C564.154 390.269 565.075 390.623 566.018 390.936C570.66 392.466 575.356 393.919 579.945 395.549C581.863 396.227 583.72 397.132 585.324 398.183C589.925 401.195 590.28 404.594 586.383 408.084C580.109 413.708 573.199 418.8 565.124 422.94C558.251 426.459 553.525 425.923 547.957 419.877C545.3 416.987 546.823 414.222 551.198 413.108L552.297 412.822C556.769 410.02 561.22 407.203 566.272 404.011C564.231 403.359 563.132 402.958 561.984 402.651C557.391 401.433 552.734 400.329 548.176 399.027C540.624 396.866 539.102 393.496 543.293 388.294C545.737 385.26 548.434 382.343 550.912 379.323C551.819 378.218 552.426 376.969 553.404 375.417C550.604 375.094 548.311 374.892 546.051 374.552C541.47 373.876 536.808 373.382 532.364 372.345C525.428 370.726 523.945 366.777 528.391 362.373C531.421 359.374 534.664 356.504 537.804 353.566C538.399 353.016 538.944 352.431 539.847 351.537C532.944 350.719 526.541 350.38 520.021 350.682C517.202 350.812 514.151 350.536 511.536 349.782C509.986 349.333 508.355 347.693 508.02 346.401C506.599 340.852 510.075 337.508 517.502 337.545C530.16 337.612 542.815 337.903 555.459 338.33C562.211 338.555 564.496 341.492 562.456 346.366C560.142 351.891 556.81 356.947 551.486 361.164C550.549 361.903 549.758 362.741 548.516 363.888L548.515 363.89Z" fill="#CF3438"/>
<path d="M393.845 178.02C406.892 178.873 419.601 180.962 432.164 183.767C441.025 185.747 450.001 187.403 458.957 189.111C463.721 190.022 465.503 193.396 462.568 196.478C460.064 199.114 456.438 200.353 452.3 200.625C444.641 201.134 436.969 201.509 429.302 201.972C427.071 202.102 424.851 202.347 422.626 202.514C415.418 203.04 409.252 205.066 403.859 208.929C393.955 216.038 382.371 221.437 370.874 226.9C370.055 227.29 369.175 227.629 368.273 227.899C365.591 228.701 362.915 228.847 360.56 227.327C358.176 225.79 357.856 223.687 358.737 221.61C361.316 215.537 363.727 209.403 366.901 203.509C369.994 197.749 373.789 192.2 377.591 186.679C379.012 184.617 381.142 182.779 383.251 181.066C386.063 178.785 389.702 177.816 393.845 178.02Z" fill="#FEFEFE"/>
<path d="M439.434 479.905C438.554 484.966 438.162 490.112 436.696 495.074C433.971 504.254 426.223 508.367 413.922 507.654C406.741 507.242 399.574 506.676 392.406 506.159C387.716 505.827 384.602 503.858 383.244 500.504C382.241 498.036 381.455 495.48 381.047 492.913C379.538 483.481 378.212 474.031 376.868 464.585C376.705 463.407 376.753 462.211 376.813 461.028C376.991 457.419 379.346 454.671 383.851 453.935C389.887 452.952 396.112 452.458 402.29 452.213C405.812 452.071 408.421 454.29 408.742 457.347C409.063 460.357 408.912 463.43 408.591 466.45C407.929 472.517 407.054 478.566 406.174 484.617C405.976 486.002 406.379 486.794 408.34 486.835L409.206 486.929C416.92 487.82 417.46 487.585 419.11 481.9C419.909 479.164 420.047 476.29 421.124 473.635C422.318 470.703 423.971 467.823 426.005 465.188C426.688 464.298 429.216 463.751 430.804 463.86C434.095 464.085 437.645 467.282 438.055 469.834C438.266 471.161 438.457 472.494 438.506 473.828C438.581 475.833 438.526 477.837 438.526 479.841L439.434 479.905Z" fill="#FEFEFE"/>
<path d="M507.336 451.786C506.878 445.871 506.441 439.956 505.957 434.041C505.869 432.931 505.506 431.833 505.445 430.724C505.194 426.287 509.023 424.017 514.286 425.807C534.819 432.812 555.539 439.576 574.297 449.229C579.569 451.942 580.414 456.046 575.752 459.338C572.966 461.305 569.519 463.107 565.949 463.977C549.497 467.966 532.629 470.71 515.529 472.538C510.819 473.043 507.357 471.091 507.03 467.388C506.578 462.222 506.913 457.015 506.913 451.823L507.336 451.786Z" fill="#FEFEFE"/>
<path d="M248.453 511.404C257.408 512.445 266.364 513.49 275.31 514.575C282.409 515.434 284.703 517.856 283.467 523.272C282.723 526.531 281.686 529.812 280.122 532.89C278.518 536.044 275.501 537.196 271.194 536.535C263.61 535.375 256.031 534.203 248.453 533.026L248.453 511.404Z" fill="#CF3438"/>
<path d="M391.217 79.8371C390.985 81.753 390.923 84.9725 390.153 88.0851C389.067 92.5062 385.011 94.5372 379.237 93.6164C375.74 93.0536 372.266 92.1785 368.996 91.0801C355.725 86.6225 342.509 82.082 329.348 77.4536C323.407 75.3652 322.705 71.3708 327.661 68.1116C329.929 66.6268 332.446 65.2421 335.136 64.2736C346.681 60.1227 358.49 56.4604 371.07 54.5315C374.184 54.0528 377.441 53.926 380.628 53.9588C386.151 54.012 389.073 56.1642 389.497 60.3577C390.111 66.4184 390.574 72.495 391.217 79.8371Z" fill="#FEFEFE"/>
<path d="M248.453 281.808C253.639 281.808 258.825 281.81 264.01 281.819C265.274 281.819 266.544 281.903 267.794 282.033C271.418 282.407 273.289 283.72 273.665 286.443C274.108 289.766 274.462 293.104 274.565 296.436C274.681 300.352 271.95 302.419 266.755 302.201C260.653 301.945 254.551 301.681 248.453 301.408L248.453 281.808Z" fill="#F9A549"/>
<path d="M327.778 431.458C328.243 431.505 329.349 431.505 330.351 431.75C339.623 434 348.885 436.259 358.117 438.608C359.748 439.018 361.29 439.747 362.724 440.503C365.571 442.003 366.786 444.138 365.816 446.71C364.252 450.849 362.702 455 360.75 459.035C358.627 463.441 355.488 464.41 349.534 463.175C342.866 461.796 336.101 460.671 329.479 459.165C325.123 458.17 320.821 456.895 316.726 455.38C312.692 453.88 311.395 451.615 312.759 448.339C314.617 443.908 316.802 439.535 319.225 435.265C320.624 432.801 323.464 431.442 327.778 431.458Z" fill="#F9A549"/>
<path d="M512.49 539.195C514.551 540.756 516.355 541.996 517.959 543.365C524.539 548.989 522.594 555.164 513.228 557.399C508.059 558.633 502.625 559.304 497.254 559.925C493.185 560.393 491.103 558.647 490.27 555.602C489.293 552.051 490.073 548.729 491.056 545.292C492.639 539.782 493.773 534.195 495.253 528.67C495.928 526.145 496.892 523.65 497.894 521.188C498.721 519.157 501.398 517.855 504.443 518.438C512.724 520.02 519.421 523.453 523.345 529.378C525.243 532.248 523.564 535.272 519.604 536.887C517.487 537.752 515.172 538.336 512.49 539.195Z" fill="#F9A549"/>
<path d="M558.856 496.386C557.995 505.504 557.143 515.429 556.084 525.344C555.484 530.931 551.995 532.867 544.698 532.024C543.925 531.936 543.155 531.831 542.397 531.701C534.975 530.399 532.838 528.005 534.068 522.271C536.403 511.352 538.772 500.437 541.127 489.523C541.597 487.327 542 485.118 542.547 482.931C543.358 479.707 545.073 478.364 548.602 478.026C552.459 477.651 554.637 478.708 556.529 481.79C559.232 486.202 558.951 490.893 558.856 496.386Z" fill="#3EAD53"/>
<path d="M405.622 270.676C404.966 273.066 404.536 275.514 403.6 277.841C401.935 281.971 398.385 283.871 392.781 283.329C387.974 282.865 383.142 282.143 378.528 281.034C371.201 279.263 363.987 277.18 356.853 274.998C354.798 274.368 352.75 273.181 351.425 271.836C349.153 269.514 350.517 267.016 353.037 264.933C357.009 261.641 361.536 261.824 366.643 262.308C377.176 263.312 387.756 264.041 398.324 264.844C403.792 265.265 405.444 266.587 405.622 270.676Z" fill="#CF3438"/>
<path d="M626.575 106.149C624.827 112.232 623.38 118.48 619.386 124.093C617.147 127.233 612.329 128.3 608.573 126.197C602.401 122.74 596.333 119.079 590.935 114.96C586.382 111.487 587.964 107.144 593.943 105.342C601.535 103.046 609.25 100.973 616.984 98.9683C621.087 97.9064 624.315 99.3696 625.53 102.54C625.967 103.675 626.207 104.853 626.575 106.149Z" fill="#CF3438"/>
<path d="M463.823 310.255C463.148 310.255 462.465 310.25 461.79 310.255C454.301 310.292 451.332 307.803 452.2 302.085C452.513 300.029 452.853 297.946 453.612 295.973C454.989 292.357 458.26 290.796 463.121 291.265C468.234 291.754 473.327 292.332 478.412 292.947C481.669 293.342 483.697 294.706 483.743 297.221C483.813 300.529 483.484 303.881 482.774 307.146C482.241 309.589 479.614 310.885 476.029 310.813C471.96 310.735 467.898 310.37 463.836 310.131L463.823 310.255Z" fill="#CF3438"/>
<path d="M520.99 507.045C518.711 506.686 514.279 506.145 509.984 505.249C505.31 504.275 502.795 501.442 504.196 497.938C506.162 492.986 508.688 488.132 511.556 483.442C513.393 480.436 520.198 480.447 523.353 483.592C528.506 488.722 532.103 494.506 532.24 501.152C532.322 505.146 528.949 507.212 520.99 507.045Z" fill="#F9A549"/>
<path d="M476.118 12.0984C484.68 12.078 491.895 16.6891 491.895 22.1771C491.888 28.3181 483.982 34.0076 475.503 33.9724C467.477 33.9396 461.134 29.0255 461.12 22.8326C461.115 16.4943 467.224 12.1207 476.118 12.0984Z" fill="#3EAD53"/>
<path d="M576.728 295.17C576.893 293.619 576.898 292.051 577.26 290.526C577.951 287.579 580.557 285.922 584.462 286.167C587.841 286.381 591.222 286.823 594.519 287.428C597.871 288.036 601.039 291.895 601.031 294.91C601.017 298.472 598.716 301.237 594.654 302.091C591.576 302.743 588.403 303.206 585.227 303.523C579.95 304.049 577.173 302.174 576.871 298.07C576.803 297.108 576.865 296.14 576.865 295.176L576.728 295.17Z" fill="#FEFEFE"/>
<path d="M523.604 224.988C527.892 224.957 530.308 226.139 531.598 228.331C533.708 231.903 535.797 235.517 537.361 239.24C537.872 240.458 537.175 242.329 536.186 243.468C534.93 244.906 532.603 244.733 530.609 244C526.083 242.329 521.516 240.708 517.106 238.87C515.365 238.147 513.801 237.026 512.525 235.85C510.763 234.235 510.382 232.199 512.094 230.486C515.221 227.373 519.591 225.686 523.604 224.988Z" fill="#FEFEFE"/>
<path d="M619.617 331.217C624.887 331.839 629.993 332.315 635.016 333.095C636.949 333.394 638.867 334.197 640.506 335.083C644.655 337.326 645.543 340.462 643.216 343.887C641.952 345.732 640.464 347.491 639.283 349.361C631.181 362.197 631.173 374.735 642.075 386.717C644.547 389.44 643.686 391.925 642.081 394.471C640.655 396.725 637.83 396.667 635.043 396.824C628.348 397.204 621.677 397.787 614.988 398.183C612.768 398.313 610.508 398.21 608.291 398.053C605.109 397.835 602.571 396.632 600.74 394.642C599.73 393.554 598.706 392.44 597.975 391.236C594.526 385.575 590.17 380.407 585.325 375.505L585.325 334.921C596.738 333.59 608.189 332.448 619.617 331.217Z" fill="#FEFEFE"/>
<path d="M283.288 116.732C287.11 115.708 290.931 114.682 294.749 113.65C295.68 113.401 296.594 113.069 297.482 112.697C300.055 111.619 301.094 109.982 300.666 107.277C300.133 103.98 299.53 100.686 298.743 97.4467C297.815 93.6413 295.268 92.1841 291.496 93.4207C287.066 94.8722 282.639 96.3325 278.216 97.8001L283.288 116.732Z" fill="#F9A549"/>
<path d="M337.044 30.1567C334.564 27.3615 332.438 24.9155 330.252 22.5149C329.208 21.3623 328.128 20.2228 326.942 19.2184C323.834 16.6046 320.939 16.8393 318.513 20.0741C315.886 23.5747 313.47 27.2434 310.959 30.8277C310.364 31.6709 309.746 32.4959 308.986 33.5364C308.235 33.014 307.577 32.5828 306.946 32.1164C303.85 29.8147 300.8 27.4387 297.639 25.2219C296.321 24.294 294.828 23.52 293.306 22.9854C288.943 21.4522 285.863 22.9166 284.328 27.2362C281.85 34.1928 280.076 41.3044 279.571 48.7085C279.144 55.0092 281.411 57.8631 288.771 58.5188C292.288 58.8288 294.101 56.4407 293.397 52.9928L293.226 52.1235C293.946 47.7683 294.688 43.4197 295.526 38.4856C296.868 39.5087 297.635 40.0343 298.339 40.6385C301.146 43.0645 303.878 45.5886 306.744 47.9495C311.496 51.8575 314.995 51.1784 317.901 45.8084C319.597 42.6768 321.095 39.4362 322.765 36.2895C323.375 35.1379 324.226 34.1118 325.197 32.69C326.545 34.3786 327.594 35.7922 328.75 37.1157C331.083 39.8036 333.29 42.6364 335.882 45.0544C339.93 48.827 343.915 47.8318 346.034 42.6928C347.476 39.1915 348.724 35.6138 350.07 32.0706C350.32 31.4028 350.618 30.7497 351.049 29.7065C354.39 33.8579 357.126 37.9185 359.351 42.3766C360.313 44.3038 361.716 46.182 363.367 47.5321C364.347 48.3317 366.389 48.5896 367.636 48.1649C372.984 46.3284 374.553 42.3606 371.689 37.472C366.803 29.1434 361.723 20.929 356.531 12.7889C353.762 8.44106 350.346 8.39989 346.903 12.1844C343.001 16.4756 339.893 21.2049 338.272 26.8311C337.989 27.819 337.565 28.7606 337.045 30.1547L337.044 30.1567Z" fill="#CF3438"/>
</g>
</svg>
