<svg width="151" height="47" viewBox="0 0 151 47" fill="none" xmlns="http://www.w3.org/2000/svg">
<g clip-path="url(#clip0_15_174)">
<path fill-rule="evenodd" clip-rule="evenodd" d="M69.3896 4.3353L72.0229 4.28555L72.7553 2.01242C72.7653 1.9952 72.795 1.96268 72.8031 1.94976C72.8113 1.93732 72.838 1.91245 72.8548 1.89284L73.6594 4.28221L76.2635 4.30517L74.1865 5.90286L74.9447 8.31567L72.8141 6.88923L70.7529 8.38073L71.4609 5.93731L69.3896 4.33626V4.3353ZM78.1143 6.05402L78.1061 4.15018L78.132 1.98085C78.7471 1.34417 78.1693 0.677344 78.142 0.117672L67.5226 0.105713L67.5173 10.0875L78.1262 10.0904L78.1148 6.05402H78.1143Z" fill="#0055C6"/>
<path fill-rule="evenodd" clip-rule="evenodd" d="M78.131 2.08228C79.0131 2.28701 107.845 2.04975 110.211 2.04975L115.091 2.07893C116.666 1.81775 118.612 1.43028 120.171 1.1294C120.171 1.1294 116.248 0.499888 115.098 0.321463C115.098 0.321463 102.617 0.110031 99.6277 0.110031C92.4424 0.110031 85.3197 0.182262 78.1425 0.117206C78.1698 0.676878 78.131 2.0818 78.131 2.0818V2.08228Z" fill="#ED2D23"/>
<path fill-rule="evenodd" clip-rule="evenodd" d="M78.1143 6.05402C83.3915 6.19705 88.8585 6.06263 94.1573 6.0655C96.8131 6.06694 99.4689 6.0655 102.125 6.06598C104.692 6.06646 106.848 5.49913 109.356 5.16381C105.796 3.87656 98.1295 4.14635 94.2759 4.14635C88.8925 4.14635 83.4867 4.09756 78.1057 4.15066L78.1138 6.0545L78.1143 6.05402Z" fill="black"/>
<path fill-rule="evenodd" clip-rule="evenodd" d="M78.1219 10.0846C80.3329 10.1559 92.9049 10.077 92.9049 10.077C93.8052 9.92915 98.8786 9.09013 98.8786 9.09013L92.9355 8.13199C92.9355 8.13199 91.0441 8.14777 89.0437 8.14777C85.4909 8.14777 81.6675 8.0985 78.1224 8.15973L78.1219 10.0846Z" fill="#ED2D23"/>
<path fill-rule="evenodd" clip-rule="evenodd" d="M66.6903 32.7523C67.0988 32.9589 67.9914 34.5739 68.3396 35.0795C68.84 35.8066 69.7933 36.8814 69.9435 37.6076L78.7151 37.6219C78.3515 36.5351 74.453 31.6109 73.7364 30.106C76.2152 28.5906 77.9071 26.77 78.2066 23.6469C78.4984 20.6012 77.5111 17.5082 75.127 15.688C71.2777 12.7495 66.0952 13.3302 61.0978 13.3302C59.3605 13.3302 57.2471 13.2221 55.5557 13.3518L55.5322 37.61L63.6575 37.6243L63.7226 31.5067L65.9421 31.5081C66.242 31.9037 66.5501 32.3199 66.6907 32.7523H66.6903ZM63.7187 25.335C66.1421 25.3771 69.9641 25.9324 70.0148 22.5806C70.0674 19.0867 66.1579 19.6301 63.7197 19.6732L63.7187 25.335Z" fill="white"/>
<path fill-rule="evenodd" clip-rule="evenodd" d="M0.163439 22.66C0.258631 23.7148 -0.0857826 25.2245 0.0208899 26.582C0.268198 29.731 1.75539 33.0092 4.19977 34.9991C7.48797 37.6765 11.4564 38.4452 15.5831 38.0721C16.2241 38.0142 16.8804 37.7917 17.5023 37.8496C17.6448 37.7324 20.4068 36.9685 21.0124 36.7226C22.214 36.2352 23.0005 35.7186 24.1136 35.1173C24.105 31.4115 24.2547 27.4268 24.0251 23.7794L14.6125 23.7779L14.5987 29.7028L16.9947 29.7052L16.9804 30.9924C14.2897 31.7229 12.3949 31.9668 10.1093 30.1611C7.19091 27.8554 7.26506 20.0913 13.1689 19.4804C15.4061 19.2489 18.2456 20.1496 19.4171 22.0415C19.8763 21.8947 24.5235 17.7564 24.7359 17.4646C24.424 16.8294 22.833 15.5699 22.17 15.126C21.0316 14.3635 20.126 14.0004 18.8517 13.567C12.2418 11.3193 3.36983 13.7871 0.804431 20.7935C0.616438 21.3077 0.442318 22.3324 0.163439 22.6591V22.66Z" fill="white"/>
<path fill-rule="evenodd" clip-rule="evenodd" d="M127.364 37.709L127.324 31.4636L115.257 31.4373L115.192 28.2601L125.414 28.2615L125.449 22.3711L115.199 22.3682L115.202 19.5168L126.874 19.5187L126.869 13.3341L107.168 13.3307L107.142 37.6104C110.617 37.7956 125.971 37.3502 127.364 37.709Z" fill="white"/>
<path fill-rule="evenodd" clip-rule="evenodd" d="M25.0205 37.6066L33.23 37.6243L34.9138 33.3837L44.0862 33.3751L45.7791 37.6353L54.1378 37.6243C54.1225 37.4129 44.0843 14.0731 43.5777 13.3642L35.6572 13.3303C35.4505 13.5771 25.1765 36.8145 25.02 37.6076L25.0205 37.6066ZM37.2032 27.4761L41.8389 27.4814L39.5677 21.5144C39.218 21.8167 37.2855 27.1843 37.2032 27.4766V27.4761Z" fill="white"/>
<path fill-rule="evenodd" clip-rule="evenodd" d="M142.913 37.9199L143.551 37.8496C144.137 37.3421 146.715 37.4263 149.347 34.3634C150.927 32.5237 151.268 29.1278 150.186 26.9647C149.123 24.8389 146.843 23.7889 144.593 23.1575C142.901 22.6825 138.5 22.1826 137.462 20.9509C137.249 18.6313 140.665 18.97 142.186 19.1666C144.935 19.522 145.721 20.3395 147.354 20.7959C147.756 19.7091 149.669 15.5838 149.697 14.8629C146.302 13.2336 142.482 12.4123 138.614 12.8921C135.122 13.3255 131.716 14.4477 130.083 17.7177C128.386 21.1154 129.438 24.9686 132.759 26.7896C134.302 27.6363 136.068 28.0185 137.774 28.4294C139.47 28.8379 141.386 28.9829 142.677 30.1496L142.701 31.0604C141.641 31.875 141.443 31.8363 140.06 31.8932C138.956 31.9386 137.91 31.8372 136.827 31.6416C135.908 31.4751 135.004 31.1953 134.136 30.8805C133.277 30.5691 132.383 30.0243 131.617 29.7827L128.959 35.6368C130.359 36.6777 133.394 37.5129 135.075 37.7927C137.972 38.2754 140.025 38.173 142.913 37.9195L142.913 37.9199Z" fill="white"/>
<path fill-rule="evenodd" clip-rule="evenodd" d="M91.5282 38.0778C92.2859 37.984 93.135 38.1572 93.919 38.1558C94.6925 38.1543 95.7463 37.996 96.4543 38.0816C96.7456 37.8807 98.439 37.5951 98.9872 37.4014C99.8477 37.0972 100.491 36.8437 101.28 36.3629C102.584 35.5688 103.477 34.9087 104.4 33.7664L104.729 33.2957L99.6583 28.7289C98.6318 29.6535 98.2625 30.3031 96.9274 30.937C95.6224 31.5564 94.1788 31.7258 92.7595 31.3483C87.2551 29.8841 87.1996 21.1417 92.6562 19.6445C94.0941 19.2499 95.477 19.4264 96.8456 20.0095C98.3184 20.6371 98.5567 21.3072 99.6282 22.1932L104.733 17.7033C104.112 16.4127 101.68 14.6462 100.206 14.0363C94.1324 11.5235 85.9305 12.8509 82.4242 18.4544C78.2745 25.0862 80.4424 34.0429 88.2754 37.1436C88.8839 37.3842 91.3493 37.9506 91.5292 38.0768L91.5282 38.0778Z" fill="white"/>
<path fill-rule="evenodd" clip-rule="evenodd" d="M109.353 11.3747C115.317 11.3814 113.553 11.7464 115.608 10.0172C116.107 9.59623 116.447 9.14993 116.99 8.75768L119.959 11.359L124.726 11.3762C124.396 10.663 121.051 6.61801 120.322 5.81534L113.777 5.81007C113.329 6.16692 109.522 10.8868 109.353 11.3747Z" fill="white"/>
<path fill-rule="evenodd" clip-rule="evenodd" d="M2.21749 43.1598C3.15219 43.1627 3.48943 43.0148 4.12468 43.7027C4.32511 45.653 3.34353 45.7816 1.70996 45.7592L2.21749 43.1603V43.1598ZM0.152925 46.8421C2.10986 46.8402 4.85895 47.2459 5.44446 44.8115C6.14668 41.8941 3.15698 41.985 1.17038 42.1031C0.847971 42.6336 0.277297 45.9749 0.152447 46.8421H0.152925Z" fill="white"/>
<path fill-rule="evenodd" clip-rule="evenodd" d="M108.616 43.2187C109.712 42.9761 110.882 43.2646 110.525 44.6566C110.211 45.8802 109.178 45.7774 108.111 45.7573L108.616 43.2187H108.616ZM106.544 46.8111C108.416 46.9876 111.227 47.1215 111.838 44.8958C112.675 41.8434 109.446 42.0491 107.488 42.0931L106.544 46.8111Z" fill="white"/>
<path fill-rule="evenodd" clip-rule="evenodd" d="M61.3294 45.764L61.8273 43.167C62.984 43.1459 64.0981 43.123 63.7187 44.6968C63.4447 45.8333 62.2564 45.7673 61.3294 45.7635V45.764ZM59.7475 46.8407C61.692 46.8431 64.4635 47.2029 65.0543 44.8388C65.2978 43.8654 65.0261 42.7776 64.0574 42.3351C63.4136 42.0414 61.3767 41.9788 60.6893 42.15L59.7479 46.8407H59.7475Z" fill="white"/>
<path fill-rule="evenodd" clip-rule="evenodd" d="M74.3181 44.846C73.6699 46.4528 71.2891 45.9984 71.9445 44.1328C72.5376 42.4433 75.0916 42.9288 74.3181 44.846ZM72.794 42.0749C69.3915 42.7886 69.7785 47.674 73.5895 46.8513C76.7687 46.1648 76.5132 41.2947 72.794 42.0749Z" fill="white"/>
<path fill-rule="evenodd" clip-rule="evenodd" d="M128.59 43.2167C129.126 43.0832 129.622 43.0445 129.991 43.4803C130.293 44.6111 129.164 44.5929 128.337 44.5121L128.59 43.2172L128.59 43.2167ZM126.521 46.8106L127.879 46.8278L128.127 45.6022L128.762 45.586L129.491 46.8211L130.87 46.8302L130.093 45.3789C131.247 45.0684 131.841 43.5903 131.123 42.6948C130.464 41.8725 128.472 42.0711 127.466 42.0897L126.521 46.8101V46.8106Z" fill="white"/>
<path fill-rule="evenodd" clip-rule="evenodd" d="M30.9531 42.1716C30.4307 44.1247 29.552 47.1909 32.6727 46.9197C34.844 46.7307 35.1305 44.3505 35.4003 42.0926L34.0868 42.0836C33.9423 42.8724 33.783 43.6712 33.6247 44.4571C33.4132 45.5081 33.2181 45.908 32.0528 45.754C31.4137 44.9355 32.1207 43.1182 32.2901 42.107C31.8055 42.0687 31.3214 42.0329 30.9535 42.1711L30.9531 42.1716Z" fill="white"/>
<path fill-rule="evenodd" clip-rule="evenodd" d="M10.6647 46.835L14.4867 46.8417L14.6565 45.7994L12.2189 45.7965L12.3604 44.9493L14.4925 44.9331L14.6714 43.9304L12.6355 43.9281L12.7082 43.1507L15.1129 43.1173L15.3305 42.0917L11.6118 42.0831L10.6647 46.835Z" fill="white"/>
<path fill-rule="evenodd" clip-rule="evenodd" d="M97.0728 46.8364L100.884 46.8321L101.061 45.7965H98.6198L98.7537 44.9374L100.892 44.9226L101.046 43.93L98.99 43.9247L99.0991 43.2101C99.7243 43.0245 100.815 43.1321 101.506 43.1268L101.721 42.0898L98.0884 42.0869C97.7951 42.5896 97.1948 46.0252 97.0728 46.8369V46.8364Z" fill="white"/>
<path fill-rule="evenodd" clip-rule="evenodd" d="M117.069 46.8374L120.889 46.8369L121.064 45.8013L118.623 45.7965L118.768 44.9398L120.897 44.9297L121.073 43.9285L119.053 43.93L119.107 43.1368L121.506 43.1282L121.733 42.1074L118.011 42.0926L117.069 46.8374Z" fill="white"/>
<path fill-rule="evenodd" clip-rule="evenodd" d="M23.5491 44.2897C23.0052 44.5399 22.6077 44.5437 21.9806 44.5394L22.1868 43.1899C22.8263 43.1062 23.1923 43.0254 23.6056 43.5081L23.5496 44.2892L23.5491 44.2897ZM20.1174 46.8422L21.4788 46.8331L21.7079 45.6444C23.0445 45.4282 25.1157 45.7276 24.9961 43.5042C24.9024 41.7683 22.3212 41.9563 21.0622 42.1232L20.1174 46.8422Z" fill="white"/>
<path fill-rule="evenodd" clip-rule="evenodd" d="M139.395 43.5086L139.676 44.9202L138.49 44.9054L139.395 43.5086ZM135.948 46.7877L137.368 46.8522L137.885 45.9085L139.889 45.9223C139.996 46.3806 139.969 46.5021 140.181 46.8341L141.413 46.8427L140.284 42.0907L139.108 42.084C138.563 42.383 136.49 45.9926 135.948 46.7881V46.7877Z" fill="white"/>
<path fill-rule="evenodd" clip-rule="evenodd" d="M52.3914 43.5277L52.7075 44.9144L51.5131 44.9072C51.6399 44.6437 51.7719 44.4255 51.9082 44.1859L52.2225 43.6683C52.3459 43.5234 52.322 43.5765 52.3918 43.5272L52.3914 43.5277ZM48.9625 46.836H50.3832L50.9501 45.8898L52.886 45.9142L53.0988 46.8384L54.4301 46.8369L53.293 42.0831L52.0603 42.0859C51.7169 42.3954 49.1845 46.3098 48.9625 46.8364V46.836Z" fill="white"/>
<path fill-rule="evenodd" clip-rule="evenodd" d="M87.8148 46.8369L89.169 46.8422L89.5 45.2077L91.5412 45.201L91.7588 44.1797L89.7182 44.1682L89.8851 43.1421L92.2525 43.1283L92.4754 42.1099L88.7624 42.0816L87.8148 46.8369Z" fill="white"/>
<path fill-rule="evenodd" clip-rule="evenodd" d="M40.567 43.1546L41.9958 43.1589L41.2845 46.8384L42.6387 46.8317L43.3649 43.1598L44.8305 43.156L45.0219 42.1056L40.7727 42.084L40.567 43.1546Z" fill="white"/>
<path fill-rule="evenodd" clip-rule="evenodd" d="M146.707 46.8326L150.327 46.8432L150.535 45.7726L148.284 45.7664L148.998 42.0888L147.655 42.084L146.707 46.8326Z" fill="white"/>
<path fill-rule="evenodd" clip-rule="evenodd" d="M48.8209 2.27171L50.6243 6.56492L46.9324 6.53574L48.8209 2.27171ZM49.649 0.284637L47.8891 0.354477L43.3677 10.231L43.3534 8.76726L38.1365 8.76056L38.1317 0.350172L36.4818 0.362609L36.2025 0.377916C36.5 1.48769 36.2623 8.54626 36.2742 10.2965L45.3357 10.3315L46.2986 8.01529L51.1094 8.02055C51.6499 8.31426 52.0489 9.69765 52.256 10.3329L54.1967 10.33L49.6494 0.284637H49.649Z" fill="white"/>
<path fill-rule="evenodd" clip-rule="evenodd" d="M55.5083 10.3305L57.3576 10.3334L57.3523 3.70103C57.8781 3.92633 62.4707 10.1636 62.8821 10.3071L64.3846 10.32L64.3856 0.387961L62.5453 0.346344L62.5391 7.00788L57.0582 0.365L55.5121 0.346822L55.5083 10.3305Z" fill="white"/>
<path fill-rule="evenodd" clip-rule="evenodd" d="M21.0679 2.3229L22.8536 6.56397L19.1669 6.54818L21.0679 2.3229ZM19.5903 1.41211L15.6362 10.3205L17.5697 10.3319L18.5111 8.03682L23.5654 8.02103L24.4996 10.3071L26.4274 10.3367L22.2174 0.817523L21.9581 0.357826L20.0959 0.353043L19.5907 1.41211H19.5903Z" fill="white"/>
<path fill-rule="evenodd" clip-rule="evenodd" d="M27.8347 0.284139C27.6409 1.07055 27.7314 8.89926 27.7481 10.3305L34.8196 10.3319L34.8205 8.75958L29.6165 8.76054L29.5979 0.344412L27.8347 0.283661V0.284139Z" fill="white"/>
<path fill-rule="evenodd" clip-rule="evenodd" d="M1.85392 5.10019C3.64822 5.10019 5.70849 4.95573 5.05936 7.44364C4.59106 9.23842 2.60829 9.26521 1.05364 9.15136L1.85392 5.09972V5.10019ZM0.151947 9.91433C1.35979 9.71581 2.60685 10.0387 3.80799 9.66511C4.58197 9.38288 5.11581 9.08008 5.50375 8.3659C5.907 7.6235 6.10361 6.6424 5.80559 5.80863C5.23827 4.2205 2.61259 4.24825 1.23828 4.46207L0.151947 9.91481V9.91433Z" fill="white"/>
<path fill-rule="evenodd" clip-rule="evenodd" d="M6.46763 9.34318L6.48772 9.85359L7.22152 9.84832L7.58315 8.07029C7.77401 6.91937 8.161 6.44341 9.37793 6.42141L9.48125 5.70723C8.92732 5.7321 8.46093 5.78664 8.0505 6.16406L7.93569 5.94497C7.85198 5.78711 7.90078 5.84595 7.81706 5.74167L7.29662 5.75267C7.06031 6.53 6.82257 8.90167 6.46667 9.34223L6.46763 9.34318Z" fill="white"/>
<path fill-rule="evenodd" clip-rule="evenodd" d="M9.53244 9.91241L10.171 9.83779C10.4829 9.46706 10.5116 9.37139 10.2801 8.93609L9.59032 8.87199C9.31527 9.40727 9.40807 9.40966 9.53244 9.91241Z" fill="white"/>
<path fill-rule="evenodd" clip-rule="evenodd" d="M71.4523 5.94022L70.7443 8.38364L72.8055 6.89214L74.9361 8.31859L74.1779 5.90578L76.2549 4.30808L73.6508 4.28512L72.8462 1.89575C72.8294 1.91536 72.8027 1.94024 72.7945 1.95268C72.7859 1.96559 72.7563 1.9986 72.7467 2.01534L72.0143 4.28847L69.381 4.33822L71.4523 5.93926V5.94022Z" fill="#FCFFFB"/>
<path fill-rule="evenodd" clip-rule="evenodd" d="M103.26 4.06311L109.233 3.38481L103.245 2.0703H78.1425L78.119 4.06311H103.26Z" fill="white"/>
<path fill-rule="evenodd" clip-rule="evenodd" d="M92.9355 8.13151L98.9082 7.22504L92.9202 6.13918H78.1085L78.0851 8.13151H92.9355Z" fill="white"/>
</g>
<defs>
<clipPath id="clip0_15_174">
<rect width="150.815" height="46.8388" fill="white" transform="translate(0 0.105713)"/>
</clipPath>
</defs>
</svg>
