<svg width="159" height="49" viewBox="0 0 159 49" fill="none" xmlns="http://www.w3.org/2000/svg">
<path fill-rule="evenodd" clip-rule="evenodd" d="M130.772 41.1618C130.8 41.3987 130.8 41.641 130.772 41.8848V42.4586H130.651C130.639 42.5005 130.626 42.5372 130.613 42.5765C130.688 42.7457 130.75 42.9207 130.799 43.1003C130.901 43.4699 130.948 43.8512 130.948 44.2343C130.948 45.5692 130.334 46.779 129.233 47.539C128.4 48.1144 127.426 48.3504 126.423 48.3504C125.617 48.3504 124.812 48.2395 124.073 47.9035C123.429 48.2093 122.712 48.3614 121.965 48.3614C121.036 48.3614 120.154 48.1233 119.401 47.6471C118.589 48.1083 117.659 48.3062 116.701 48.3062H115.746C115.185 48.3062 114.66 48.1636 114.205 47.9125C113.566 48.2123 112.855 48.3614 112.116 48.3614C111.248 48.3614 110.422 48.154 109.704 47.7392C109.19 48.0971 108.563 48.3062 107.884 48.3062H107.597C106.501 48.3062 105.541 47.7619 104.971 46.9269C104.963 46.939 104.954 46.951 104.946 46.963C104.353 47.8105 103.387 48.3062 102.356 48.3062H102.036C101.577 48.3062 101.137 48.2088 100.737 48.0303C100.339 48.2087 99.8993 48.3062 99.4412 48.3062H99.1155C98.8518 48.3062 98.5924 48.2738 98.3424 48.2113C98.0925 48.2735 97.8323 48.3062 97.5664 48.3062H97.2297C96.8813 48.3062 96.541 48.2505 96.2188 48.1447C95.9021 48.2495 95.5627 48.3062 95.2092 48.3062H94.9221C94.5941 48.3062 94.2782 48.2574 93.9814 48.1666C93.6825 48.2582 93.3681 48.3062 93.0473 48.3062H92.7271C92.2683 48.3062 91.8281 48.2088 91.4285 48.0303C91.03 48.2087 90.5907 48.3062 90.1327 48.3062H89.8069C89.1224 48.3062 88.4666 48.0877 87.9295 47.6928C87.4033 48.0789 86.752 48.3062 86.0441 48.3062H85.7572C84.626 48.3062 83.6396 47.726 83.077 46.8447C82.1762 47.8588 80.9176 48.3614 79.5597 48.3614C78.6302 48.3614 77.7481 48.1233 76.9959 47.6471C76.1839 48.1083 75.2531 48.3062 74.2955 48.3062H73.3405C72.9469 48.3062 72.5707 48.2359 72.2238 48.107C71.8769 48.2359 71.5006 48.3062 71.1069 48.3062H70.8033C70.4282 48.3062 70.0626 48.2415 69.7202 48.1195C69.3835 48.2404 69.0197 48.3062 68.6393 48.3062H68.3578C68.0298 48.3062 67.7139 48.2574 67.417 48.1666C67.1181 48.2582 66.8037 48.3062 66.483 48.3062H66.1628C65.704 48.3062 65.2637 48.2088 64.8641 48.0303C64.4657 48.2087 64.0263 48.3062 63.5683 48.3062H63.2426C62.9224 48.3062 62.6088 48.2584 62.3104 48.1672C62.0148 48.2576 61.7001 48.3062 61.3732 48.3062H61.0807C60.699 48.3062 60.334 48.2402 59.9959 48.1188C59.658 48.2402 59.2928 48.3062 58.9112 48.3062H58.6242C58.278 48.3062 57.9454 48.2518 57.6343 48.1512C57.3233 48.2518 56.9906 48.3062 56.6445 48.3062H54.591C54.2628 48.3062 53.9471 48.2574 53.6502 48.1666C53.3513 48.2582 53.0368 48.3062 52.716 48.3062H52.3958C51.9372 48.3062 51.4969 48.2088 51.0973 48.0303C50.6987 48.2087 50.2595 48.3062 49.8014 48.3062H49.4756C49.0223 48.3062 48.5813 48.2103 48.1792 48.0308C47.5888 48.2286 46.961 48.3062 46.3256 48.3062H44.929C44.601 48.3062 44.2851 48.2574 43.9883 48.1666C43.6894 48.2582 43.375 48.3062 43.0542 48.3062H42.734C42.2752 48.3062 41.835 48.2088 41.4354 48.0303C41.0369 48.2087 40.5976 48.3062 40.1396 48.3062H39.8138C39.5502 48.3062 39.2906 48.2738 39.0407 48.2113C38.7909 48.2735 38.5306 48.3062 38.2645 48.3062H37.9278C37.5796 48.3062 37.2391 48.2505 36.9171 48.1447C36.6004 48.2495 36.261 48.3062 35.9075 48.3062H35.6205C35.0719 48.3062 34.5575 48.1698 34.1089 47.9287C33.6603 48.1698 33.1458 48.3062 32.5974 48.3062H32.3104C30.5454 48.3062 29.1327 46.8935 29.1327 45.1286V44.1144C28.4521 43.5333 28.0232 42.6676 28.0232 41.695V41.4356C28.0232 40.3882 28.5221 39.4648 29.297 38.8882L27.0447 38.888C26.989 38.8902 26.9331 38.8914 26.8768 38.8914H21.6481C19.401 38.8914 17.5747 37.0651 17.5747 34.818V33.6951C16.953 34.0689 16.2319 34.2736 15.4752 34.2736C14.7185 34.2736 13.9973 34.0689 13.3757 33.6951V34.818C13.3757 37.0651 11.5492 38.8914 9.30213 38.8914H4.07356C1.82632 38.8914 0 37.0651 0 34.818V12.7411C0 10.494 1.82632 8.66771 4.07356 8.66771H9.12514C10.5693 8.66771 11.8832 9.41362 12.6232 10.6537L15.4752 15.4329L18.3273 10.6537C19.0674 9.41362 20.3812 8.66771 21.8253 8.66771H26.8768C27.8725 8.66771 28.7854 9.02623 29.4937 9.62098C30.2094 9.0186 31.1296 8.66771 32.1169 8.66771H39.0953C40.4155 8.66771 41.6151 9.29479 42.3674 10.3116C42.6784 9.8944 43.067 9.53859 43.512 9.26576C43.0725 8.37434 42.8399 7.31794 42.8399 6.14084C42.8399 2.44646 45.1521 0 48.8797 0C50.0154 0 51.1283 0.235761 52.1143 0.81219C52.2673 0.899045 52.4116 0.996324 52.5461 1.10257C53.5362 0.354153 54.7447 0 56.0282 0C57.0374 0 58.0004 0.218997 58.8472 0.6765C59.388 0.303666 60.0381 0.101068 60.7176 0.101068H61.5345C62.1238 0.101068 62.6803 0.25041 63.1641 0.518824C63.6479 0.25041 64.2043 0.101068 64.7937 0.101068H65.6191C66.103 0.101068 66.5723 0.205152 66.9975 0.400777C67.4182 0.208067 67.8888 0.101068 68.3883 0.101068H71.7065C72.2499 0.101068 72.76 0.227259 73.2089 0.45267C73.6577 0.227259 74.1678 0.101068 74.7114 0.101068H76.5979C77.7036 0.101068 78.802 0.295455 79.7571 0.835222C80.3238 0.374512 81.0513 0.101068 81.8514 0.101068H82.5925C83.0974 0.101068 83.5844 0.207651 84.0249 0.407698C84.4493 0.210615 84.9254 0.101068 85.4307 0.101068H86.1634C87.0077 0.101068 87.7714 0.406922 88.3496 0.91632C89.2873 0.295286 90.3967 0 91.5685 0C93.2064 0 94.7222 0.576769 95.818 1.81371C96.8874 3.02077 97.2799 4.5683 97.2799 6.14927C97.2799 7.01568 97.1621 7.87216 96.879 8.66771H97.4789V3.38692C97.4789 1.54943 98.9272 0.101068 100.765 0.101068H102.39C103.851 0.101068 105.279 0.447083 106.421 1.36632C107.465 0.437122 108.799 0 110.224 0C111.862 0 113.378 0.576769 114.474 1.81371C115.543 3.02077 115.936 4.5683 115.936 6.14927C115.936 7.01568 115.818 7.87216 115.535 8.66771H118.248C118.827 8.66771 119.377 8.78872 119.876 9.0068C120.127 7.78832 120.816 6.66826 121.888 5.9601C123.521 4.88023 125.529 4.89908 127.26 5.71161C127.816 5.36983 128.466 5.17695 129.153 5.17695H129.968C131.487 5.17695 132.836 6.12035 133.357 7.54765C133.693 8.46683 133.742 9.45434 133.516 10.3848C133.748 10.7135 133.934 11.0808 134.064 11.4793L134.129 11.6795C140.296 5.85952 152.831 6.99782 156.508 15.0945C158.952 20.478 158.987 26.7028 156.618 32.1184C153.795 38.5701 145.465 40.7358 138.977 38.5691C138.482 38.7789 137.942 38.8903 137.383 38.8903L132.042 38.8898C131.601 38.8898 131.173 38.8195 130.772 38.6885V41.1618ZM64.8069 11.9923C64.9345 12.1169 65.0592 12.2447 65.1807 12.3758L65.3986 11.7064C65.2122 11.8205 65.0143 11.9164 64.8069 11.9923Z" fill="white"/>
<path fill-rule="evenodd" clip-rule="evenodd" d="M4.07357 11.7514H9.12515C9.48368 11.7514 9.79135 11.9262 9.97505 12.2339L15.4752 21.4504L20.9753 12.2339C21.159 11.9262 21.4668 11.7514 21.8253 11.7514H26.8768C27.4219 11.7514 27.8666 12.196 27.8666 12.7411V34.8179C27.8666 35.363 27.4219 35.8076 26.8768 35.8076H21.6481C21.103 35.8076 20.6585 35.363 20.6585 34.8179V23.6638L16.3182 30.7187C16.1328 31.02 15.829 31.1898 15.4752 31.1898C15.1214 31.1898 14.8175 31.02 14.6323 30.7187L10.292 23.6638V34.8179C10.292 35.363 9.84728 35.8076 9.30214 35.8076H4.07357C3.52833 35.8076 3.08388 35.363 3.08388 34.8179V12.7411C3.08388 12.196 3.52833 11.7514 4.07357 11.7514Z" fill="#B3101A"/>
<path fill-rule="evenodd" clip-rule="evenodd" d="M32.1169 11.7514H39.0953C39.5312 11.7514 39.9014 12.0201 40.0365 12.4345L47.2288 34.5102C47.3302 34.8213 47.2809 35.1335 47.0888 35.3983C46.8966 35.6631 46.615 35.8065 46.2877 35.8065L40.9464 35.806C40.4947 35.8059 40.1126 35.5149 39.9925 35.0796L35.6107 19.202L31.2295 35.0782C31.1092 35.5137 30.727 35.8047 30.2753 35.8047L24.933 35.8039C24.6058 35.8039 24.3244 35.6604 24.1323 35.3956C23.9401 35.131 23.8908 34.8189 23.9921 34.5079L31.1759 12.4348C31.3108 12.0203 31.6811 11.7514 32.1169 11.7514Z" fill="#D40018"/>
<path fill-rule="evenodd" clip-rule="evenodd" d="M63.8113 35.8082L58.5099 35.8077C58.1477 35.8076 57.8366 35.6287 57.6545 35.3156L53.8275 28.7354H51.9342V34.8172C51.9342 35.3623 51.4896 35.8069 50.9444 35.8069L45.6356 35.8064C45.0905 35.8063 44.6461 35.3618 44.6461 34.8167V12.7412C44.6461 12.1961 45.0906 11.7515 45.6358 11.7515H56.0739C66.371 11.7515 67.7433 24.0765 60.6922 27.8151V27.8158L64.656 34.3027C64.8477 34.6165 64.8545 34.9822 64.6746 35.3029C64.4946 35.6236 64.179 35.8083 63.8113 35.8082ZM51.9095 17.5227H55.1678C58.5194 17.5227 58.456 22.996 55.0327 22.996H51.9095V17.5227Z" fill="#00558A"/>
<path fill-rule="evenodd" clip-rule="evenodd" d="M69.3455 11.7514H76.3238C76.7597 11.7514 77.1299 12.0201 77.2649 12.4345L84.4574 34.5102C84.5587 34.8213 84.5095 35.1335 84.3173 35.3983C84.125 35.6631 83.8434 35.8065 83.5162 35.8065C76.3974 35.8057 69.2793 35.8048 62.1616 35.8039C61.8344 35.8039 61.5529 35.6604 61.3607 35.3956C61.1686 35.131 61.1193 34.8189 61.2206 34.5079L68.4045 12.4348C68.5394 12.0203 68.9096 11.7514 69.3455 11.7514Z" fill="#00366B"/>
<path fill-rule="evenodd" clip-rule="evenodd" d="M73.1718 19.062L74.5086 23.2033L78.8604 23.195C79.0146 23.1947 79.146 23.2899 79.1936 23.4367C79.2412 23.5834 79.191 23.7375 79.066 23.828L75.5405 26.379L76.8932 30.5153C76.9411 30.662 76.891 30.8162 76.7664 30.9068C76.6415 30.9976 76.4794 30.9974 76.3547 30.9064L72.839 28.3416L69.3233 30.9064C69.1987 30.9973 69.0365 30.9975 68.9116 30.9068C68.7869 30.8162 68.7369 30.662 68.7849 30.5153L70.1376 26.379L66.612 23.828C66.4869 23.7375 66.4368 23.5834 66.4844 23.4367C66.5321 23.2899 66.6632 23.1947 66.8177 23.195L71.1695 23.2033L72.5063 19.062C72.5538 18.9151 72.6847 18.8197 72.839 18.8197C72.9933 18.8197 73.1243 18.9151 73.1718 19.062Z" fill="white"/>
<path fill-rule="evenodd" clip-rule="evenodd" d="M81.3625 11.7514H86.6951C87.0617 11.7514 87.3764 11.9349 87.5567 12.2541L93.7757 23.2569C93.7757 23.2569 93.7937 16.64 93.7912 12.7416C93.7909 12.1963 94.2356 11.7514 94.7808 11.7514H99.9032C100.448 11.7514 100.893 12.196 100.893 12.7411V34.816C100.893 35.3611 100.448 35.8057 99.9032 35.8057H94.6011C94.2345 35.8057 93.9199 35.6221 93.7395 35.303L87.5627 24.3749C87.5627 24.3749 87.5449 30.9082 87.5472 34.8155C87.5475 35.3608 87.1028 35.8057 86.5576 35.8057H81.3625C80.8173 35.8057 80.3728 35.3611 80.3728 34.816V12.7411C80.3728 12.196 80.8173 11.7514 81.3625 11.7514Z" fill="#008E30"/>
<path fill-rule="evenodd" clip-rule="evenodd" d="M99.869 11.7514H105.48C106.025 11.7514 106.47 12.196 106.47 12.7411V20.4921H111.647V12.7411C111.647 12.196 112.092 11.7514 112.637 11.7514H118.248C118.793 11.7514 119.238 12.196 119.238 12.7411V34.816C119.238 35.3611 118.793 35.8057 118.248 35.8057H112.637C112.092 35.8057 111.647 35.3611 111.647 34.816V26.9423H106.47V34.816C106.47 35.3611 106.025 35.8057 105.48 35.8057H99.869C99.324 35.8057 98.8793 35.3611 98.8793 34.816V12.7411C98.8793 12.196 99.324 11.7514 99.869 11.7514Z" fill="#2EA729"/>
<path fill-rule="evenodd" clip-rule="evenodd" d="M123.213 11.7514H130.191C130.627 11.7514 130.997 12.0201 131.132 12.4345L138.324 34.5102C138.426 34.8213 138.376 35.1335 138.184 35.3983C137.992 35.6631 137.71 35.8065 137.383 35.8065L132.042 35.806C131.59 35.8059 131.208 35.5149 131.088 35.0796L126.706 19.202L122.325 35.0782C122.205 35.5137 121.822 35.8047 121.371 35.8047L116.029 35.8039C115.701 35.8039 115.42 35.6604 115.228 35.3956C115.036 35.131 114.986 34.8189 115.088 34.5079L122.271 12.4348C122.406 12.0203 122.777 11.7514 123.213 11.7514Z" fill="#FDBD00"/>
<path fill-rule="evenodd" clip-rule="evenodd" d="M123.461 11.041L124.173 11.0259C124.424 11.0206 124.631 10.8446 124.677 10.598C124.782 10.0383 125.341 9.82311 126.236 10.2587C126.767 10.5168 127.437 10.9405 128.601 11.039C129.287 11.0968 129.948 10.7614 130.306 10.1729C130.596 9.69522 130.648 9.11757 130.46 8.60509C130.384 8.39428 130.192 8.26063 129.968 8.26063H129.153C128.919 8.26063 128.721 8.40716 128.652 8.6307C128.499 9.12734 128.116 9.29561 127.501 9.13555C127.501 9.13555 126.977 9.01733 126.035 8.5444C125.247 8.14817 124.325 8.04589 123.588 8.53259C122.929 8.96816 122.696 9.93005 122.954 10.6861C123.029 10.9058 123.229 11.0458 123.461 11.041Z" fill="#00A1B8"/>
<path fill-rule="evenodd" clip-rule="evenodd" d="M153.7 16.3694C155.783 20.9562 155.811 26.2672 153.792 30.8823C150.656 38.0515 137.58 38.1597 134.396 30.8823C132.377 26.2672 132.405 20.9562 134.488 16.3694C137.671 9.3592 150.517 9.3592 153.7 16.3694ZM147.175 20.132C147.843 22.3664 147.852 24.9535 147.204 27.2016C146.198 30.694 142.005 30.7467 140.983 27.2016C140.336 24.9535 140.345 22.3664 141.013 20.132C142.034 16.7172 146.154 16.7172 147.175 20.132Z" fill="#F38B00"/>
<path fill-rule="evenodd" clip-rule="evenodd" d="M27.8666 34.8179V22.6031L23.9921 34.5079C23.8908 34.819 23.9401 35.131 24.1323 35.3957C24.3244 35.6604 24.6058 35.8039 24.933 35.804L26.9594 35.8042C27.4661 35.762 27.8666 35.3352 27.8666 34.8179Z" fill="#7B281F"/>
<path fill-rule="evenodd" clip-rule="evenodd" d="M44.6461 26.5829V34.8166C44.6461 35.3616 45.0905 35.8062 45.6356 35.8062L46.2877 35.8063H46.3072C46.6261 35.8008 46.9004 35.6578 47.0888 35.3983C47.2809 35.1335 47.3302 34.8213 47.2288 34.5102L44.6461 26.5829Z" fill="#1E1C1B"/>
<path fill-rule="evenodd" clip-rule="evenodd" d="M62.458 30.7055L61.2206 34.5079C61.1193 34.8189 61.1686 35.131 61.3607 35.3957C61.5529 35.6604 61.8344 35.8039 62.1616 35.8039C62.7426 35.804 63.3236 35.804 63.9048 35.8042C64.2321 35.7755 64.5101 35.5959 64.6746 35.3027C64.8545 34.982 64.8477 34.6162 64.656 34.3025L62.458 30.7055Z" fill="#082957"/>
<path fill-rule="evenodd" clip-rule="evenodd" d="M80.3728 21.9733V34.816C80.3728 35.3611 80.8173 35.8057 81.3625 35.8057H83.559C83.868 35.7938 84.1334 35.6515 84.3173 35.3983C84.5095 35.1335 84.5587 34.8213 84.4574 34.5102L80.3728 21.9733Z" fill="#0D301F"/>
<path fill-rule="evenodd" clip-rule="evenodd" d="M98.8793 12.7411V34.816C98.8793 35.3611 99.324 35.8057 99.869 35.8057H99.9032C100.448 35.8057 100.893 35.3611 100.893 34.816V12.7411C100.893 12.196 100.448 11.7514 99.9032 11.7514H99.869C99.324 11.7514 98.8793 12.196 98.8793 12.7411Z" fill="#008A30"/>
<path fill-rule="evenodd" clip-rule="evenodd" d="M119.238 21.7557L115.088 34.5079C114.986 34.8189 115.036 35.131 115.228 35.3957C115.42 35.6604 115.701 35.8039 116.029 35.8039L118.302 35.8042C118.822 35.7758 119.238 35.3428 119.238 34.8159V21.7557Z" fill="#468B28"/>
<path fill-rule="evenodd" clip-rule="evenodd" d="M133.419 19.4555C132.49 23.2371 132.816 27.2726 134.396 30.8823C135.197 32.7139 136.625 34.0776 138.363 34.9787C138.388 34.8265 138.376 34.6682 138.324 34.5102L133.419 19.4555Z" fill="#ED6C07"/>
<path fill-rule="evenodd" clip-rule="evenodd" d="M48.9217 5.58494C48.7813 5.58494 48.7113 5.65511 48.7113 5.79551V6.30921C48.7113 6.43839 48.7813 6.50291 48.9217 6.50291H49.8397V7.99357C49.5927 8.10586 49.2922 8.16201 48.9386 8.16201C48.3154 8.16201 47.8564 8.00341 47.5617 7.68619C47.2669 7.36896 47.1194 6.85381 47.1194 6.14077C47.1194 5.43337 47.2696 4.92105 47.5701 4.60383C47.8704 4.28663 48.3576 4.12801 49.0312 4.12801C49.4298 4.12801 49.8229 4.20942 50.2103 4.3722C50.3506 4.434 50.446 4.40031 50.4967 4.27116L50.7072 3.749C50.7521 3.64235 50.7099 3.55532 50.5808 3.48793C50.1317 3.21842 49.5646 3.08368 48.8797 3.08368C46.909 3.08368 45.9237 4.10269 45.9237 6.14077C45.9237 8.18448 46.8836 9.20629 48.8038 9.20629C49.6124 9.20629 50.2524 9.06596 50.724 8.78523C50.8476 8.70661 50.9093 8.60834 50.9093 8.49046V5.79551C50.9093 5.65511 50.839 5.58494 50.6987 5.58494H48.9217ZM56.0282 3.08368C55.1917 3.08368 54.5446 3.34196 54.0869 3.8585C53.6294 4.37499 53.4006 5.13862 53.4006 6.1492C53.4006 7.15422 53.628 7.91497 54.0827 8.43151C54.5376 8.94801 55.1832 9.20629 56.0197 9.20629C56.862 9.20629 57.5118 8.94942 57.9694 8.43572C58.4269 7.922 58.6558 7.15981 58.6558 6.1492C58.6558 5.13862 58.4269 4.37499 57.9694 3.8585C57.5118 3.34196 56.8648 3.08368 56.0282 3.08368ZM56.0282 8.17882C55.0738 8.17882 54.5964 7.50232 54.5964 6.1492C54.5964 4.79049 55.0738 4.11115 56.0282 4.11115C56.9771 4.11115 57.4515 4.79049 57.4515 6.1492C57.4515 7.50232 56.9771 8.17882 56.0282 8.17882ZM63.6399 9.11368C63.7746 9.11368 63.8644 9.04628 63.9094 8.91154L65.7705 3.42056C65.793 3.3476 65.7902 3.29004 65.7623 3.24791C65.7342 3.20581 65.6864 3.18475 65.6191 3.18475H64.7937C64.6645 3.18475 64.5832 3.24653 64.5494 3.37005L63.5389 6.51134L63.1768 7.90093H63.1599L62.7893 6.51134L61.7788 3.37005C61.745 3.24653 61.6637 3.18475 61.5345 3.18475H60.7176C60.6446 3.18475 60.594 3.20581 60.5659 3.24791C60.5378 3.29004 60.5351 3.3476 60.5575 3.42056L62.4272 8.91154C62.472 9.04628 62.5592 9.11368 62.6883 9.11368H63.6399ZM71.5968 6.57871C71.7316 6.57871 71.7991 6.50855 71.7991 6.36815V5.81232C71.7991 5.67197 71.7316 5.60181 71.5968 5.60181H69.3483V4.19538H71.7064C71.8467 4.19538 71.917 4.12516 71.917 3.98481V3.38686C71.917 3.25212 71.8467 3.18475 71.7064 3.18475H68.3883C68.2535 3.18475 68.1861 3.25212 68.1861 3.38686V8.90311C68.1861 9.04349 68.2563 9.11368 68.3967 9.11368H71.74C71.8804 9.11368 71.9507 9.04349 71.9507 8.90311V8.3052C71.9507 8.17044 71.8804 8.10307 71.74 8.10307H69.3483V6.57871H71.5968ZM75.6714 6.15763V4.19538H76.581C77.047 4.19538 77.3796 4.27116 77.5789 4.42278C77.7783 4.57434 77.8779 4.82698 77.8779 5.18074C77.8779 5.51755 77.7783 5.76461 77.5789 5.92182C77.3796 6.07904 77.0442 6.15763 76.5726 6.15763H75.6714ZM74.7113 3.18475C74.5709 3.18475 74.5008 3.25212 74.5008 3.38686V8.90311C74.5008 9.04349 74.5709 9.11368 74.7113 9.11368H75.4609C75.6012 9.11368 75.6714 9.04349 75.6714 8.90311V7.13454H76.4547L77.819 8.94521C77.9032 9.05753 78.0015 9.11368 78.1137 9.11368H78.9138C78.998 9.11368 79.0527 9.08562 79.078 9.02947C79.1033 8.97332 79.0907 8.91433 79.0401 8.8526L77.6085 6.97453C78.5741 6.76683 79.057 6.16888 79.057 5.18074C79.057 4.48451 78.8548 3.97779 78.4506 3.66057C78.0463 3.34335 77.4288 3.18475 76.5978 3.18475H74.7113ZM86.3655 3.37843C86.3655 3.24932 86.2981 3.18475 86.1634 3.18475H85.4307C85.2959 3.18475 85.2286 3.25212 85.2286 3.38686V7.14297L82.862 3.31949C82.8115 3.22964 82.7216 3.18475 82.5925 3.18475H81.8514C81.711 3.18475 81.6409 3.25212 81.6409 3.38686V8.90311C81.6409 9.04349 81.711 9.11368 81.8514 9.11368H82.5757C82.7104 9.11368 82.7778 9.04349 82.7778 8.90311V5.15543L85.1443 8.97048C85.2005 9.06596 85.2875 9.11368 85.4053 9.11368H86.1634C86.2981 9.11368 86.3655 9.04349 86.3655 8.90311V3.37843ZM91.5685 3.08368C90.732 3.08368 90.0849 3.34196 89.6274 3.8585C89.1697 4.37499 88.941 5.13862 88.941 6.1492C88.941 7.15422 89.1683 7.91497 89.6232 8.43151C90.0779 8.94801 90.7235 9.20629 91.5601 9.20629C92.4023 9.20629 93.0522 8.94942 93.5097 8.43572C93.9674 7.922 94.1962 7.15981 94.1962 6.1492C94.1962 5.13862 93.9674 4.37499 93.5097 3.8585C93.0522 3.34196 92.4051 3.08368 91.5685 3.08368ZM91.5685 8.17882C90.6141 8.17882 90.1369 7.50232 90.1369 6.1492C90.1369 4.79049 90.6141 4.11115 91.5685 4.11115C92.5174 4.11115 92.9918 4.79049 92.9918 6.1492C92.9918 7.50232 92.5174 8.17882 91.5685 8.17882Z" fill="#131610"/>
<path fill-rule="evenodd" clip-rule="evenodd" d="M102.399 9.11368C103.381 9.11368 104.115 8.88064 104.601 8.41465C105.087 7.94865 105.329 7.17388 105.329 6.09026C105.329 5.0572 105.085 4.31467 104.597 3.8627C104.108 3.41072 103.373 3.18475 102.39 3.18475H100.765C100.63 3.18475 100.563 3.25212 100.563 3.38686V8.90311C100.563 9.04349 100.633 9.11368 100.773 9.11368H102.399ZM102.348 4.22903C102.96 4.22903 103.411 4.36377 103.7 4.63327C103.989 4.90278 104.133 5.38844 104.133 6.09026C104.133 6.84259 103.99 7.36053 103.704 7.64406C103.418 7.92758 102.968 8.0694 102.356 8.0694H101.742V4.22903H102.348ZM110.224 3.08368C109.388 3.08368 108.741 3.34196 108.283 3.8585C107.826 4.37499 107.597 5.13862 107.597 6.1492C107.597 7.15422 107.824 7.91497 108.279 8.43151C108.734 8.94801 109.379 9.20629 110.216 9.20629C111.058 9.20629 111.708 8.94942 112.166 8.43572C112.623 7.922 112.852 7.15981 112.852 6.1492C112.852 5.13862 112.623 4.37499 112.166 3.8585C111.708 3.34196 111.061 3.08368 110.224 3.08368ZM110.224 8.17882C109.27 8.17882 108.793 7.50232 108.793 6.1492C108.793 4.79049 109.27 4.11115 110.224 4.11115C111.173 4.11115 111.648 4.79049 111.648 6.1492C111.648 7.50232 111.173 8.17882 110.224 8.17882Z" fill="#131610"/>
<path fill-rule="evenodd" clip-rule="evenodd" d="M31.1069 41.695C31.1069 41.7575 31.1382 41.7888 31.2007 41.7888H32.2165V45.1286C32.2165 45.1911 32.2478 45.2224 32.3104 45.2224H32.5974C32.6599 45.2224 32.6912 45.1911 32.6912 45.1286V41.7888H33.707C33.7696 41.7888 33.8008 41.7575 33.8008 41.695V41.4355C33.8008 41.3767 33.7696 41.3472 33.707 41.3472H31.1953C31.1363 41.3472 31.1069 41.3767 31.1069 41.4355V41.695ZM36.0012 43.3952V41.7833H36.7356C37.1255 41.7833 37.4063 41.8468 37.5773 41.9737C37.7486 42.1008 37.8341 42.3077 37.8341 42.5948C37.8341 42.8745 37.7504 43.0778 37.5829 43.2048C37.4154 43.3318 37.1294 43.3952 36.7244 43.3952H36.0012ZM35.6205 41.3472C35.5579 41.3472 35.5266 41.3767 35.5266 41.4355V45.1286C35.5266 45.1911 35.5579 45.2224 35.6205 45.2224H35.9075C35.97 45.2224 36.0012 45.1911 36.0012 45.1286V43.8313H36.6748L37.7899 45.1507C37.8303 45.1985 37.8764 45.2224 37.9278 45.2224H38.2645C38.305 45.2224 38.3299 45.2096 38.3391 45.1838C38.3483 45.158 38.3419 45.1305 38.3198 45.101L37.1937 43.7816C37.9408 43.6933 38.3143 43.2977 38.3143 42.5948C38.3143 42.1716 38.1874 41.8578 37.9334 41.6536C37.6795 41.4493 37.2839 41.3472 36.7465 41.3472H35.6205ZM40.7357 43.7872L41.4313 41.8219H41.4423L42.1323 43.7872H40.7357ZM41.2491 41.3472C41.1903 41.3472 41.1498 41.3785 41.1277 41.4411L39.7421 45.1286C39.7347 45.1544 39.7375 45.1764 39.7504 45.1949C39.7632 45.2133 39.7843 45.2224 39.8138 45.2224H40.1396C40.1836 45.2224 40.2167 45.1949 40.2389 45.1396L40.5866 44.2178H42.2814L42.6291 45.1396C42.6513 45.1949 42.6862 45.2224 42.734 45.2224H43.0542C43.0837 45.2224 43.1048 45.2133 43.1176 45.1949C43.1306 45.1764 43.1334 45.1544 43.126 45.1286L41.7403 41.4411C41.7182 41.3785 41.6777 41.3472 41.6189 41.3472H41.2491ZM45.3044 43.0088V41.7778H46.2925C46.6422 41.7778 46.8906 41.8238 47.0378 41.9158C47.1849 42.0078 47.2587 42.1624 47.2587 42.3795C47.2587 42.6077 47.1887 42.7696 47.0487 42.8653C46.909 42.9609 46.6661 43.0088 46.3202 43.0088H45.3044ZM46.3256 45.2224C46.8556 45.2224 47.2447 45.136 47.4932 44.963C47.7415 44.79 47.8657 44.5103 47.8657 44.1239C47.8657 43.5976 47.6321 43.283 47.1648 43.1799C47.5402 43.088 47.7278 42.8101 47.7278 42.3464C47.7278 42.0115 47.6119 41.7612 47.3801 41.5956C47.1482 41.43 46.7893 41.3472 46.3036 41.3472H44.929C44.8664 41.3472 44.8351 41.3767 44.8351 41.4355V45.1286C44.8351 45.1911 44.8664 45.2224 44.929 45.2224H46.3256ZM45.3044 44.7863V43.4283H46.3421C46.7397 43.4283 47.0148 43.479 47.1675 43.5801C47.3203 43.6814 47.3966 43.8534 47.3966 44.0963C47.3966 44.3576 47.3157 44.5379 47.1537 44.6373C46.9917 44.7367 46.7046 44.7863 46.2925 44.7863H45.3044ZM50.3975 43.7872L51.0931 41.8219H51.1041L51.7942 43.7872H50.3975ZM50.9109 41.3472C50.8521 41.3472 50.8116 41.3785 50.7895 41.4411L49.404 45.1286C49.3966 45.1544 49.3993 45.1764 49.4122 45.1949C49.4251 45.2133 49.4463 45.2224 49.4756 45.2224H49.8014C49.8456 45.2224 49.8787 45.1949 49.9007 45.1396L50.2486 44.2178H51.9432L52.291 45.1396C52.3131 45.1949 52.3481 45.2224 52.3958 45.2224H52.716C52.7455 45.2224 52.7666 45.2133 52.7796 45.1949C52.7925 45.1764 52.7951 45.1544 52.7878 45.1286L51.4023 41.4411C51.3802 41.3785 51.3397 41.3472 51.2807 41.3472H50.9109ZM54.9718 41.4355C54.9718 41.3767 54.9406 41.3472 54.8779 41.3472H54.591C54.5284 41.3472 54.4971 41.3767 54.4971 41.4355V45.1286C54.4971 45.1911 54.5284 45.2224 54.591 45.2224H56.6445C56.707 45.2224 56.7383 45.1911 56.7383 45.1286V44.8636C56.7383 44.8084 56.707 44.7808 56.6445 44.7808H54.9718V41.4355ZM60.9868 45.1286C60.9868 45.1911 61.0181 45.2224 61.0807 45.2224H61.3732C61.4322 45.2224 61.4615 45.1911 61.4615 45.1286V41.4355C61.4615 41.3767 61.4322 41.3472 61.3732 41.3472H61.0807C61.0181 41.3472 60.9868 41.3767 60.9868 41.4355V43.0198H59.005V41.4355C59.005 41.3767 58.9737 41.3472 58.9112 41.3472H58.6242C58.5616 41.3472 58.5303 41.3767 58.5303 41.4355V45.1286C58.5303 45.1911 58.5616 45.2224 58.6242 45.2224H58.9112C58.9737 45.2224 59.005 45.1911 59.005 45.1286V43.4615H60.9868V45.1286ZM64.1645 43.7872L64.8601 41.8219H64.8711L65.5611 43.7872H64.1645ZM64.6779 41.3472C64.619 41.3472 64.5785 41.3785 64.5564 41.4411L63.1708 45.1286C63.1634 45.1544 63.1662 45.1764 63.1792 45.1949C63.192 45.2133 63.2131 45.2224 63.2426 45.2224H63.5683C63.6124 45.2224 63.6456 45.1949 63.6677 45.1396L64.0154 44.2178H65.71L66.058 45.1396C66.08 45.1949 66.1149 45.2224 66.1628 45.2224H66.483C66.5124 45.2224 66.5336 45.2133 66.5464 45.1949C66.5593 45.1764 66.5621 45.1544 66.5548 45.1286L65.1692 41.4411C65.147 41.3785 65.1065 41.3472 65.0477 41.3472H64.6779ZM71.2007 41.43C71.2007 41.3748 71.1694 41.3472 71.1069 41.3472H70.8254C70.7664 41.3472 70.7371 41.3767 70.7371 41.4355V44.4331L68.7884 41.4135C68.7589 41.3693 68.7148 41.3472 68.6559 41.3472H68.3578C68.2952 41.3472 68.2639 41.3767 68.2639 41.4355V45.1286C68.2639 45.1911 68.2952 45.2224 68.3578 45.2224H68.6393C68.6983 45.2224 68.7276 45.1911 68.7276 45.1286V42.1366L70.6763 45.1507C70.7094 45.1985 70.7517 45.2224 70.8033 45.2224H71.1069C71.1694 45.2224 71.2007 45.1911 71.2007 45.1286V41.43ZM74.2955 45.2224C74.9358 45.2224 75.417 45.0716 75.739 44.7698C76.061 44.468 76.2221 43.951 76.2221 43.2186C76.2221 42.5451 76.0592 42.0649 75.7335 41.7778C75.4079 41.4908 74.9248 41.3472 74.2844 41.3472H73.335C73.2761 41.3472 73.2466 41.3767 73.2466 41.4355V45.1286C73.2466 45.1911 73.278 45.2224 73.3405 45.2224H74.2955ZM74.2789 41.7888C74.7684 41.7888 75.1337 41.8938 75.3748 42.1035C75.6158 42.3133 75.7363 42.685 75.7363 43.2186C75.7363 43.5277 75.705 43.7854 75.6424 43.9915C75.5799 44.1975 75.4833 44.3576 75.3526 44.4717C75.222 44.5858 75.0719 44.6658 74.9027 44.7118C74.7334 44.7578 74.5292 44.7808 74.29 44.7808H73.7214V41.7888H74.2789ZM79.5653 41.2865C79.028 41.2865 78.6158 41.4595 78.3288 41.8054C78.0417 42.1513 77.8981 42.6445 77.8981 43.2848C77.8981 43.9252 78.0417 44.4174 78.3288 44.7615C78.6158 45.1056 79.0261 45.2777 79.5597 45.2777C80.1008 45.2777 80.5147 45.1056 80.8018 44.7615C81.0889 44.4174 81.2324 43.9252 81.2324 43.2848C81.2324 42.6445 81.0889 42.1513 80.8018 41.8054C80.5147 41.4595 80.1026 41.2865 79.5653 41.2865ZM79.5653 44.847C79.1715 44.847 78.8762 44.7137 78.6793 44.4468C78.4824 44.18 78.384 43.7927 78.384 43.2848C78.384 42.777 78.4824 42.3887 78.6793 42.1201C78.8762 41.8514 79.1715 41.7171 79.5653 41.7171C79.959 41.7171 80.2543 41.8514 80.4513 42.1201C80.6481 42.3887 80.7466 42.777 80.7466 43.2848C80.7466 43.7927 80.6481 44.18 80.4513 44.4468C80.2543 44.7137 79.959 44.847 79.5653 44.847Z" fill="#131610"/>
<path fill-rule="evenodd" clip-rule="evenodd" d="M86.1379 43.5994V41.7833H86.8225C87.2236 41.7833 87.5125 41.8523 87.6891 41.9903C87.8658 42.1283 87.9542 42.3629 87.9542 42.6942C87.9542 43.0217 87.8658 43.2545 87.6891 43.3925C87.5125 43.5305 87.2236 43.5994 86.8225 43.5994H86.1379ZM86.0441 45.2224C86.1066 45.2224 86.1379 45.1911 86.1379 45.1286V44.0356H86.8225C87.3819 44.0356 87.7914 43.9307 88.0507 43.7209C88.3102 43.5111 88.4399 43.1689 88.4399 42.6942C88.4399 42.2194 88.3102 41.8762 88.0507 41.6646C87.7914 41.4531 87.3819 41.3472 86.8225 41.3472H85.7515C85.6927 41.3472 85.6632 41.3785 85.6632 41.4411V45.1286C85.6632 45.1911 85.6945 45.2224 85.7571 45.2224H86.0441ZM90.7288 43.7871L91.4244 41.8219H91.4353L92.1254 43.7871H90.7288ZM91.2422 41.3472C91.1834 41.3472 91.1428 41.3785 91.1207 41.4411L89.7352 45.1286C89.7278 45.1544 89.7305 45.1764 89.7435 45.1949C89.7563 45.2133 89.7774 45.2224 89.8069 45.2224H90.1327C90.1768 45.2224 90.2099 45.1949 90.2319 45.1396L90.5798 44.2178H92.2744L92.6222 45.1396C92.6443 45.1949 92.6793 45.2224 92.7271 45.2224H93.0473C93.0768 45.2224 93.098 45.2133 93.1107 45.1949C93.1237 45.1764 93.1265 45.1544 93.1191 45.1286L91.7335 41.4411C91.7114 41.3785 91.6708 41.3472 91.612 41.3472H91.2422ZM95.303 43.3952V41.7833H96.0372C96.4274 41.7833 96.7079 41.8468 96.879 41.9737C97.0502 42.1007 97.1357 42.3077 97.1357 42.5948C97.1357 42.8745 97.052 43.0778 96.8846 43.2048C96.7171 43.3318 96.4309 43.3952 96.0262 43.3952H95.303ZM94.9221 41.3472C94.8596 41.3472 94.8283 41.3766 94.8283 41.4355V45.1286C94.8283 45.1911 94.8596 45.2224 94.9221 45.2224H95.2092C95.2718 45.2224 95.303 45.1911 95.303 45.1286V43.8313H95.9765L97.0916 45.1507C97.1321 45.1985 97.1781 45.2224 97.2297 45.2224H97.5664C97.6068 45.2224 97.6316 45.2096 97.6408 45.1838C97.6501 45.158 97.6436 45.1305 97.6215 45.101L96.4954 43.7816C97.2424 43.6933 97.616 43.2977 97.616 42.5948C97.616 42.1716 97.489 41.8578 97.2351 41.6536C96.9812 41.4493 96.5855 41.3472 96.0483 41.3472H94.9221ZM100.037 43.7871L100.733 41.8219H100.744L101.434 43.7871H100.037ZM100.551 41.3472C100.492 41.3472 100.451 41.3785 100.429 41.4411L99.0438 45.1286C99.0364 45.1544 99.039 45.1764 99.052 45.1949C99.0649 45.2133 99.0861 45.2224 99.1155 45.2224H99.4412C99.4854 45.2224 99.5185 45.1949 99.5405 45.1396L99.8884 44.2178H101.583L101.931 45.1396C101.953 45.1949 101.988 45.2224 102.036 45.2224H102.356C102.385 45.2224 102.407 45.2133 102.419 45.1949C102.432 45.1764 102.435 45.1544 102.428 45.1286L101.042 41.4411C101.02 41.3785 100.98 41.3472 100.921 41.3472H100.551Z" fill="#131610"/>
<path fill-rule="evenodd" clip-rule="evenodd" d="M106.393 41.695C106.393 41.7575 106.424 41.7888 106.487 41.7888H107.503V45.1286C107.503 45.1911 107.534 45.2224 107.597 45.2224H107.884C107.946 45.2224 107.978 45.1911 107.978 45.1286V41.7888H108.993C109.056 41.7888 109.087 41.7575 109.087 41.695V41.4355C109.087 41.3767 109.056 41.3472 108.993 41.3472H106.482C106.423 41.3472 106.393 41.3767 106.393 41.4355V41.695ZM112.121 41.2865C111.584 41.2865 111.172 41.4595 110.885 41.8054C110.598 42.1513 110.454 42.6445 110.454 43.2848C110.454 43.9252 110.598 44.4174 110.885 44.7615C111.172 45.1056 111.582 45.2777 112.116 45.2777C112.657 45.2777 113.071 45.1056 113.358 44.7615C113.645 44.4174 113.788 43.9252 113.788 43.2848C113.788 42.6445 113.645 42.1513 113.358 41.8054C113.071 41.4595 112.659 41.2865 112.121 41.2865ZM112.121 44.847C111.727 44.847 111.432 44.7137 111.235 44.4468C111.038 44.18 110.94 43.7927 110.94 43.2848C110.94 42.777 111.038 42.3887 111.235 42.1201C111.432 41.8514 111.727 41.7171 112.121 41.7171C112.515 41.7171 112.81 41.8514 113.007 42.1201C113.204 42.3887 113.303 42.777 113.303 43.2848C113.303 43.7927 113.204 44.18 113.007 44.4468C112.81 44.7137 112.515 44.847 112.121 44.847ZM116.701 45.2224C117.341 45.2224 117.822 45.0716 118.144 44.7698C118.467 44.468 118.628 43.951 118.628 43.2186C118.628 42.5451 118.465 42.0649 118.139 41.7778C117.813 41.4908 117.33 41.3472 116.69 41.3472H115.74C115.682 41.3472 115.652 41.3767 115.652 41.4355V45.1286C115.652 45.1911 115.683 45.2224 115.746 45.2224H116.701ZM116.684 41.7888C117.174 41.7888 117.539 41.8938 117.78 42.1035C118.021 42.3133 118.142 42.685 118.142 43.2186C118.142 43.5277 118.11 43.7854 118.048 43.9915C117.985 44.1975 117.889 44.3576 117.758 44.4717C117.627 44.5858 117.478 44.6658 117.308 44.7118C117.139 44.7578 116.935 44.7808 116.695 44.7808H116.127V41.7888H116.684ZM121.971 41.2865C121.433 41.2865 121.021 41.4595 120.734 41.8054C120.447 42.1513 120.304 42.6445 120.304 43.2848C120.304 43.9252 120.447 44.4174 120.734 44.7615C121.021 45.1056 121.432 45.2777 121.965 45.2777C122.506 45.2777 122.92 45.1056 123.207 44.7615C123.494 44.4174 123.638 43.9252 123.638 43.2848C123.638 42.6445 123.494 42.1513 123.207 41.8054C122.92 41.4595 122.508 41.2865 121.971 41.2865ZM121.971 44.847C121.577 44.847 121.282 44.7137 121.085 44.4468C120.888 44.18 120.789 43.7927 120.789 43.2848C120.789 42.777 120.888 42.3887 121.085 42.1201C121.282 41.8514 121.577 41.7171 121.971 41.7171C122.364 41.7171 122.66 41.8514 122.857 42.1201C123.054 42.3887 123.152 42.777 123.152 43.2848C123.152 43.7927 123.054 44.18 122.857 44.4468C122.66 44.7137 122.364 44.847 121.971 44.847ZM127.864 44.2343C127.864 44.1166 127.851 44.0108 127.826 43.9169C127.8 43.8231 127.754 43.7366 127.688 43.6575C127.621 43.5783 127.563 43.5139 127.511 43.4642C127.459 43.4146 127.374 43.3585 127.254 43.2959C127.135 43.2333 127.047 43.1901 126.992 43.1662C126.937 43.1423 126.837 43.099 126.694 43.0364C126.665 43.0217 126.609 42.9978 126.528 42.9647C126.447 42.9315 126.391 42.9085 126.36 42.8957C126.329 42.8827 126.282 42.8607 126.219 42.8294C126.157 42.7981 126.112 42.7714 126.084 42.7494C126.056 42.7273 126.022 42.6988 125.982 42.6638C125.941 42.6288 125.913 42.5948 125.896 42.5617C125.88 42.5286 125.864 42.4881 125.849 42.4402C125.835 42.3924 125.827 42.3427 125.827 42.2912C125.827 42.0998 125.898 41.9563 126.04 41.8606C126.182 41.7649 126.407 41.7171 126.716 41.7171C127.025 41.7171 127.286 41.7594 127.5 41.844C127.559 41.8661 127.597 41.8496 127.616 41.7944L127.704 41.5515C127.719 41.5036 127.697 41.4687 127.638 41.4466C127.384 41.3399 127.066 41.2865 126.683 41.2865C126.234 41.2865 125.9 41.3739 125.681 41.5487C125.462 41.7235 125.353 41.971 125.353 42.2912C125.353 42.3869 125.364 42.4761 125.386 42.5589C125.408 42.6417 125.434 42.7135 125.466 42.7742C125.497 42.8349 125.544 42.8947 125.606 42.9536C125.669 43.0125 125.724 43.0603 125.772 43.0972C125.82 43.1339 125.89 43.1744 125.982 43.2186C126.074 43.2627 126.148 43.2968 126.205 43.3207C126.262 43.3446 126.344 43.3787 126.451 43.4228C126.58 43.4744 126.663 43.5084 126.699 43.525C126.736 43.5415 126.805 43.5728 126.906 43.6188C127.008 43.6648 127.077 43.7034 127.113 43.7347C127.15 43.766 127.196 43.8083 127.252 43.8617C127.307 43.915 127.344 43.9712 127.362 44.0301C127.38 44.0889 127.39 44.1534 127.39 44.2233C127.39 44.422 127.302 44.5747 127.127 44.6814C126.952 44.7882 126.712 44.8416 126.407 44.8416C126.043 44.8416 125.728 44.7882 125.463 44.6814C125.404 44.6557 125.367 44.6741 125.353 44.7367L125.264 44.9851C125.253 45.0292 125.277 45.0642 125.336 45.09C125.586 45.2077 125.949 45.2666 126.423 45.2666C126.873 45.2666 127.225 45.1783 127.481 45.0016C127.736 44.825 127.864 44.5692 127.864 44.2343Z" fill="#131610"/>
</svg>
