<svg width="379" height="289" viewBox="0 0 379 289" fill="none" xmlns="http://www.w3.org/2000/svg">
<path fill-rule="evenodd" clip-rule="evenodd" d="M373.928 226.655L358.184 225.547L355.305 210.833H340.432L361.062 247.936H337.233L339.153 269.366L374.336 270.645L378.974 287.118L326.504 285.253L313.829 226.611H329.662L311.47 193.535L368.579 196.9L373.927 226.655L373.928 226.655ZM0.000294816 288.278L17.4364 284.919L24.4745 211.976L46.2297 208.456V233.89L25.1145 237.889L44.95 288.438L59.8267 280.28L47.1895 248.607L63.3458 246.527L62.226 190.061L10.2379 200.458L0 288.278L0.000294816 288.278ZM63.3464 284.541L120.133 275.103L119.013 258.788L82.5416 265.026L84.4613 244.071L109.575 238.793L95.0186 204.241L110.535 202.321V216.238L126.691 213.998L121.286 185.923L72.4641 192.404L86.5406 227.755L69.9049 232.074L63.3467 284.541H63.3464ZM127.813 276.215L187.393 274.309L181.466 220.971H156.793V236.694H166.59L169.13 259.19L145.545 260.037L149.403 201.304L161.469 198.679L164.147 214.934H180.56L170.394 182.962L137.225 187.06L127.813 276.215V276.215ZM191.994 274.83L186.059 182.114L240.283 193.063L248.116 215.839L231.668 215.113L228.605 204.873L206.931 199.635L210.026 259.624L233.711 260.082L230.145 236.305L219.171 235.665V220.485L244.685 221.399L252.593 275.352L191.994 274.83V274.83ZM254.508 275.693L270.646 280.686L282.884 223.529L299.016 262.746H278.99L279.825 277.766L322.658 281.104L281.299 188.656L269.472 189.087L254.508 275.693L254.508 275.693Z" fill="url(#paint0_linear_1_97)"/>
<path d="M207.179 124.642L205.781 145.664C203.496 146.409 201.388 147.721 199.514 149.202C197.251 150.991 195.171 153.025 193.243 155.167C193 155.438 192.757 155.709 192.514 155.982C192.006 154.93 191.284 154.008 190.394 153.225C189.217 152.189 187.835 151.505 186.294 151.216C184.256 150.834 182.376 151.52 180.922 152.975L180.88 153.017L180.84 153.06C179.707 154.288 178.728 155.805 177.874 157.237C176.77 159.089 175.763 161.003 174.823 162.943C174.343 163.935 173.887 164.937 173.452 165.95C173.408 165.98 173.364 166.01 173.319 166.04C171.513 167.265 169.663 168.426 167.776 169.522C166.058 170.519 164.293 171.452 162.479 172.262C161.178 172.843 159.764 173.385 158.365 173.672C158.239 173.697 158.007 173.739 157.791 173.758C157.787 173.643 157.787 173.527 157.793 173.411C157.795 173.384 157.797 173.358 157.798 173.331C158.938 173.26 160.067 173.021 161.166 172.655C163.1 172.01 164.918 171.077 166.607 169.94C168.364 168.756 169.976 167.376 171.44 165.845C172.868 164.351 174.163 162.729 175.259 160.975L175.287 160.929L175.314 160.882C176.732 158.416 177.882 155.537 177.686 152.642C177.512 150.081 176.486 147.805 174.354 146.312C172.253 144.841 169.696 144.573 167.211 144.907C165.508 145.136 163.865 145.7 162.315 146.459L172.286 117.343C184.081 121.14 196.132 123.657 207.113 124.632C207.132 124.632 207.161 124.632 207.179 124.642H207.179ZM194.633 169.94L194.605 169.945L194.644 169.894L194.633 169.94Z" fill="#FEFEFE"/>
<path d="M209.14 89.9664L207.738 114.636C197.561 113.718 186.353 111.342 175.334 107.792L181.014 89.9667H209.139L209.14 89.9664Z" fill="#FEFEFE"/>
<path d="M214.264 39.8995C214.264 40.5418 214.139 41.2025 213.889 41.8454L209.559 52.8182L207.595 50.8271C205.649 48.845 203.229 47.3988 200.604 46.6041L204.023 37.9527C205.095 35.2207 208.175 33.8904 210.907 34.962C212.987 35.7923 214.264 37.7831 214.264 39.8995Z" fill="#FEFEFE"/>
<path d="M224.531 46.9523C224.531 47.5954 224.406 48.2564 224.156 48.899L218.308 63.7021C217.353 66.1212 214.827 67.443 212.354 66.9516C212.041 66.8978 211.728 66.7998 211.425 66.6833C210.104 66.1658 209.113 65.175 208.559 63.9781C207.97 62.7015 207.889 61.2108 208.443 59.7999L208.496 59.657C209.719 59.1395 210.604 58.0679 210.881 56.7643C211.059 55.9162 210.97 55.0504 210.622 54.2825L214.291 44.9969C215.363 42.2738 218.451 40.9345 221.174 42.015C223.255 42.8365 224.532 44.8361 224.532 46.9523H224.531Z" fill="#FEFEFE"/>
<path d="M227.225 55.0257C225.371 54.2934 223.274 55.2025 222.542 57.0567L218.119 68.6197C217.386 70.4739 218.296 72.5705 220.15 73.3025C222.004 74.0348 224.1 73.1257 224.832 71.2718L229.255 59.7085C229.987 57.8543 229.078 55.758 227.225 55.0257Z" fill="#FEFEFE"/>
<path d="M217.883 78.7251L209.329 89.9676L182.206 92.4675L173.511 67.978C171.877 63.3798 173.314 58.2551 177.09 55.1844C179.662 53.0855 182.528 51.4254 185.581 50.2377C188.634 49.0503 191.876 48.3361 195.188 48.1397C195.465 48.1216 195.741 48.1127 196.018 48.1127C199.83 48.1127 203.509 49.6483 206.196 52.3895L208.402 54.6384C209.321 55.5757 208.988 57.1473 207.767 57.63V57.6306C204.232 59.0233 200.277 58.827 196.902 57.0769L190.59 59.8267L199.696 60.0052L208.062 80.9683L203.798 62.7579L217.203 73.4362C218.837 74.7168 219.14 77.0727 217.883 78.7251H217.883Z" fill="#FEFEFE"/>
<path d="M249.467 111.537C244.271 120.859 227.959 124.572 207.282 122.742C196.658 121.804 184.873 119.403 172.865 115.537C140.41 105.166 131.876 104.605 116.007 106.851H116.007C111.722 110.884 104.833 119.354 101.116 124.867C97.3986 130.38 93.9804 136.129 90.8617 142.115C87.7427 148.1 84.955 154.086 82.4976 160.072C80.0402 166.057 77.9767 171.555 76.3073 176.564C74.6374 181.573 73.3931 185.842 72.5739 189.37C71.7548 192.898 71.3767 195.167 71.4397 196.175C71.5026 197.057 71.0145 197.734 69.9748 198.206C68.9351 198.679 67.8167 198.884 66.6195 198.821C65.4223 198.758 64.3826 198.348 63.5005 197.592C62.6184 196.836 62.3979 195.639 62.8389 194.001C64.0361 189.149 65.5327 184.093 67.3285 178.832C69.1243 173.571 71.0774 168.31 73.1878 163.049C75.2987 157.788 77.5198 152.621 79.8507 147.549C82.1821 142.477 84.5291 137.657 86.8917 133.089C89.2548 128.521 91.5543 124.331 93.7909 120.519C96.0278 116.707 99.2304 112.608 101.184 109.898C97.5922 110.277 92.987 111.872 89.5851 113.006C86.1826 114.139 83.0481 115.747 80.1813 117.826C77.3145 119.905 74.826 122.52 72.7151 125.67C70.6042 128.82 69.1079 132.632 68.2258 137.106C68.0366 137.862 67.4694 138.398 66.5246 138.713C65.5795 139.028 64.587 139.091 63.5473 138.902C62.5077 138.713 61.6098 138.287 60.8536 137.626C60.0975 136.964 59.8456 136.098 60.0975 135.027C61.9879 128.663 64.1557 123.145 67.7057 119.432C96.9984 88.8011 142.8 99.3276 174.757 109.591C186.015 113.225 197.229 115.591 207.629 116.529C210.379 116.769 213.066 116.921 215.682 116.957C230.351 117.189 240.922 114.028 244.003 108.502C245.841 105.199 247.323 95.4942 221.423 76.7182C221.423 76.7182 223.602 77.5221 226.199 72.4777C252.546 91.887 253.43 104.422 249.466 111.537H249.467ZM162.084 114.634C162.865 113.657 164.052 113.546 165.581 114.067C167.015 114.555 168.219 115.407 169.078 116.808C169.92 118.18 169.71 119.581 168.511 120.966C160.763 129.915 155.902 137.445 150.876 147.218C145.696 157.292 141.772 166.562 139.062 175.004C137.676 179.289 136.542 183.117 135.66 186.488C134.778 189.859 134.179 192.804 133.864 195.324C133.675 196.08 133.045 196.648 131.974 197.026C130.84 197.404 129.705 197.561 128.571 197.498C127.185 197.309 126.209 196.868 125.642 196.175C124.885 195.419 124.696 194.285 125.074 192.772C126.902 186.724 129.107 180.47 131.69 174.012C134.273 167.554 137.329 160.828 140.858 153.834C140.542 154.338 140.164 154.905 139.723 155.535C139.282 156.166 138.81 156.858 138.306 157.615C137.172 159.442 135.911 161.364 134.525 163.38C133.139 165.396 131.627 167.538 129.989 169.806C126.649 174.343 123.247 178.029 119.781 180.864C116.19 183.637 112.977 184.298 110.141 182.849C108.44 181.904 107.495 179.919 107.306 176.895C107.18 173.871 108.251 169.806 110.519 164.703C109.763 165.459 108.96 166.262 108.109 167.113C107.259 167.963 106.392 168.893 105.51 169.901C104.376 171.161 103.226 172.374 102.06 173.54C100.895 174.705 99.6818 175.887 98.4219 177.084C95.9012 179.478 93.3812 181.337 90.8611 182.66C88.2778 183.983 85.8204 184.33 83.4895 183.7C80.4648 182.566 79.3938 180.077 80.2759 176.234C81.095 172.516 83.1744 168.484 86.5133 164.136C89.7898 159.914 93.6647 156.512 98.1381 153.929C103.305 151.22 107.526 152.196 110.803 156.859C111.622 156.04 112.661 154.906 113.922 153.456C114.804 152.511 115.576 151.661 116.237 150.905C116.899 150.148 117.545 149.518 118.175 149.014C119.435 148.132 120.632 147.817 121.766 148.069C122.9 148.384 123.751 149.046 124.318 150.054C124.948 151.125 124.885 152.354 124.129 153.74C116.442 167.476 114.079 174.343 117.041 174.343C118.805 174.217 121.798 171.508 126.019 166.215C128.224 163.569 130.493 160.671 132.824 157.521C135.155 154.37 137.613 150.905 140.196 147.124C142.842 143.344 145.331 139.721 147.662 136.256C149.993 132.79 152.269 129.424 154.467 126.143C156.616 122.934 156.885 122.037 158.397 119.832C159.91 117.627 161.1 115.864 162.084 114.634L162.084 114.634ZM106.645 160.261C106.96 159.568 106.645 159.095 105.7 158.843C104.692 158.654 103.211 159.032 101.258 159.977C99.1787 160.985 96.7529 163.033 93.9806 166.12C93.6029 166.562 93.209 167.05 92.7995 167.585C92.3898 168.121 91.933 168.735 91.4289 169.428C90.3579 170.877 89.6015 172.138 89.1605 173.209C88.5935 174.469 88.5935 175.13 89.1605 175.193C89.7277 175.383 91.1771 174.689 93.5083 173.114C94.2644 172.61 95.0519 172.012 95.8711 171.319C96.6902 170.625 97.5723 169.838 98.5174 168.956C99.4627 168.074 100.361 167.223 101.211 166.404C102.062 165.585 102.865 164.766 103.621 163.946C105.196 162.245 106.204 161.017 106.646 160.26L106.645 160.261ZM155.838 176.233C156.531 176.737 157.571 176.847 158.957 176.564C160.343 176.28 161.918 175.745 163.683 174.957C165.447 174.169 167.305 173.208 169.258 172.074C171.212 170.94 173.118 169.743 174.976 168.483C176.835 167.223 178.552 165.947 180.127 164.655C181.702 163.364 183.025 162.213 184.096 161.205C184.475 160.89 184.916 160.827 185.42 161.016C185.924 161.205 186.318 161.552 186.601 162.056C186.885 162.56 186.979 163.127 186.885 163.757C186.79 164.387 186.302 164.954 185.42 165.458C184.033 166.719 182.411 168.152 180.552 169.759C178.694 171.366 176.709 172.941 174.598 174.484C172.487 176.028 170.298 177.477 168.03 178.832C165.761 180.187 163.54 181.305 161.367 182.187C159.193 183.069 157.098 183.637 155.082 183.888C153.066 184.141 151.239 183.888 149.6 183.132C147.773 182.313 146.513 181.132 145.82 179.588C145.127 178.044 144.891 176.296 145.111 174.343C145.332 172.39 145.93 170.31 146.907 168.106C147.884 165.9 149.081 163.726 150.498 161.584C151.916 159.442 153.523 157.442 155.318 155.583C157.114 153.724 158.926 152.133 160.753 150.81C163.21 149.109 165.494 148.116 167.605 147.833C169.716 147.549 171.401 147.849 172.661 148.731C173.921 149.613 174.614 150.983 174.74 152.842C174.866 154.701 174.205 156.89 172.755 159.41C171.81 160.923 170.66 162.388 169.306 163.805C167.951 165.223 166.502 166.452 164.958 167.491C163.414 168.531 161.839 169.319 160.232 169.854C158.626 170.39 157.129 170.532 155.743 170.279C155.554 170.595 155.365 171.02 155.176 171.555C154.987 172.091 154.877 172.658 154.845 173.256C154.814 173.855 154.861 174.438 154.987 175.005C155.113 175.572 155.396 175.982 155.837 176.234L155.838 176.233ZM157.539 166.593C158.862 166.467 160.5 165.679 162.454 164.23C164.407 162.781 166.108 160.638 167.557 157.803C168.061 156.858 168.282 156.228 168.219 155.913C168.156 155.598 167.919 155.52 167.51 155.677C167.1 155.834 166.533 156.197 165.809 156.764C165.084 157.331 164.344 158.024 163.587 158.843C162.265 160.229 161.004 161.694 159.807 163.238C158.61 164.782 157.854 165.9 157.539 166.593L157.539 166.593ZM199.265 179.73C197.69 178.911 196.887 177.509 196.855 175.524C196.824 173.539 197.202 171.366 197.989 169.003C198.777 166.64 199.754 164.293 200.919 161.962C202.085 159.631 203.046 157.709 203.802 156.197C202.416 156.953 200.919 158.15 199.312 159.789C197.706 161.427 196.068 163.301 194.398 165.412C192.728 167.523 191.027 169.744 189.295 172.075C187.562 174.406 185.845 176.643 184.144 178.785C182.506 180.801 180.804 182.376 179.04 183.51C177.276 184.645 175.669 184.897 174.22 184.267C173.275 183.825 172.724 182.928 172.566 181.573C172.409 180.218 172.535 178.596 172.944 176.705C173.354 174.815 173.968 172.767 174.787 170.562C175.606 168.357 176.504 166.246 177.481 164.23C178.457 162.214 179.434 160.387 180.411 158.749C181.388 157.111 182.254 155.882 183.01 155.063C183.829 154.244 184.743 153.929 185.751 154.118C186.759 154.307 187.657 154.748 188.445 155.441C189.232 156.134 189.783 156.938 190.098 157.851C190.414 158.764 190.287 159.505 189.72 160.072C189.027 160.765 188.24 161.805 187.358 163.191C186.475 164.577 185.609 166.026 184.758 167.539C183.908 169.051 183.136 170.469 182.443 171.791C181.75 173.115 181.277 174.091 181.025 174.722C181.97 173.65 183.199 172.122 184.711 170.138C186.223 168.153 187.893 166.042 189.72 163.806C191.548 161.569 193.454 159.348 195.438 157.143C197.423 154.937 199.392 153.063 201.345 151.519C203.298 149.976 205.157 148.936 206.921 148.401C208.685 147.865 210.261 148.133 211.647 149.204C212.655 149.96 213.096 151.126 212.97 152.701C212.844 154.276 212.434 156.009 211.741 157.899C211.048 159.789 210.229 161.695 209.284 163.617C208.339 165.538 207.567 167.24 206.968 168.72C206.37 170.201 206.07 171.335 206.07 172.122C206.07 172.91 206.669 173.099 207.866 172.689C209.063 172.28 211.016 171.162 213.726 169.334C216.435 167.507 220.152 164.703 224.878 160.923C225.319 160.608 225.792 160.545 226.296 160.734C226.8 160.923 227.193 161.254 227.477 161.726C227.76 162.199 227.886 162.75 227.855 163.38C227.823 164.01 227.493 164.546 226.863 164.987C226.107 165.554 225.051 166.405 223.696 167.539C222.342 168.673 220.861 169.886 219.254 171.178C217.648 172.469 215.931 173.761 214.104 175.052C212.276 176.344 210.465 177.447 208.669 178.361C206.874 179.274 205.172 179.889 203.566 180.204C201.959 180.519 200.526 180.361 199.266 179.731L199.265 179.73ZM252.144 113.856C252.963 113.1 253.94 112.911 255.074 113.289C256.208 113.667 257.185 114.329 258.004 115.274C258.823 116.219 259.327 117.274 259.516 118.44C259.705 119.606 259.264 120.63 258.193 121.512C256.744 122.709 255.326 123.985 253.94 125.34C252.554 126.694 251.199 128.096 249.876 129.546C251.136 129.483 252.617 129.451 254.318 129.451C256.019 129.451 257.736 129.483 259.468 129.546C261.201 129.609 262.855 129.703 264.43 129.829C266.006 129.955 267.329 130.113 268.4 130.301C269.219 130.554 269.707 131.105 269.865 131.956C270.022 132.806 269.912 133.657 269.534 134.507C269.156 135.358 268.557 136.051 267.738 136.587C266.919 137.122 265.974 137.233 264.903 136.918C263.958 136.666 262.666 136.429 261.028 136.209C259.39 135.988 257.641 135.799 255.783 135.641C253.924 135.484 252.034 135.374 250.112 135.311C248.191 135.248 246.473 135.248 244.961 135.311C242.126 138.965 239.527 142.761 237.165 146.699C234.801 150.637 232.675 154.528 230.785 158.371C228.895 162.215 227.257 165.916 225.871 169.476C224.484 173.036 223.303 176.297 222.326 179.258C221.349 182.22 222.203 179.007 221.699 181.212C221.195 183.417 220.883 182.788 220.754 183.858C220.632 184.866 219.998 185.623 218.864 186.126C217.73 186.63 216.548 186.819 215.32 186.693C214.091 186.568 213.02 186.126 212.106 185.37C211.193 184.615 210.605 183.361 211.303 181.968L214.387 175.809C216.711 171.169 218.404 166.232 220.672 161.538C222.94 156.843 225.335 152.291 227.855 147.881C230.375 143.47 232.864 139.343 235.321 135.5C232.99 135.689 230.579 136.004 228.091 136.445C225.602 136.886 223.318 137.453 221.239 138.146C220.357 138.587 219.538 138.587 218.782 138.146C218.025 137.705 217.474 137.091 217.128 136.303C216.781 135.516 216.718 134.696 216.939 133.846C217.159 132.995 217.868 132.412 219.065 132.097C222.279 131.215 225.586 130.617 228.989 130.301C232.391 129.987 235.856 129.734 239.385 129.546C241.905 125.891 244.268 122.725 246.473 120.047C248.678 117.369 250.569 115.306 252.144 113.857L252.144 113.856ZM254.459 165.742C254.27 167.066 253.735 168.704 252.853 170.657C251.971 172.61 250.805 174.485 249.356 176.28C247.906 178.076 246.158 179.573 244.11 180.77C242.063 181.967 239.716 182.471 237.069 182.282C235.935 182.219 234.801 181.888 233.667 181.29C232.533 180.691 231.556 179.888 230.737 178.88C229.918 177.871 229.288 176.69 228.847 175.335C228.406 173.981 228.311 172.453 228.563 170.751C229.004 167.727 229.871 165.144 231.162 163.002C232.454 160.859 233.856 159.064 235.368 157.615C236.124 156.922 237.069 156.717 238.204 157.001C239.338 157.284 240.346 157.93 241.228 158.938C239.59 156.733 238.818 154.685 238.913 152.795C239.007 150.905 239.59 149.361 240.661 148.164C241.732 146.966 243.103 146.194 244.772 145.848C246.442 145.502 248.08 145.753 249.687 146.604C251.294 147.455 252.664 148.999 253.798 151.236C254.932 153.472 255.468 156.544 255.405 160.45C256.35 160.765 257.342 160.954 258.382 161.017C259.422 161.08 260.462 161.049 261.501 160.923C262.541 160.797 263.533 160.623 264.478 160.403C265.423 160.182 266.242 159.977 266.936 159.789C267.503 159.599 267.96 159.694 268.306 160.072C268.653 160.45 268.873 160.923 268.968 161.49C269.062 162.057 269.031 162.624 268.873 163.191C268.716 163.758 268.448 164.136 268.07 164.325C265.36 165.522 262.793 166.152 260.367 166.215C257.941 166.278 255.972 166.121 254.46 165.743L254.459 165.742ZM242.362 160.639C242.551 161.017 242.614 161.395 242.551 161.773C242.488 162.151 242.173 162.592 241.606 163.096C240.472 164.104 239.464 165.349 238.581 166.83C237.699 168.311 237.054 169.712 236.644 171.036C236.234 172.359 236.124 173.477 236.313 174.391C236.502 175.304 237.132 175.73 238.203 175.667C239.148 175.604 240.141 175.131 241.181 174.249C242.22 173.367 243.181 172.343 244.063 171.177C244.945 170.012 245.717 168.767 246.379 167.444C247.04 166.121 247.466 164.955 247.655 163.947C246.835 163.695 245.89 163.254 244.819 162.624C243.748 161.994 242.929 161.332 242.362 160.639ZM245.67 151.755C245.355 151.944 245.182 152.306 245.15 152.842C245.119 153.377 245.229 153.976 245.481 154.638C245.733 155.299 246.111 155.945 246.615 156.575C247.119 157.206 247.749 157.71 248.505 158.088C248.568 157.331 248.553 156.528 248.458 155.677C248.364 154.827 248.19 154.071 247.938 153.409C247.686 152.748 247.355 152.244 246.946 151.897C246.536 151.55 246.111 151.503 245.67 151.755ZM281.442 149.96C279.363 150.401 277.189 151.314 274.921 152.7C272.653 154.087 270.668 155.756 268.967 157.71C267.265 159.663 266.037 161.805 265.281 164.136C264.525 166.467 264.619 168.767 265.564 171.035C266.005 170.72 266.968 170.504 267.974 169.665C272.265 166.088 277.717 162.601 283.713 159.318C284.788 158.73 285.552 158.411 285.934 158.232C286.623 157.908 287.21 157.933 287.682 158.279C288.155 158.625 288.486 159.098 288.675 159.697C288.864 160.295 288.863 160.941 288.675 161.634C288.486 162.327 288.107 162.921 287.446 163.241C279.184 167.236 274.827 171.146 267.738 176.423C268.053 177.556 268.321 178.801 268.541 180.156C268.762 181.511 268.809 182.944 268.683 184.456C268.557 185.968 268.195 187.512 267.596 189.087C266.998 190.663 266.037 192.238 264.714 193.813C262.319 196.648 259.925 198.696 257.531 199.956C255.137 201.216 252.947 201.878 250.963 201.941C248.978 202.004 247.308 201.531 245.953 200.523C244.599 199.515 243.764 198.144 243.449 196.412C243.134 194.679 243.433 192.647 244.347 190.316C245.26 187.985 247.04 185.496 249.686 182.85C251.136 181.464 252.726 180.077 254.459 178.691C256.192 177.305 258.035 175.95 259.988 174.627C258.35 171.099 257.814 167.633 258.381 164.231C258.948 160.828 260.209 157.662 262.162 154.733C264.115 151.803 266.573 149.204 269.533 146.936C272.495 144.667 275.582 142.903 278.795 141.643C279.867 141.265 280.828 141.438 281.678 142.163C282.529 142.887 283.112 143.785 283.427 144.857C283.742 145.928 283.773 146.983 283.521 148.023C283.269 149.062 282.576 149.708 281.442 149.96V149.96ZM261.311 180.675C260.051 181.558 258.492 182.786 256.633 184.361C254.774 185.937 253.246 187.575 252.049 189.276C250.096 192.111 249.481 193.891 250.206 194.616C250.931 195.34 252.395 194.789 254.601 192.962C255.798 192.017 256.869 190.977 257.814 189.843C258.759 188.709 259.531 187.59 260.13 186.488C260.729 185.385 261.138 184.329 261.358 183.321C261.579 182.313 261.563 181.431 261.311 180.675V180.675Z" fill="#FAAE4A"/>
<path d="M186.484 43.0455L184.786 41.9279C185.822 39.9394 184.765 37.5398 182.018 35.7311C182.013 35.7276 182.008 35.7245 182.003 35.7213C182.003 35.7207 182.002 35.7204 182.001 35.7199C181.001 35.0635 179.327 33.9649 177.278 32.8203L177.268 32.8148C176.251 32.2056 175.269 31.6216 174.511 31.1731C174.573 30.9623 174.635 30.7522 174.69 30.5394C175.351 28.0478 175.661 25.3842 175.299 22.7313C175.214 22.0686 175.069 21.4128 174.896 20.7641C174.722 20.1356 174.475 19.4321 174.232 18.874C173.675 17.5549 172.8 16.462 171.84 15.5239C169.889 13.6671 167.627 12.3393 165.364 11.1269C163.094 9.92506 160.78 8.87161 158.483 7.85121C156.183 6.83599 153.903 5.85528 151.643 4.88203C149.382 3.91339 147.141 2.96171 144.889 2.1052C142.634 1.2645 140.365 0.47901 137.979 0.13514C136.787 -0.029894 135.56 -0.0666904 134.348 0.155272C133.678 0.290692 133.115 0.532481 132.586 0.796708C132.061 1.06669 131.559 1.35363 131.086 1.66559C129.19 2.90219 127.549 4.3139 126.022 5.74113C124.502 7.17497 123.118 8.64475 121.885 10.1505C121.27 10.9043 120.692 11.6677 120.167 12.4506C119.642 13.2433 119.171 14.017 118.788 14.9155C118.433 15.7642 118.215 16.6662 118.079 17.5115C117.942 18.3654 117.879 19.1946 117.857 19.9959C117.794 23.1994 118.29 25.9411 118.885 28.1467C119.487 30.3534 120.246 32.0215 120.909 33.1006C121.238 33.6408 121.541 34.0333 121.769 34.3125C121.975 34.5462 122.082 34.6667 122.082 34.6667L122.092 34.6788L122.456 35.033C122.573 35.1514 122.723 35.288 122.907 35.4404C123.088 35.5957 123.298 35.7799 123.545 35.964C124.404 36.6353 125.66 37.4829 127.281 38.4311L127.224 34.8921L128.833 39.3129C129.37 39.6099 129.936 39.9162 130.531 40.2307L130.534 36.5827L132.158 41.0786C132.678 41.3457 133.22 41.6203 133.774 41.8986L133.845 38.273L135.439 42.7295C135.953 42.9825 136.478 43.2416 137.015 43.5058L137.156 39.9639L138.705 44.3367C139.211 44.5848 139.727 44.8367 140.252 45.0912L140.466 41.6556L141.959 45.9157C142.46 46.1558 142.972 46.3988 143.489 46.6426L143.776 43.3454L145.193 47.4353C145.699 47.6667 146.211 47.8973 146.732 48.1273L147.086 45.0357L148.388 48.8409C148.915 49.0618 149.449 49.28 149.994 49.4927L150.397 46.7266L151.521 50.062C152.02 50.2388 152.527 50.4082 153.044 50.5675C154.084 50.8872 155.163 51.1675 156.303 51.3377C156.875 51.4179 157.462 51.4714 158.07 51.4634C158.227 51.4559 158.367 51.4625 158.537 51.4444C158.694 51.4277 158.885 51.4162 159.013 51.3927L159.22 51.359L159.323 51.342L159.479 51.3075C159.651 51.267 159.81 51.215 159.967 51.158C161.201 50.6776 162.132 49.9139 163.031 49.1293C163.366 48.8274 163.69 48.5143 164.01 48.1969C164.604 48.4108 165.637 48.7809 166.79 49.1894C167.167 50.2906 167.924 51.3116 169.013 52.0332C170.172 52.8035 171.532 53.1284 172.84 52.9501C173.954 52.7983 174.918 52.296 175.621 51.5238C175.945 51.5206 176.27 51.4956 176.595 51.4432C176.873 51.6885 177.133 51.9743 177.382 52.2906C178.144 51.7351 178.928 51.2115 179.733 50.721C179.597 50.5422 179.458 50.3674 179.312 50.1975C179.395 50.1293 179.477 50.0511 179.56 49.9761C179.592 49.947 179.625 49.9194 179.656 49.8895C179.775 49.778 179.893 49.6575 180.011 49.5316C180.047 49.4933 180.083 49.4591 180.117 49.42C180.267 49.255 180.415 49.0802 180.562 48.8904C180.581 48.8674 180.599 48.8421 180.617 48.8188L181.764 49.5741C182.621 49.1276 183.498 48.717 184.391 48.3435L185.306 46.029C182.544 44.2065 180.217 42.6717 178.711 41.6798C177.234 40.7068 175.757 39.7344 174.279 38.7612C178.189 40.6766 181.944 42.9193 185.608 45.2645L186.485 43.0455H186.484ZM174.654 50.6595C174.901 49.7952 175.029 48.9309 174.751 48.0514C174.522 47.2079 173.961 46.439 173.252 45.9342C172.476 45.3859 171.526 45.0966 170.575 45.1843C169.6 45.2743 168.834 45.7027 168.086 46.3013C168.995 43.9888 171.86 43.6375 173.791 44.8324C174.727 45.5457 175.438 46.4525 175.619 47.6466C175.786 48.7524 175.46 49.8746 174.654 50.6595H174.654ZM163.855 44.3103C163.73 44.6363 163.588 44.9555 163.441 45.272C163.736 41.9365 163.028 37.8489 160.871 35.4852C159.148 33.598 156.968 32.1495 154.28 30.7539C154.037 31.2176 153.815 31.6877 153.614 32.1641C154.912 32.9419 156.215 33.7098 157.45 34.587C158.262 35.1629 159.08 35.8472 159.683 36.6448C160.139 37.2474 160.515 37.8575 160.886 38.5134C160.44 37.93 159.995 37.3863 159.474 36.865C158.784 36.1796 157.909 35.6301 157.05 35.1836C155.777 34.5241 154.455 33.9695 153.136 33.4114C152.305 35.8004 151.887 38.3095 151.51 40.8411C151.453 39.0734 151.378 37.3159 151.496 35.5482C151.626 33.6127 151.946 31.7271 152.538 29.8844C152.532 29.8816 152.526 29.8787 152.52 29.8761C152.563 29.7746 152.604 29.6728 152.648 29.5719C153.474 27.699 154.387 25.8609 155.337 24.0484C156.099 22.5973 156.945 21.175 157.657 19.6966C158.419 20.0554 159.176 20.424 159.917 20.8222C159.388 20.3938 158.846 19.9881 158.278 19.6092C154.146 16.8464 149.579 14.6757 145.115 12.5116C141.074 10.5521 136.904 8.65798 132.528 7.58584C133.03 7.83195 133.542 8.05448 134.043 8.30145C134.071 8.31497 134.098 8.32906 134.125 8.34257C133.618 8.65884 133.121 8.99926 132.645 9.35837C130.749 10.785 128.935 12.4204 127.464 14.2916C126.802 15.1328 126.043 16.1018 125.602 17.1213C124.874 16.8252 124.187 16.5699 123.549 16.3677C120.609 15.4327 120.135 17.4612 119.3 19.5393C119.374 18.1897 119.568 16.7794 120.119 15.4462C120.313 14.996 120.572 14.521 120.859 14.0469C122.118 12.8209 123.824 12.5026 125.528 13.0823C124.4 12.3868 123.174 12.1688 121.99 12.3761C122.313 11.9385 122.649 11.5027 123.004 11.0688C123.124 10.9227 123.254 10.7776 123.378 10.6318C124.671 9.64071 126.443 9.71461 128.022 10.2111C127.012 9.64417 125.914 9.27068 124.743 9.26292C124.689 9.26263 124.637 9.26809 124.583 9.26981C125.148 8.65884 125.739 8.0539 126.354 7.45501C127.598 6.73909 129.198 6.76555 130.568 7.20142C129.651 6.65917 128.61 6.33599 127.572 6.30379C128.164 5.76556 128.778 5.23337 129.414 4.71814C130.655 4.18796 132.257 4.39182 133.505 4.72763C132.621 4.26905 131.612 3.90764 130.604 3.79724C131.023 3.49046 131.45 3.19373 131.887 2.90995C131.931 2.88091 131.977 2.85619 132.021 2.82773C133.428 2.28921 135.096 2.39646 136.528 2.79524C135.663 2.3539 134.711 2.03304 133.743 1.90021C134.042 1.776 134.341 1.67508 134.618 1.62045C135.618 1.43817 136.693 1.46432 137.773 1.61958C138.536 1.7297 139.302 1.89704 140.072 2.10089C139.033 3.25929 138.022 4.43896 137.02 5.63359C136.226 5.42083 135.425 5.23223 134.615 5.07438C135.13 5.28714 135.648 5.50019 136.163 5.71726C140.764 7.66892 145.187 9.9725 149.688 12.1398C151.986 13.2467 154.305 14.3082 156.629 15.3614C158.502 16.2093 160.393 17.0299 162.207 18.0002C161.733 17.6181 161.253 17.2504 160.748 16.9083C160.618 16.8197 160.483 16.7378 160.353 16.6512C161.07 15.8907 161.786 15.138 162.548 14.4247C163.249 13.7703 163.995 13.1731 164.749 12.5834C166.903 13.7464 169.023 15.0273 170.73 16.667C171.585 17.5051 172.318 18.4528 172.749 19.4847C173.01 20.0948 173.178 20.5954 173.346 21.1894C173.497 21.7693 173.627 22.355 173.702 22.9518C173.904 24.396 173.881 25.8667 173.697 27.3232C173.664 26.8422 173.62 26.3606 173.554 25.8785C173.285 23.9038 172.593 21.9418 171.47 20.2903C170.201 18.4197 168.432 17.0854 166.358 16.2234C168.113 17.2898 169.555 18.6552 170.575 20.4519C171.468 22.026 171.928 23.8814 172.042 25.6815C172.127 27.0403 172.03 28.3689 171.843 29.6912C171.789 29.1311 171.713 28.5696 171.612 28.0046C170.911 24.0783 168.235 20.5197 164.583 18.9183C165.314 19.3774 166.019 19.8792 166.625 20.4999C169.528 23.4757 170.745 27.703 170.206 31.7961C170.151 32.2087 170.082 32.6164 170.008 33.0227C169.955 32.5037 169.88 31.9833 169.782 31.4603C169.026 27.394 166.133 23.5536 162.358 21.859C163.11 22.34 163.823 22.8754 164.443 23.5226C165.855 24.9932 167.088 26.8115 167.688 28.7743C167.955 29.6446 168.246 30.5451 168.325 31.4563C168.406 32.3594 168.439 33.2185 168.417 34.1244C168.4 34.8553 168.302 35.5899 168.158 36.3202C168.114 35.9602 168.061 35.602 167.991 35.2478C167.52 32.8504 166.401 30.5966 164.875 28.6973C163.6 27.1076 162.01 25.6355 160.132 24.7977C161.853 25.8043 163.238 27.3799 164.305 29.0463C165.544 30.9776 166.379 33.2018 166.568 35.4956C166.669 36.7193 166.58 37.8975 166.344 39.0499C166.288 38.7051 166.223 38.3619 166.139 38.0211C165.55 35.6356 164.36 33.4703 162.782 31.5952C161.459 30.0268 159.833 28.5167 157.906 27.7393C159.248 28.5596 160.325 29.7594 161.27 31C162.439 32.5362 163.359 34.2308 163.984 36.0594C164.592 37.8429 164.84 39.7868 164.553 41.6574C164.414 42.5671 164.183 43.4512 163.855 44.3108L163.855 44.3103ZM148.48 40.4101C146.147 39.5007 143.854 38.4783 141.597 37.3967C137.028 35.2095 132.492 32.9094 128.108 30.3692C126.528 29.4543 124.969 28.4937 123.478 27.4394C127.303 29.448 131.173 31.3571 135.044 33.2745C139.627 35.5445 144.186 37.8676 148.834 40.0067C150.602 40.8218 152.384 41.6246 154.239 42.224C152.261 41.8304 150.353 41.1404 148.48 40.4098V40.4101ZM141.309 41.5199C136.707 39.2675 132.116 36.9401 127.726 34.2895C126.336 33.4508 124.976 32.5762 123.641 31.6515C127.53 33.8418 131.533 35.8185 135.535 37.7914C140.084 40.0349 144.601 42.3635 149.201 44.5003C150.845 45.2634 152.506 45.9974 154.242 46.529C149.69 45.7343 145.423 43.5328 141.309 41.5196L141.309 41.5199ZM140.646 11.7097C140.249 11.9046 139.877 12.2186 139.536 12.4949C138.672 13.1826 137.852 13.9121 137.068 14.6912C135.545 16.2093 134.102 17.9531 133.107 19.8717C132.994 20.0896 132.892 20.3104 132.795 20.5336C132.787 20.5292 132.778 20.5249 132.77 20.5206C132.708 20.6856 132.634 20.851 132.561 20.9901C132.24 21.5608 132.041 22.2319 131.853 22.8549C131.089 25.3676 130.96 28.0084 130.923 30.6173C130.545 28.4609 130.241 26.2887 130.326 24.0939C130.324 24.1499 130.322 24.1769 130.327 24.0573C130.374 23.1793 130.409 22.3 130.589 21.4361C130.717 20.8291 130.879 20.2455 131.061 19.6561C131.05 19.6506 131.04 19.6451 131.029 19.6399C131.22 19.2501 131.462 18.8746 131.675 18.5091C132.295 17.4502 133.001 16.433 133.718 15.437C134.474 14.3876 135.232 13.3373 135.978 12.2813C136.302 11.8189 136.626 11.3563 136.946 10.8911C137.033 10.7655 137.505 10.239 137.523 10.0326C138.606 10.5766 139.687 11.1237 140.77 11.6697C140.743 11.6697 140.704 11.6809 140.646 11.7094V11.7097ZM143.331 13.7855C142.46 14.4578 141.636 15.1941 140.865 15.9784C139.274 17.5948 137.845 19.4048 136.767 21.4062C136.602 21.7135 136.459 22.0283 136.326 22.3472C136.313 22.3406 136.3 22.334 136.287 22.3274C136.229 22.4993 136.157 22.6643 136.128 22.7287C135.838 23.3707 135.592 24.0168 135.38 24.6873C134.604 27.149 134.453 29.7608 134.354 32.3211C134.022 30.1567 133.752 27.9805 133.874 25.7856C133.871 25.8422 133.868 25.8687 133.876 25.7462C133.886 25.5979 133.883 25.6352 133.88 25.7005C133.979 24.2368 134.199 22.863 134.614 21.4671C134.6 21.4596 134.586 21.4524 134.572 21.445C134.749 21.1028 134.973 20.7776 135.122 20.4295C135.673 19.4669 136.27 18.5365 136.882 17.6121C138.098 15.7743 139.397 13.9905 140.582 12.1318C140.633 12.0521 140.843 11.768 140.808 11.6901C141.89 12.2361 142.972 12.7812 144.057 13.3221C143.849 13.3948 143.384 13.7447 143.331 13.7855ZM147.21 15.0204C146.373 15.6248 145.596 16.3257 144.862 17.0486C143.169 18.7144 141.703 20.6327 140.557 22.71C140.3 23.1773 140.078 23.6565 139.885 24.1442C139.876 24.1401 139.868 24.1353 139.859 24.1312C139.858 24.1324 139.858 24.1335 139.858 24.1353C139.787 24.2635 139.729 24.4003 139.666 24.5329C139.407 25.1444 139.155 25.7433 138.949 26.3773C138.109 28.8198 137.946 31.4704 137.785 34.0252C137.499 31.849 137.263 29.6619 137.423 27.4638C137.418 27.53 137.414 27.5714 137.424 27.4365C137.437 27.2764 137.433 27.3336 137.427 27.4092C137.541 25.9851 137.764 24.6401 138.162 23.2831C138.141 23.2727 138.12 23.2624 138.099 23.2517C138.587 22.0887 139.349 20.9599 140.005 19.9056C141.154 18.0592 142.386 16.2651 143.534 14.4181C143.685 14.1832 143.835 13.9477 143.98 13.7079C144.034 13.6176 144.138 13.4819 144.151 13.3686C145.214 13.8977 146.279 14.4218 147.348 14.9373C147.311 14.954 147.267 14.979 147.21 15.0204ZM150.713 16.5339C149.904 17.1265 149.16 17.8105 148.452 18.5186C146.75 20.2196 145.264 22.2193 144.151 24.3535C143.894 24.844 143.671 25.3353 143.472 25.8322C143.463 25.8284 143.454 25.8244 143.445 25.8207C143.427 25.8664 143.401 25.9202 143.364 25.9941C143.042 26.641 142.772 27.3023 142.542 27.9857C141.669 30.4641 141.431 33.1313 141.217 35.7305C140.978 33.5491 140.775 31.3522 140.971 29.1582C140.964 29.2234 140.96 29.2637 140.973 29.1268C140.987 28.9716 140.983 29.0216 140.976 29.094C141.107 27.6956 141.337 26.3675 141.728 25.0337C141.709 25.0248 141.69 25.0153 141.67 25.0067C142.122 23.9429 142.737 22.928 143.315 21.9432C144.345 20.1854 145.428 18.4597 146.498 16.7257C146.778 16.2711 147.062 15.8174 147.328 15.3537C147.398 15.2309 147.463 15.086 147.471 14.9968C148.551 15.5164 149.635 16.0253 150.722 16.5284C150.719 16.5305 150.717 16.5313 150.713 16.5339ZM153.677 18.4769C153.306 18.7846 152.929 19.0937 152.595 19.4395C151.844 20.1739 151.132 20.9389 150.48 21.7601C149.248 23.3124 148.167 25.0122 147.339 26.8126C147.219 27.074 147.11 27.3388 147.005 27.6053C146.96 27.6798 146.916 27.7459 146.895 27.7847C146.598 28.3686 146.352 28.9742 146.136 29.5937C145.226 32.1107 144.927 34.7886 144.649 37.4337C144.461 35.2348 144.287 33.0232 144.522 30.8191C144.513 30.9017 144.504 30.9784 144.522 30.8166C144.528 30.7547 144.531 30.7266 144.532 30.7185C144.531 30.73 144.526 30.7714 144.522 30.8131C144.673 29.3839 144.918 28.0208 145.33 26.6565C145.313 26.6493 145.296 26.6413 145.279 26.6344C145.741 25.5516 146.345 24.5136 146.907 23.4944C147.858 21.7693 148.872 20.079 149.871 18.3818C150.132 17.9373 150.399 17.4939 150.647 17.0422C150.677 16.9893 150.811 16.7346 150.847 16.5871C151.935 17.0897 153.025 17.5868 154.117 18.0822C153.955 18.1952 153.745 18.4197 153.677 18.4769ZM148.071 32.5063C148.244 31.0428 148.506 29.6429 148.944 28.2441C148.935 28.2398 148.926 28.2364 148.917 28.2321C149.723 26.3624 150.725 24.5677 151.704 22.7857C152.208 21.8662 152.725 20.9533 153.236 20.0376C153.467 19.6259 153.701 19.2167 153.927 18.803C153.944 18.7725 154.154 18.3496 154.238 18.1368C154.277 18.1543 154.315 18.173 154.354 18.1903C155.433 18.6779 156.516 19.1595 157.59 19.6638C154.483 22.0746 152.16 25.5547 150.64 29.1449C150.631 29.1651 150.625 29.1855 150.616 29.2056C150.57 29.293 150.523 29.3801 150.477 29.4675C150.159 30.0598 149.903 30.6978 149.684 31.3321C148.805 33.872 148.417 36.4832 148.081 39.1381C147.949 36.9317 147.805 34.7101 148.071 32.5063C148.111 32.1593 148.03 32.8464 148.071 32.5063H148.071ZM126.779 23.2672C126.698 21.4404 126.961 19.6759 127.486 17.9367C127.485 17.9361 127.484 17.9358 127.483 17.9358C129.332 14.4925 132.074 11.651 134.173 8.36615C135.278 8.9084 136.38 9.45784 137.48 10.011C137.299 10.0958 136.662 10.5061 136.598 10.5507C136.183 10.8428 135.784 11.1617 135.389 11.4823C134.49 12.212 133.647 13.0058 132.841 13.8347C131.473 15.2536 130.171 16.839 129.308 18.6221C129.244 18.7564 129.187 18.8933 129.129 19.0296C128.447 20.4309 127.961 21.9142 127.786 23.4771C127.535 25.2891 127.472 27.086 127.492 28.9138C127.126 27.0386 126.862 25.1787 126.779 23.2678L126.779 23.2672ZM120.599 20.1322C120.748 19.4919 120.943 18.8062 121.469 18.3688C122.408 17.5902 123.936 18.0583 124.869 18.6152C123.942 18.7449 122.739 18.2679 121.895 18.7564C121.422 19.0267 121.169 19.6307 120.964 20.1077C120.779 20.5373 120.605 20.972 120.408 21.3961C120.302 21.3262 120.572 20.2463 120.599 20.1322ZM142.092 2.71301C142.589 2.87949 143.086 3.05486 143.584 3.23801C142.582 4.39843 141.617 5.58328 140.669 6.79056C139.501 6.36619 138.318 5.9838 137.119 5.65948C138.759 4.6434 140.407 3.65492 142.092 2.71301ZM146.927 4.55197C145.95 5.73107 145.017 6.9372 144.109 8.17122C143.065 7.71608 142.01 7.28595 140.942 6.89119C142.452 5.88402 143.975 4.91135 145.542 3.99159C146.003 4.17531 146.465 4.36192 146.927 4.55197ZM148.773 5.32366C149.249 5.5252 149.727 5.72848 150.205 5.93405C149.231 7.15887 148.313 8.41417 147.428 9.70454C146.437 9.2241 145.438 8.7566 144.429 8.31066C145.86 7.28423 147.308 6.29948 148.813 5.37109C148.8 5.35528 148.786 5.33918 148.773 5.32366ZM152.071 6.75836C152.064 6.74887 152.056 6.73996 152.048 6.73076C152.517 6.93461 152.986 7.13875 153.458 7.34375C152.482 8.62694 151.573 9.94491 150.706 11.3031C149.714 10.8164 148.722 10.3348 147.736 9.85347C149.143 8.7655 150.573 7.7316 152.071 6.75836ZM156.701 8.76465C155.716 10.1157 154.815 11.5041 153.962 12.9426C152.976 12.4311 151.984 11.9316 150.989 11.4411C152.383 10.2804 153.809 9.18299 155.316 8.15541C155.777 8.35753 156.239 8.56109 156.701 8.76465ZM159.91 10.2042C159.416 10.8914 158.932 11.5858 158.493 12.3106C158.027 13.0915 157.593 13.8862 157.163 14.686C156.19 14.1271 155.203 13.588 154.206 13.0682C155.59 11.8284 157.008 10.6634 158.528 9.57602C158.99 9.7836 159.45 9.99292 159.91 10.2042ZM163.086 11.7232C162.621 12.4012 162.168 13.0869 161.757 13.8005C161.236 14.7223 160.763 15.6633 160.295 16.613C159.329 15.9735 158.341 15.3649 157.335 14.7835C157.967 14.161 158.602 13.5449 159.266 12.9538C160.038 12.2709 160.861 11.6542 161.686 11.0389C162.155 11.2637 162.622 11.49 163.086 11.7232ZM181.623 37.5211C182.282 38.1589 182.793 38.8262 183.267 39.6102C182.725 38.972 182.173 38.4467 181.503 37.9481C180.69 37.3958 179.79 36.9476 178.88 36.5818C177.573 36.0565 176.253 35.5652 174.929 35.0836L172.317 39.1657C173.58 40.2103 174.845 41.2566 176.049 42.3692C176.908 43.1608 177.672 44.0299 178.303 45.0101C178.843 45.7734 179.123 46.7107 179.424 47.5828C179.043 46.8568 178.669 46.1202 178.153 45.4753C177.431 44.5756 176.545 43.8836 175.624 43.2002C174.266 42.258 172.841 41.4121 171.421 40.5665L171.416 40.5734C170.256 39.8845 169.127 39.2281 168.489 38.8595L172.932 32.113C173.432 32.408 174.174 32.8479 175.017 33.3501C176.39 34.1138 177.762 34.8815 179.104 35.6966C179.979 36.2265 180.886 36.8087 181.623 37.5214V37.5211Z" fill="#FAAE4A"/>
<path d="M202.712 35.6408C202.712 36.2926 202.587 36.953 202.336 37.5962L198.944 46.1846C197.926 45.9882 196.881 45.8813 195.828 45.8813C195.506 45.8813 195.185 45.8902 194.864 45.9077C192.221 46.0687 189.623 46.5334 187.096 47.2915L192.471 33.6943C193.542 30.9713 196.632 29.632 199.354 30.7036C201.434 31.5339 202.711 33.5247 202.711 35.6408H202.712Z" fill="#FEFEFE"/>
<path d="M286.404 175.076C285.814 175.852 285.155 176.712 284.426 177.659C283.697 178.605 282.937 179.551 282.146 180.497C281.355 181.443 280.533 182.351 279.679 183.219C278.826 184.088 277.996 184.809 277.19 185.384C276.383 185.957 275.607 186.353 274.863 186.57C274.118 186.787 273.436 186.725 272.815 186.384C272.071 185.981 271.637 185.329 271.512 184.43C271.388 183.53 271.497 182.514 271.838 181.381C272.179 180.249 272.699 179.039 273.397 177.752C274.095 176.464 274.894 175.216 275.794 174.005C276.693 172.795 277.655 171.694 278.679 170.702C279.703 169.709 280.695 168.918 281.657 168.328C282.247 167.956 282.844 167.731 283.449 167.654C284.054 167.576 284.62 167.607 285.147 167.746C285.675 167.886 286.156 168.119 286.59 168.445C287.024 168.77 287.35 169.135 287.567 169.538C287.815 169.228 288.226 168.662 288.8 167.84C289.374 167.018 290.041 166.071 290.801 165.001C291.561 163.931 292.368 162.791 293.221 161.581C294.074 160.371 294.904 159.215 295.711 158.114C296.517 157.012 297.247 156.012 297.898 155.112C298.55 154.212 299.061 153.545 299.434 153.111C299.744 152.708 300.14 152.545 300.62 152.622C301.101 152.7 301.52 152.925 301.877 153.297C302.234 153.67 302.458 154.127 302.551 154.67C302.645 155.213 302.458 155.733 301.993 156.229C298.891 159.673 296.324 163.1 294.292 166.513C292.26 169.926 290.685 173.128 289.568 176.122C288.452 179.116 287.738 181.823 287.428 184.242C287.118 186.662 287.149 188.601 287.521 190.059C287.614 190.4 287.474 190.726 287.102 191.036C286.73 191.347 286.288 191.571 285.776 191.711C285.264 191.851 284.767 191.866 284.287 191.757C283.806 191.649 283.503 191.362 283.379 190.897C283.286 190.555 283.263 189.857 283.309 188.803C283.356 187.748 283.495 186.484 283.728 185.01C283.961 183.536 284.302 181.931 284.752 180.194C285.202 178.456 285.753 176.75 286.404 175.075L286.404 175.076ZM285.24 172.097C285.395 171.88 285.388 171.655 285.217 171.423C285.046 171.19 284.744 171.105 284.31 171.167C283.72 171.229 283.053 171.578 282.309 172.214C281.564 172.85 280.827 173.618 280.098 174.517C279.369 175.417 278.671 176.387 278.004 177.426C277.337 178.465 276.802 179.403 276.399 180.241C275.995 181.079 275.755 181.738 275.677 182.219C275.6 182.7 275.763 182.863 276.166 182.708C276.476 182.583 276.887 182.281 277.399 181.8C277.911 181.319 278.477 180.73 279.098 180.032C279.718 179.334 280.362 178.581 281.029 177.775C281.696 176.968 282.316 176.193 282.89 175.448C283.464 174.703 283.961 174.029 284.379 173.424C284.798 172.819 285.085 172.377 285.24 172.097Z" fill="white"/>
<path d="M304.878 176.332C304.785 176.984 304.521 177.79 304.087 178.752C303.652 179.714 303.078 180.637 302.365 181.521C301.651 182.405 300.79 183.142 299.782 183.731C298.774 184.321 297.618 184.569 296.315 184.476C295.757 184.445 295.198 184.282 294.64 183.987C294.081 183.693 293.601 183.297 293.197 182.801C292.794 182.304 292.484 181.723 292.267 181.056C292.049 180.388 292.003 179.636 292.127 178.799C292.344 177.309 292.771 176.038 293.407 174.983C294.043 173.928 294.733 173.044 295.477 172.33C295.85 171.989 296.315 171.888 296.874 172.028C297.432 172.167 297.928 172.485 298.363 172.982C297.556 171.896 297.176 170.888 297.223 169.957C297.269 169.026 297.556 168.266 298.084 167.677C298.611 167.087 299.286 166.707 300.108 166.537C300.93 166.366 301.736 166.49 302.528 166.909C303.319 167.328 303.993 168.088 304.552 169.189C305.11 170.29 305.374 171.803 305.343 173.726C305.808 173.881 306.297 173.975 306.809 174.005C307.321 174.036 307.833 174.021 308.344 173.959C308.856 173.897 309.345 173.812 309.81 173.703C310.276 173.594 310.679 173.494 311.02 173.4C311.299 173.308 311.524 173.354 311.695 173.54C311.866 173.726 311.974 173.959 312.021 174.238C312.067 174.517 312.052 174.797 311.974 175.076C311.897 175.355 311.765 175.541 311.579 175.634C310.245 176.224 308.98 176.534 307.786 176.565C306.592 176.596 305.622 176.519 304.878 176.332ZM298.921 173.819C299.014 174.005 299.046 174.192 299.014 174.378C298.983 174.564 298.828 174.781 298.549 175.029C297.991 175.526 297.494 176.138 297.06 176.867C296.626 177.596 296.308 178.287 296.106 178.938C295.904 179.59 295.85 180.14 295.943 180.59C296.036 181.04 296.346 181.25 296.874 181.219C297.339 181.187 297.828 180.955 298.34 180.52C298.851 180.086 299.325 179.582 299.759 179.008C300.193 178.434 300.573 177.821 300.899 177.17C301.225 176.519 301.434 175.944 301.527 175.448C301.124 175.324 300.659 175.107 300.131 174.797C299.604 174.486 299.201 174.161 298.921 173.819ZM300.55 169.445C300.395 169.538 300.31 169.716 300.294 169.98C300.279 170.244 300.333 170.538 300.457 170.864C300.581 171.19 300.767 171.508 301.016 171.818C301.264 172.128 301.574 172.377 301.946 172.563C301.977 172.191 301.97 171.795 301.923 171.376C301.876 170.957 301.791 170.585 301.667 170.259C301.543 169.934 301.38 169.685 301.178 169.515C300.977 169.344 300.767 169.321 300.55 169.445Z" fill="white"/>
<defs>
<linearGradient id="paint0_linear_1_97" x1="0.000287516" y1="235.276" x2="378.974" y2="235.276" gradientUnits="userSpaceOnUse">
<stop stop-color="#048602"/>
<stop offset="0.490196" stop-color="#FCFC08"/>
<stop offset="1" stop-color="#F50204"/>
</linearGradient>
</defs>
</svg>
