<svg width="155" height="27" viewBox="0 0 155 27" fill="none" xmlns="http://www.w3.org/2000/svg">
<g clip-path="url(#clip0_15_214)">
<path fill-rule="evenodd" clip-rule="evenodd" d="M107.594 13.8215H84.7469V6.57454H108.4C111.114 6.57454 112.572 9.9277 111.342 11.9327C110.512 13.2864 109.387 13.8211 107.594 13.8211V13.8215ZM109.406 26.8051H106.696C106.308 26.7704 105.982 26.705 105.797 26.5898L100.994 23.7432C99.9865 23.1512 94.1565 19.5582 93.7043 19.5582H84.7466V26.8051H79.0095V0.837813H96.8244C97.9318 0.837813 99.0388 0.837813 100.146 0.837813L103.263 0.733753C107.409 0.609732 110.959 0.354163 114.152 2.93538C118.24 6.23945 118.61 12.9638 115.018 16.5146C111.899 19.5974 109.672 19.5582 105.078 19.5582C105.765 20.156 116.804 26.325 117.156 26.8051C114.573 26.8051 111.989 26.8051 109.406 26.8051Z" fill="white"/>
<path fill-rule="evenodd" clip-rule="evenodd" d="M123.899 10.5001C123.899 9.22682 124.233 8.32202 124.878 7.65446C125.528 6.98232 126.238 6.47413 127.523 6.47413H145.64C146.925 6.47413 147.634 6.98232 148.284 7.65446C148.93 8.32202 149.263 9.22682 149.263 10.5001V14.7273H123.9V10.5001H123.899ZM118.162 10.9026V26.5031C118.162 26.7315 118.23 26.8029 118.454 26.8051H118.464H123.899V20.5648H149.263V26.8051H154.698H154.709C154.929 26.8029 154.998 26.7338 155 26.5139V26.5031V10.9026C155 6.24016 152.79 2.76428 148.919 1.28257C147.576 0.768487 146.135 0.636612 144.331 0.636612H128.831C125.685 0.636612 123.211 1.16444 121.056 3.32876C119.249 5.1436 118.162 7.31316 118.162 10.9026Z" fill="white"/>
<path fill-rule="evenodd" clip-rule="evenodd" d="M0 26.5034V26.5142C0.00229063 26.7341 0.0713369 26.8032 0.291238 26.8055H0.302036H5.73706V16.64H19.4256C19.8081 16.64 26.2075 23.271 26.5969 23.6601L29.2632 26.328C29.5963 26.6723 29.6398 26.7773 29.8728 26.8055H30.7567C33.0437 26.7829 35.3435 26.8048 37.6318 26.8055H37.7434L24.8354 13.8467L37.7683 0.863069C35.3968 0.838199 33.043 0.856197 30.6971 0.837545C29.4755 0.8274 29.9239 0.656257 28.4585 2.12161L20.5074 10.0731C20.2999 10.2802 19.8235 10.9032 19.526 10.9032H5.73706V0.838526H0V26.5041L0 26.5034Z" fill="white"/>
<path fill-rule="evenodd" clip-rule="evenodd" d="M39.8571 6.5749H76.393V0.837845H39.8571V6.5749Z" fill="white"/>
<path fill-rule="evenodd" clip-rule="evenodd" d="M39.8571 16.6396H76.393V10.9026H39.8571V16.6396Z" fill="white"/>
<path fill-rule="evenodd" clip-rule="evenodd" d="M39.8571 26.6038H76.393V20.8668H39.8571V26.6038Z" fill="white"/>
</g>
<defs>
<clipPath id="clip0_15_214">
<rect width="155" height="26.1686" fill="white" transform="translate(0 0.636597)"/>
</clipPath>
</defs>
</svg>
