<svg width="245" height="473" viewBox="0 0 245 473" fill="none" xmlns="http://www.w3.org/2000/svg">
<path d="M82.2471 126.752C81.6334 130.266 81.1534 133.427 80.5188 136.557C79.8041 140.066 79.1214 143.598 78.1156 147.031C76.881 151.238 74.8489 152.684 70.4487 152.45C65.4323 152.185 60.4328 151.608 55.4253 151.154C54.7593 151.092 54.098 150.973 53.1582 150.846C53.3257 151.683 53.4006 152.283 53.5697 152.855C55.2666 158.582 56.8175 164.362 58.7447 170.013C60.1155 174.043 59.772 177.388 56.4164 180.218C54.1158 182.163 51.9948 184.353 49.5355 186.061C47.9397 187.172 45.9329 187.89 44.0072 188.3C40.4893 189.049 37.3148 187.467 35.599 184.296C34.8592 182.934 34.2854 181.418 33.9508 179.906C30.2292 162.945 26.5312 145.983 22.9289 129.001C22.3567 126.312 22.074 123.511 22.0515 120.761C22.0044 114.866 25.8342 112.014 31.4114 113.896C34.2418 114.853 36.9787 116.264 39.5369 117.829C45.9727 121.771 52.2771 125.923 58.6479 129.974C59.3563 130.429 60.1375 130.773 61.3549 131.411C61.0847 128.092 60.882 125.235 60.6134 122.388C59.9123 114.937 59.0489 107.5 58.5279 100.036C58.2939 96.7344 58.704 93.3841 58.8851 90.0604C58.9291 89.253 59.1626 88.442 59.4139 87.6708C60.6663 83.834 63.7439 82.2868 67.4204 83.9141C69.5278 84.8487 71.5472 86.1011 73.3766 87.5069C83.7099 95.4249 93.9825 103.43 104.258 111.423C106.344 113.046 108.367 114.743 110.434 116.392C110.901 116.767 111.418 117.079 112.365 117.728C112.035 116.415 111.916 115.616 111.634 114.876C109.222 108.598 106.771 102.334 104.346 96.0548C103.262 93.2432 102.16 90.43 101.185 87.5734C100.824 86.5236 100.651 85.356 100.669 84.2455C100.709 81.6522 102.477 79.814 105.064 79.7653C106.484 79.7349 107.952 79.9863 109.332 80.3611C126.64 85.0341 143.958 89.6797 161.216 94.516C165.496 95.7155 169.712 97.3114 173.74 99.19C179.414 101.834 183.311 106.26 184.987 112.42C186.419 117.696 187.795 122.995 189.166 128.29C189.368 129.079 189.483 129.899 189.527 130.715C189.615 132.354 189.051 133.721 187.455 134.392C185.864 135.061 184.445 134.564 183.369 133.32C181.935 131.653 180.507 129.961 179.277 128.144C177.35 125.31 174.829 123.176 171.852 121.611C160.885 115.831 148.955 114.315 136.796 113.848C135.086 113.782 134.275 114.557 133.913 116.14C132.767 121.166 131.595 126.187 130.391 131.203C129.786 133.707 129.214 136.229 128.412 138.671C127.908 140.206 127.168 141.714 126.265 143.054C124.012 146.396 121.19 147.154 117.606 145.337C111.716 142.349 105.879 139.258 100.047 136.155C94.8266 133.378 89.651 130.521 84.4498 127.712C83.854 127.391 83.2099 127.166 82.2455 126.751L82.2471 126.752Z" fill="#3EAD53"/>
<path d="M155.437 407.849C156.3 422.291 155.627 435.266 152.223 447.971C151.302 451.405 150.041 454.818 148.462 458.004C144.979 465.018 138.888 468.435 131.317 469.448C121.857 470.718 112.401 470.066 103.17 468.063C84.1204 463.928 65.1769 459.299 46.1805 454.91C39.9735 453.476 36.2885 449.526 34.4764 443.579C32.6905 437.721 32.1481 431.685 32.5842 425.651C33.1266 418.134 34.0393 410.631 35.0749 403.163C35.7587 398.233 39.1144 396.461 43.7517 398.402C49.6906 400.883 54.7112 404.763 59.3448 409.179C64.6262 414.215 68.9247 420.029 72.4913 426.351C74.1134 429.22 76.3841 430.879 79.4696 431.592C84.8043 432.818 90.1427 434.013 95.4811 435.203C104.444 437.204 113.397 439.259 122.378 441.164C126.862 442.116 127.404 441.962 128.498 437.461C130.469 429.339 132.01 421.118 133.699 412.936C134.947 406.9 136.177 400.861 137.354 394.812C138.474 389.037 142.349 386.392 147.768 385.391C151.897 384.629 155.513 387.807 155.455 392.044C155.385 397.767 155.437 403.489 155.437 407.849Z" fill="#F9A549"/>
<path d="M102.724 320.556C110.399 320.556 118.074 320.538 125.75 320.561C130.397 320.574 134.669 325.467 134.166 330.153C133.937 332.273 132.425 333.821 129.81 334.173C127.39 334.504 124.925 334.658 122.479 334.689C109.332 334.87 96.1816 334.976 83.0356 335.125C79.5664 335.166 79.2402 335.347 78.8517 338.767C78.0317 346.055 77.1459 344.657 83.7053 345.649C97.1392 347.672 110.642 349.22 124.083 351.222C132.416 352.465 140.69 354.118 148.965 355.7C152.849 356.442 154.45 358.527 153.776 362.441C153.109 366.33 152.047 370.174 150.839 373.934C149.914 376.814 147.51 378.268 144.539 378.118C140.778 377.929 136.996 377.602 133.297 376.923C115.232 373.625 97.1832 370.217 79.1481 366.767C76.5029 366.26 73.9458 365.294 71.3452 364.553C67.0686 363.337 64.1983 360.648 63.0124 356.345C60.3003 346.527 57.3871 336.753 55.0541 326.847C51.6163 312.255 49.2618 297.465 48.5743 282.458C48.4372 279.451 48.5472 276.422 48.7456 273.417C49.0372 268.879 51.2152 265.436 55.2128 263.202C56.2013 262.651 57.1752 262.055 58.2071 261.597C75.6114 253.891 93.2988 247.005 112.11 243.509C113.441 243.257 115.12 243.301 116.263 243.914C119.049 245.413 118.833 250.598 116.081 252.154C115.262 252.616 114.389 252.988 113.529 253.38C102.213 258.568 90.8867 263.739 79.5753 268.942C71.6086 272.601 70.3703 274.258 71.1636 283.04C72.0269 292.62 73.4694 302.146 74.6589 311.695C74.9411 313.943 75.3301 316.188 75.4485 318.444C75.55 320.327 76.5108 320.998 78.2041 320.989C82.3519 320.963 86.5012 320.9 90.6532 320.882C94.6748 320.865 98.699 320.879 102.724 320.879L102.724 320.556Z" fill="#FEFEFE"/>
<path d="M237.073 169.556C236.469 177.473 236.094 184.575 235.336 191.637C234.706 197.479 232.678 199.295 226.832 200.173C223.596 200.658 220.356 201.094 217.116 201.535C215.534 201.746 214.85 202.602 214.475 204.198C212.949 210.683 211.279 217.132 209.608 223.587C208.206 229.009 204.578 231.994 199.112 232.791C192.265 233.796 185.406 234.709 178.564 235.728C173.22 236.522 174.028 236.525 174.521 240.842C175.076 245.633 175.95 250.394 176.893 255.129C177.528 258.325 179.467 259.824 183.003 259.974C188.964 260.225 194.897 261.064 200.839 261.676C201.528 261.746 202.206 261.901 202.876 262.074C206.835 263.096 208.087 265.384 206.818 269.277C206.624 269.871 206.408 270.462 206.179 271.049C204.345 275.735 202.74 276.838 197.776 276.467C190.502 275.929 183.233 275.299 175.967 274.659C174.785 274.554 173.625 274.2 172.467 273.914C166.652 272.477 163.187 269.038 162.019 262.929C159.929 251.982 157.65 241.085 157.627 229.869C157.623 228.362 157.512 226.845 157.623 225.346C158.02 220.13 160.22 217.094 165.299 215.863C170.479 214.611 175.812 213.99 181.063 213.015C185.762 212.143 190.435 211.138 195.125 210.242C196.634 209.956 197.234 209.185 197.145 207.637C196.876 202.739 196.731 197.833 196.458 192.934C196.149 187.371 197.806 184.223 203.15 182.584C208.295 181.001 213.677 180.199 218.959 179.061C219.638 178.916 220.4 178.96 220.978 178.642C221.534 178.339 222.27 177.703 222.292 177.184C222.486 172.977 222.53 168.763 222.622 164.554C222.657 163.072 222.005 162.133 220.634 161.476C216.323 159.409 212.104 157.142 207.761 155.145C204.08 153.452 202.18 150.56 202.091 146.712C201.854 136.59 201.802 126.464 201.802 116.337C201.805 113.701 203.193 112.435 205.79 112.219C208.11 112.025 210.437 111.866 212.765 111.854C217.711 111.831 220.176 113.811 220.842 118.687C221.661 124.669 222.297 130.677 222.804 136.691C222.994 138.961 223.906 140.188 226.013 140.941C228.315 141.77 230.528 142.863 232.723 143.957C234.791 144.988 235.946 146.733 236.064 149.071C236.431 156.164 236.765 163.262 237.074 169.557L237.073 169.556Z" fill="#CF3438"/>
<path d="M81.0963 0.666985C88.0442 1.22564 95.0272 1.49948 101.922 2.42935C107.548 3.18645 112.904 5.18863 117.705 8.35994C123.017 11.8716 127.046 16.5104 128.796 22.686C130.766 29.6318 132.362 36.6859 134.069 43.7055C135.66 50.2387 137.195 56.7902 138.729 63.3365C138.94 64.2449 139.169 65.1973 139.134 66.1146C139.028 68.7063 136.886 70.1085 134.519 69.0901C133.209 68.5215 131.891 67.8027 130.824 66.8681C123.929 60.8108 117.056 54.7279 110.263 48.5555C106.356 45.004 102.411 41.4547 98.8314 37.5839C92.4338 30.6643 84.4729 27.4741 75.2852 27.4307C63.912 27.3757 52.5149 27.3778 41.1685 28.0218C28.9346 28.7176 16.7535 30.2721 4.5332 31.2695C3.02635 31.3931 1.51519 31.4606 0.000486934 31.4968L0.000487562 17.1236C21.4949 7.85363 44.0523 3.02991 67.496 1.93144C69.7578 1.82516 72.0185 1.63668 74.2751 1.49269C76.537 1.35028 78.7942 1.21677 81.056 1.07802L81.0963 0.666985Z" fill="#F9A549"/>
<path d="M0.000482983 121.886C3.79956 124.144 7.29604 126.905 10.4935 130.169L11.5209 131.271C20.3426 141.2 20.6462 152.212 12.3182 162.559C8.78147 166.957 4.60743 170.528 0.000480725 173.527L0.000481368 158.815C5.07289 152.818 5.02944 145.03 0.000482244 138.775L0.000482983 121.886ZM0.000480307 183.107C4.00218 184.602 7.84733 186.476 11.4809 188.864C15.4261 191.457 18.0195 195.033 19.4289 199.529C20.6635 203.457 19.9587 206.962 17.4545 210.176C13.4203 215.35 8.0647 218.476 1.82628 220.137C1.21894 220.299 0.610446 220.454 0.000478668 220.602L0.000479152 209.527C1.59739 209.007 3.14993 208.322 4.63427 207.406C9.06949 204.665 9.30825 202.812 5.21178 199.664C3.51592 198.361 1.78012 197.17 0.000479739 196.094L0.000480307 183.107Z" fill="#FEFEFE"/>
<path d="M171.951 349.775C167.348 349.599 163.79 347.774 161.163 344.159C155.657 336.571 150.306 328.87 144.657 321.389C140.951 316.477 136.926 311.8 132.883 307.154C128.925 302.604 123.889 300.382 117.771 301.039C111.334 301.727 104.903 302.471 98.4654 303.133C96.4738 303.336 94.4313 303.591 92.4621 303.384C88.1458 302.925 85.9635 299.191 88.1494 295.448C90.2526 291.846 92.9019 288.501 95.6711 285.366C97.9455 282.788 100.762 280.694 103.32 278.365C104.62 277.185 105.82 275.88 107.174 274.769C111.684 271.065 116.783 268.53 122.616 267.913C126.014 267.556 129.052 268.926 131.535 271.29C132.941 272.634 134.277 274.068 135.525 275.562C149.297 292.124 162.395 309.177 173.451 327.714C175.871 331.765 178.419 335.738 180.835 339.789C181.44 340.799 181.934 341.94 182.171 343.083C182.608 345.177 181.581 347.094 179.385 347.858C176.978 348.695 174.433 349.154 171.951 349.775Z" fill="#CF3438"/>
<path d="M22.0436 268.456C24.1902 268.557 26.7872 268.505 29.3318 268.835C35.7587 269.672 39.4346 276.894 36.4947 282.704C36.2136 283.264 35.9261 283.837 35.5387 284.326C31.3061 289.697 30.1951 296.004 30.0239 302.59C29.5255 321.825 31.8568 340.751 36.0936 359.482C36.747 362.353 37.2619 365.284 37.4745 368.216C37.7085 371.474 36.2885 373.224 33.092 373.775C30.0061 374.309 26.862 374.781 23.7457 374.798C18.4471 374.824 15.7616 372.462 14.8003 367.215C13.461 359.919 12.3238 352.579 10.9703 345.282C7.69849 327.702 5.5918 309.971 3.93834 292.178C3.47498 287.218 3.3958 282.246 4.55919 277.347C5.82049 272.044 8.13996 269.849 13.5223 269.112C16.1941 268.747 18.9089 268.69 22.0436 268.456Z" fill="#3EAD53"/>
<path d="M22.1458 43.6605C25.549 44.1867 28.8465 44.5904 32.0906 45.2501C33.3388 45.5035 34.5769 46.1836 35.6356 46.9334C38.3153 48.8329 38.8887 51.4875 37.3855 54.3876C36.5692 55.9489 35.6085 57.4384 34.8462 59.0217C29.6136 69.8886 29.6082 80.5036 36.6493 90.6479C38.2452 92.9537 37.6892 95.0569 36.6531 97.2125C35.7321 99.1209 33.9074 99.0722 32.1079 99.2047C27.7842 99.5267 23.4761 100.02 19.1566 100.356C17.7231 100.465 16.2633 100.378 14.8313 100.246C12.7768 100.061 11.1376 99.0419 9.95532 97.3575C9.30294 96.4365 8.64157 95.493 8.16931 94.4742C5.94254 89.6808 3.12942 85.3058 -3.51828e-06 81.1559L-2.01637e-06 46.7962C7.37091 45.6695 14.7654 44.7024 22.1458 43.6605Z" fill="#FEFEFE"/>
<path d="M188.315 19.2943C194.465 19.1257 200.509 19.8429 206.355 21.7524C215.11 24.6143 221.172 30.1632 223.693 39.2891C226.713 50.212 225.779 60.9029 221.983 71.4174C221.344 73.1808 220.079 74.7677 218.884 76.2625C217.861 77.5448 216.402 77.761 215.093 76.5888C213.471 75.1343 211.976 73.5331 210.371 72.0614C204.33 66.5235 198.305 60.9694 192.199 55.5069C185.966 49.9298 179.644 44.4527 173.356 38.9368C170.822 36.7173 168.061 34.7078 165.827 32.2245C164.575 30.836 163.94 28.7265 163.525 26.8322C163.354 26.0583 164.284 24.5463 165.091 24.1525C167.423 23.0179 169.887 22.0457 172.404 21.4472C175.786 20.6435 179.26 20.1864 182.707 19.699C184.558 19.4377 186.446 19.422 188.315 19.2943Z" fill="#FEFEFE"/>
<path d="M110.205 204.316C110.205 201.861 110.24 199.41 110.197 196.958C110.153 194.556 111.206 192.889 113.317 191.796C128.673 183.839 143.335 174.577 159.165 167.522C161.401 166.526 163.407 165.031 165.62 163.987C167.476 163.109 167.666 161.923 166.696 160.394C164.373 156.738 162.088 153.053 159.58 149.527C157.433 146.507 154.929 143.742 152.694 140.78C150.035 137.258 151.045 133.841 155.119 132.175C159.003 130.583 160.524 130.782 163.271 134.005C169.236 140.983 175.067 148.075 180.922 155.148C181.641 156.016 182.214 157.009 182.786 157.982C184.576 161.037 184.431 164.075 182.183 166.769C180.46 168.831 178.617 170.913 176.461 172.482C167.806 178.755 159.122 185.002 150.23 190.923C143.634 195.313 136.713 199.206 129.902 203.266C128.641 204.016 127.861 204.986 127.887 206.419C127.945 209.43 128.076 212.436 128.235 215.443C128.329 217.203 128.588 218.952 128.681 220.712C128.796 222.973 127.945 224.097 125.807 224.732C123.576 225.393 121.367 226.148 119.115 226.711C115.494 227.62 113.26 226.5 112.461 222.832C111.57 218.732 111.139 214.526 110.68 210.347C110.464 208.359 110.645 206.327 110.645 204.316L110.205 204.316Z" fill="#3EAD53"/>
<path d="M0.000471848 376.617C8.86463 380.244 14.7576 387.478 18.6142 396.258C21.7133 403.316 19.2703 409.364 12.0936 412.221C9.17048 413.39 5.92117 413.915 2.76976 414.298C1.85402 414.408 0.929296 414.453 0.000470194 414.464L0.000471848 376.617Z" fill="#F9A549"/>
<path d="M50.0209 198.767C53.9802 198.767 57.9389 198.828 61.8961 198.749C66.3015 198.664 68.2272 201.243 66.5737 205.295C65.6266 207.623 64.5245 209.889 63.4397 212.155C61.2051 216.846 57.4662 219.296 52.2817 219.566C50.2722 219.671 48.2663 219.853 46.2594 219.914C45.2321 219.941 44.7521 220.311 44.7699 221.359C44.8448 225.884 44.8882 230.411 44.9636 234.935C44.9945 236.764 45.9518 238.024 47.5743 238.756C49.6948 239.713 51.8367 240.617 53.9839 241.503C58.5249 243.372 59.8295 246.78 57.2414 252.003C56.6032 253.3 55.9285 254.578 55.2096 255.83C53.9577 258.026 52.0791 259.186 49.5172 259.246C43.1039 259.393 36.8572 258.343 30.7423 256.522C26.8134 255.35 24.1342 252.766 23.6352 248.564C22.2294 236.649 21.9509 224.728 24.2793 212.887C24.7688 210.382 25.6463 207.905 26.717 205.582C28.7407 201.182 32.1571 198.608 37.2043 198.612C41.4767 198.62 45.748 198.616 50.0204 198.616L50.0209 198.767Z" fill="#3EAD53"/>
<path d="M195.51 89.4651C185.098 89.3379 176.369 87.7729 168.609 82.6853C162.415 78.6255 157.734 73.1096 154.035 66.7576C150.491 60.6741 148.682 54.0876 149.851 47.0706C150.482 43.3123 151.253 39.4645 153.62 36.2184C155.393 33.7916 158.531 33.2356 160.784 35.31C164.134 38.398 167.349 41.6374 170.624 44.8082C175.068 49.1099 179.529 53.3912 183.951 57.7149C186.679 60.383 189.347 63.1161 192.041 65.8177C197.379 71.1703 202.687 76.5532 208.07 81.8607C209.899 83.6675 209.732 86.1284 207.44 87.3096C206.567 87.7645 205.557 88.0331 204.578 88.1829C201.135 88.7164 197.679 89.1614 195.51 89.4651Z" fill="#FEFEFE"/>
<path d="M193.778 306.034C196.877 306.669 199.57 307.193 202.256 307.78C203.543 308.057 204.835 308.366 206.074 308.811C209.305 309.983 210.359 312.205 209.014 315.353C207.56 318.761 205.892 322.086 204.327 325.444C203.961 326.238 203.618 327.04 203.177 328.037C203.878 328.367 204.472 328.667 205.081 328.932C208.079 330.228 211.112 331.458 214.075 332.837C215.314 333.411 216.513 334.178 217.549 335.068C220.52 337.618 220.75 340.495 218.233 343.45C214.182 348.211 209.719 352.522 204.504 356.027C200.065 359.007 197.014 358.553 193.418 353.434C191.702 350.987 192.685 348.647 195.511 347.703L196.221 347.461C199.109 345.089 201.983 342.704 205.246 340.001C203.927 339.45 203.217 339.11 202.477 338.85C199.51 337.819 196.503 336.885 193.559 335.782C188.682 333.952 187.699 331.1 190.406 326.696C191.984 324.127 193.726 321.657 195.326 319.1C195.912 318.165 196.304 317.107 196.936 315.793C195.127 315.52 193.646 315.349 192.187 315.061C189.229 314.489 186.218 314.07 183.348 313.193C178.869 311.822 177.911 308.479 180.782 304.75C182.739 302.211 184.834 299.781 186.861 297.294C187.245 296.828 187.598 296.333 188.18 295.576C183.723 294.884 179.587 294.596 175.377 294.852C173.557 294.962 171.586 294.729 169.898 294.09C168.896 293.71 167.843 292.322 167.627 291.228C166.709 286.53 168.954 283.699 173.751 283.73C181.925 283.786 190.097 284.034 198.263 284.395C202.623 284.585 204.099 287.072 202.781 291.198C201.287 295.876 199.135 300.156 195.697 303.727C195.092 304.352 194.581 305.061 193.779 306.033L193.778 306.034Z" fill="#CF3438"/>
<path d="M93.8935 148.673C102.319 149.395 110.527 151.163 118.639 153.539C124.362 155.215 130.159 156.617 135.942 158.063C139.019 158.834 140.17 161.691 138.274 164.3C136.657 166.532 134.315 167.581 131.644 167.811C126.697 168.241 121.743 168.559 116.791 168.951C115.35 169.061 113.917 169.269 112.48 169.41C107.825 169.855 103.843 171.571 100.361 174.841C93.9648 180.86 86.4835 185.43 79.0592 190.056C78.5304 190.386 77.9617 190.673 77.3795 190.902C75.6475 191.58 73.9192 191.704 72.3982 190.417C70.8589 189.116 70.6525 187.335 71.2211 185.577C72.8866 180.436 74.4438 175.243 76.4936 170.253C78.4906 165.376 80.9414 160.678 83.397 156.004C84.3143 154.258 85.6902 152.702 87.052 151.251C88.8678 149.32 91.2181 148.5 93.8935 148.673Z" fill="#FEFEFE"/>
<path d="M123.335 404.255C122.766 408.54 122.513 412.897 121.566 417.097C119.807 424.869 114.803 428.352 106.859 427.748C102.221 427.399 97.5932 426.92 92.9642 426.482C89.9353 426.201 87.9243 424.534 87.0473 421.694C86.3997 419.605 85.8922 417.441 85.6289 415.268C84.654 407.283 83.7978 399.282 82.9303 391.285C82.8245 390.288 82.8555 389.275 82.8943 388.274C83.0095 385.218 84.5304 382.891 87.4394 382.269C91.3375 381.436 95.3575 381.018 99.3472 380.81C101.622 380.691 103.306 382.569 103.514 385.157C103.721 387.705 103.624 390.307 103.416 392.864C102.989 398 102.424 403.122 101.856 408.244C101.728 409.417 101.988 410.087 103.254 410.122L103.814 410.201C108.795 410.956 109.144 410.758 110.21 405.944C110.725 403.628 110.814 401.195 111.51 398.947C112.282 396.465 113.349 394.027 114.662 391.796C115.104 391.042 116.736 390.579 117.761 390.671C119.887 390.861 122.179 393.568 122.444 395.729C122.58 396.852 122.704 397.981 122.735 399.11C122.784 400.807 122.748 402.504 122.748 404.201L123.335 404.255Z" fill="#FEFEFE"/>
<path d="M167.185 380.449C166.89 375.441 166.607 370.433 166.295 365.426C166.238 364.486 166.004 363.556 165.964 362.618C165.802 358.861 168.274 356.939 171.673 358.455C184.934 364.385 198.314 370.112 210.428 378.284C213.832 380.581 214.378 384.056 211.368 386.843C209.568 388.508 207.343 390.034 205.037 390.77C194.412 394.147 183.519 396.47 172.476 398.018C169.434 398.446 167.198 396.793 166.987 393.658C166.696 389.284 166.912 384.876 166.912 380.481L167.185 380.449Z" fill="#FEFEFE"/>
<path d="M0.000469474 430.923C5.7839 431.804 11.5673 432.688 17.3445 433.607C21.9294 434.335 23.4107 436.385 22.6123 440.97C22.1322 443.73 21.4625 446.508 20.4525 449.114C19.4163 451.784 17.4681 452.759 14.6864 452.199C9.78884 451.217 4.89434 450.225 0.000468674 449.228L0.000469474 430.923Z" fill="#CF3438"/>
<path d="M92.1967 65.5492C92.0464 67.1712 92.0066 69.8969 91.5092 72.5321C90.8081 76.2752 88.1886 77.9946 84.4597 77.215C82.2015 76.7385 79.958 75.9977 77.8464 75.0678C69.276 71.2938 60.7412 67.4497 52.2419 63.5313C48.4052 61.7632 47.9518 58.3814 51.1525 55.6222C52.6169 54.365 54.2425 53.1927 55.9797 52.3728C63.4355 48.8586 71.062 45.758 79.1858 44.1249C81.1968 43.7197 83.3 43.6123 85.3582 43.6401C88.9248 43.6851 90.8117 45.5072 91.0856 49.0576C91.4819 54.1886 91.7815 59.3333 92.1967 65.5492Z" fill="#FEFEFE"/>
<path d="M0.000477971 236.542C3.3498 236.542 6.69908 236.544 10.0474 236.551C10.8636 236.551 11.6836 236.622 12.491 236.732C14.8313 237.049 16.0397 238.16 16.2821 240.466C16.5685 243.279 16.7974 246.105 16.8634 248.927C16.9383 252.242 15.1748 253.992 11.8197 253.807C7.87925 253.591 3.93882 253.367 0.000477245 253.136L0.000477971 236.542Z" fill="#F9A549"/>
<path d="M51.2283 363.239C51.5283 363.279 52.2429 363.279 52.89 363.486C58.8776 365.391 64.8591 367.304 70.8205 369.292C71.874 369.64 72.8698 370.257 73.796 370.897C75.6343 372.166 76.4192 373.974 75.793 376.152C74.783 379.656 73.7819 383.17 72.5211 386.586C71.1504 390.317 69.1231 391.137 65.2779 390.091C60.9715 388.923 56.6027 387.971 52.3266 386.696C49.5135 385.854 46.7354 384.774 44.0908 383.492C41.4855 382.222 40.6484 380.304 41.529 377.531C42.7291 373.779 44.1401 370.077 45.7046 366.462C46.6083 364.376 48.4423 363.225 51.2283 363.239Z" fill="#F9A549"/>
<path d="M170.514 454.451C171.845 455.773 173.01 456.823 174.045 457.982C178.295 462.743 177.039 467.971 170.99 469.863C167.652 470.908 164.143 471.476 160.674 472.001C158.046 472.398 156.702 470.92 156.164 468.342C155.533 465.336 156.037 462.523 156.671 459.613C157.694 454.948 158.426 450.218 159.382 445.541C159.818 443.402 160.441 441.29 161.088 439.206C161.622 437.487 163.35 436.384 165.317 436.878C170.665 438.218 174.989 441.123 177.523 446.14C178.75 448.57 177.665 451.13 175.108 452.498C173.741 453.23 172.246 453.724 170.514 454.451Z" fill="#F9A549"/>
<path d="M200.457 418.208C199.901 425.928 199.35 434.33 198.666 442.724C198.279 447.454 196.026 449.094 191.313 448.381C190.814 448.306 190.316 448.217 189.827 448.107C185.034 447.005 183.654 444.978 184.448 440.123C185.957 430.879 187.486 421.638 189.007 412.398C189.311 410.539 189.571 408.669 189.924 406.817C190.448 404.088 191.555 402.95 193.834 402.664C196.325 402.347 197.731 403.241 198.953 405.851C200.699 409.586 200.518 413.558 200.457 418.208Z" fill="#3EAD53"/>
<path d="M101.499 227.118C101.075 229.141 100.798 231.213 100.193 233.184C99.1183 236.68 96.8257 238.289 93.2062 237.83C90.1019 237.437 86.9819 236.825 84.0017 235.886C79.2701 234.387 74.6119 232.624 70.0044 230.777C68.6771 230.243 67.3549 229.238 66.4989 228.1C65.0318 226.134 65.9126 224.019 67.5399 222.255C70.1054 219.468 73.0285 219.623 76.3265 220.033C83.1288 220.883 89.9616 221.5 96.7859 222.18C100.317 222.536 101.384 223.656 101.499 227.118Z" fill="#CF3438"/>
<path d="M244.189 87.8253C243.06 92.9757 242.126 98.2649 239.546 103.017C238.1 105.676 234.989 106.579 232.563 104.798C228.577 101.872 224.658 98.7722 221.172 95.2852C218.232 92.3443 219.254 88.6677 223.115 87.142C228.018 85.1985 233 83.443 237.995 81.746C240.645 80.8471 242.729 82.0858 243.514 84.7702C243.796 85.731 243.951 86.7284 244.189 87.8253Z" fill="#CF3438"/>
<path d="M139.085 260.626C138.649 260.626 138.208 260.622 137.772 260.626C132.936 260.657 131.018 258.55 131.579 253.709C131.781 251.968 132.001 250.205 132.491 248.534C133.38 245.473 135.492 244.151 138.632 244.549C141.933 244.962 145.223 245.452 148.506 245.972C150.61 246.307 151.919 247.462 151.949 249.591C151.994 252.392 151.782 255.229 151.323 257.994C150.979 260.062 149.282 261.16 146.968 261.098C144.34 261.032 141.717 260.723 139.093 260.521L139.085 260.626Z" fill="#CF3438"/>
<path d="M176.002 427.232C174.531 426.929 171.669 426.471 168.895 425.712C165.876 424.887 164.253 422.489 165.158 419.522C166.427 415.329 168.058 411.22 169.91 407.25C171.097 404.705 175.491 404.714 177.529 407.377C180.856 411.719 183.18 416.616 183.268 422.243C183.321 425.625 181.142 427.374 176.002 427.232Z" fill="#F9A549"/>
<path d="M147.025 8.20022C152.554 8.18294 157.213 12.0868 157.213 16.733C157.209 21.9321 152.103 26.749 146.628 26.7191C141.444 26.6914 137.348 22.5311 137.339 17.288C137.336 11.9218 141.281 8.21907 147.025 8.20022Z" fill="#3EAD53"/>
<path d="M211.998 247.854C212.104 246.541 212.108 245.214 212.341 243.923C212.787 241.428 214.471 240.025 216.993 240.233C219.174 240.414 221.358 240.788 223.487 241.3C225.652 241.814 227.698 245.082 227.693 247.635C227.684 250.65 226.198 252.991 223.575 253.714C221.587 254.266 219.537 254.658 217.486 254.926C214.078 255.371 212.285 253.784 212.09 250.31C212.047 249.495 212.086 248.675 212.086 247.86L211.998 247.854Z" fill="#FEFEFE"/>
<path d="M177.691 188.437C180.46 188.411 182.02 189.412 182.854 191.267C184.216 194.291 185.565 197.351 186.575 200.503C186.905 201.535 186.455 203.118 185.816 204.082C185.005 205.3 183.502 205.154 182.215 204.533C179.292 203.118 176.342 201.746 173.495 200.19C172.37 199.577 171.36 198.629 170.536 197.633C169.398 196.266 169.152 194.542 170.258 193.091C172.277 190.456 175.099 189.028 177.691 188.437Z" fill="#FEFEFE"/>
</svg>
