<svg width="472" height="245" viewBox="0 0 472 245" fill="none" xmlns="http://www.w3.org/2000/svg">
<path d="M345.709 82.8519C342.194 82.2382 339.033 81.7582 335.904 81.1236C332.395 80.4089 328.863 79.7262 325.429 78.7204C321.223 77.4858 319.777 75.4537 320.011 71.0535C320.276 66.0372 320.853 61.0376 321.307 56.0301C321.369 55.3641 321.488 54.7028 321.615 53.763C320.778 53.9306 320.178 54.0054 319.606 54.1745C313.878 55.8714 308.099 57.4223 302.448 59.3496C298.418 60.7203 295.072 60.3768 292.242 57.0212C290.298 54.7206 288.107 52.5996 286.4 50.1403C285.289 48.5445 284.57 46.5377 284.16 44.612C283.412 41.0941 284.994 37.9196 288.164 36.2038C289.527 35.464 291.042 34.8902 292.554 34.5556C309.515 30.834 326.478 27.136 343.459 23.5338C346.149 22.9615 348.95 22.6788 351.7 22.6563C357.595 22.6092 360.447 26.439 358.564 32.0162C357.607 34.8466 356.196 37.5835 354.632 40.1417C350.69 46.5775 346.537 52.8819 342.486 59.2528C342.031 59.9612 341.688 60.7424 341.049 61.9597C344.368 61.6895 347.225 61.4868 350.073 61.2182C357.524 60.5171 364.96 59.6537 372.425 59.1328C375.726 58.8987 379.077 59.3088 382.4 59.4899C383.208 59.5339 384.019 59.7674 384.79 60.0187C388.627 61.2711 390.174 64.3487 388.547 68.0252C387.612 70.1326 386.36 72.152 384.954 73.9814C377.036 84.3147 369.031 94.5873 361.037 104.863C359.414 106.948 357.717 108.972 356.069 111.039C355.694 111.506 355.382 112.022 354.733 112.97C356.046 112.64 356.845 112.521 357.585 112.239C363.863 109.827 370.127 107.376 376.406 104.951C379.217 103.867 382.031 102.765 384.887 101.79C385.937 101.429 387.105 101.256 388.215 101.274C390.808 101.314 392.647 103.082 392.695 105.669C392.726 107.089 392.474 108.557 392.1 109.937C387.427 127.244 382.781 144.562 377.945 161.821C376.745 166.101 375.149 170.316 373.271 174.345C370.627 180.018 366.2 183.916 360.041 185.592C354.765 187.024 349.465 188.4 344.17 189.77C343.382 189.973 342.562 190.088 341.746 190.132C340.106 190.22 338.739 189.656 338.069 188.06C337.399 186.469 337.897 185.049 339.14 183.973C340.807 182.54 342.5 181.112 344.316 179.882C347.151 177.955 349.285 175.434 350.85 172.457C356.63 161.489 358.146 149.56 358.613 137.401C358.679 135.691 357.903 134.88 356.321 134.518C351.295 133.372 346.274 132.2 341.258 130.996C338.753 130.391 336.231 129.819 333.79 129.017C332.255 128.513 330.747 127.773 329.407 126.87C326.065 124.617 325.307 121.795 327.124 118.211C330.112 112.321 333.202 106.484 336.306 100.651C339.083 95.4314 341.939 90.2558 344.749 85.0546C345.07 84.4588 345.295 83.8147 345.71 82.8503L345.709 82.8519Z" fill="#3EAD53"/>
<path d="M64.6117 156.042C50.1693 156.905 37.1952 156.232 24.49 152.827C21.0559 151.906 17.6427 150.646 14.4567 149.067C7.44233 145.584 4.026 139.492 3.01235 131.922C1.74268 122.462 2.39511 113.006 4.39727 103.775C8.53247 84.7253 13.1613 65.7818 17.551 46.7854C18.9845 40.5784 22.9345 36.8934 28.8812 35.0813C34.7401 33.2954 40.7753 32.7529 46.81 33.1891C54.327 33.7315 61.8298 34.6441 69.2976 35.6798C74.2276 36.3636 76 39.7192 74.0591 44.3565C71.5773 50.2955 67.6981 55.316 63.2812 59.9497C58.246 65.231 52.4317 69.5296 46.1095 73.0962C43.2403 74.7182 41.5821 76.989 40.8684 80.0744C39.6422 85.4092 38.448 90.7475 37.258 96.0859C35.2563 105.049 33.2018 114.002 31.297 122.983C30.3447 127.466 30.4985 128.009 34.9997 129.103C43.1214 131.073 51.3426 132.615 59.5245 134.304C65.5603 135.552 71.5998 136.782 77.6482 137.959C83.4232 139.079 86.0688 142.954 87.0694 148.372C87.8317 152.502 84.6537 156.118 80.4169 156.06C74.6937 155.99 68.9715 156.042 64.6117 156.042Z" fill="#F9A549"/>
<path d="M151.905 103.329C151.905 111.004 151.922 118.679 151.9 126.355C151.887 131.002 146.994 135.274 142.308 134.77C140.187 134.542 138.64 133.03 138.288 130.415C137.956 127.995 137.802 125.53 137.772 123.084C137.59 109.937 137.485 96.7864 137.335 83.6405C137.295 80.1713 137.114 79.845 133.694 79.4565C126.405 78.6366 127.804 77.7508 126.812 84.3101C124.788 97.7441 123.24 111.247 121.239 124.688C119.996 133.021 118.343 141.295 116.76 149.57C116.019 153.454 113.934 155.055 110.019 154.38C106.13 153.714 102.287 152.652 98.5268 151.444C95.6471 150.519 94.1926 148.115 94.3424 145.143C94.5314 141.383 94.8587 137.601 95.5372 133.902C98.8352 115.837 102.243 97.788 105.694 79.7529C106.2 77.1078 107.166 74.5507 107.908 71.95C109.123 67.6735 111.813 64.8032 116.115 63.6173C125.934 60.9052 135.708 57.992 145.614 55.6589C160.206 52.2211 174.995 49.8666 190.003 49.1792C193.009 49.042 196.039 49.152 199.044 49.3504C203.582 49.6421 207.025 51.8201 209.259 55.8176C209.81 56.8061 210.406 57.78 210.863 58.812C218.57 76.2162 225.456 93.9037 228.952 112.715C229.203 114.046 229.16 115.725 228.546 116.868C227.048 119.654 221.863 119.438 220.307 116.686C219.844 115.867 219.473 114.994 219.081 114.134C213.892 102.817 208.721 91.4915 203.519 80.1801C199.86 72.2134 198.203 70.9752 189.42 71.7684C179.841 72.6318 170.314 74.0742 160.766 75.2638C158.518 75.546 156.273 75.935 154.017 76.0533C152.133 76.1549 151.463 77.1157 151.472 78.8089C151.498 82.9567 151.561 87.1061 151.578 91.258C151.596 95.2796 151.582 99.3038 151.582 103.329L151.905 103.329Z" fill="#FEFEFE"/>
<path d="M302.905 237.678C294.988 237.074 287.885 236.699 280.823 235.941C274.981 235.311 273.165 233.282 272.288 227.437C271.803 224.201 271.367 220.96 270.926 217.721C270.715 216.138 269.859 215.455 268.263 215.08C261.778 213.554 255.329 211.883 248.874 210.213C243.452 208.81 240.466 205.183 239.67 199.717C238.665 192.87 237.751 186.011 236.733 179.169C235.939 173.825 235.935 174.632 231.619 175.126C226.828 175.681 222.067 176.554 217.332 177.498C214.135 178.133 212.637 180.072 212.487 183.608C212.236 189.569 211.397 195.502 210.784 201.444C210.715 202.133 210.56 202.811 210.387 203.481C209.365 207.44 207.077 208.692 203.184 207.422C202.589 207.229 201.998 207.012 201.412 206.784C196.726 204.95 195.623 203.345 195.993 198.381C196.532 191.107 197.162 183.838 197.802 176.572C197.906 175.389 198.26 174.23 198.546 173.072C199.984 167.257 203.423 163.792 209.532 162.624C220.479 160.534 231.376 158.254 242.592 158.232C244.099 158.228 245.616 158.117 247.114 158.228C252.33 158.625 255.367 160.825 256.597 165.904C257.85 171.084 258.471 176.417 259.446 181.668C260.318 186.367 261.323 191.04 262.219 195.73C262.505 197.239 263.276 197.839 264.823 197.75C269.722 197.481 274.628 197.336 279.526 197.062C285.09 196.754 288.238 198.411 289.877 203.755C291.459 208.9 292.261 214.282 293.4 219.564C293.545 220.243 293.501 221.005 293.818 221.583C294.122 222.139 294.757 222.875 295.277 222.897C299.484 223.09 303.697 223.134 307.907 223.227C309.389 223.262 310.328 222.61 310.985 221.239C313.052 216.927 315.319 212.708 317.316 208.366C319.008 204.685 321.901 202.785 325.749 202.696C335.871 202.459 345.997 202.407 356.124 202.407C358.76 202.41 360.026 203.798 360.242 206.395C360.436 208.715 360.594 211.042 360.607 213.37C360.629 218.316 358.65 220.78 353.774 221.446C347.791 222.266 341.783 222.901 335.77 223.409C333.499 223.599 332.273 224.511 331.52 226.618C330.691 228.92 329.598 231.133 328.504 233.327C327.473 235.396 325.727 236.551 323.39 236.669C316.297 237.035 309.199 237.37 302.904 237.679L302.905 237.678Z" fill="#CF3438"/>
<path d="M471.794 81.7011C471.235 88.649 470.961 95.632 470.031 102.526C469.274 108.153 467.272 113.508 464.101 118.31C460.589 123.622 455.95 127.651 449.775 129.401C442.829 131.371 435.775 132.967 428.755 134.674C422.222 136.265 415.67 137.799 409.124 139.334C408.216 139.545 407.263 139.774 406.346 139.739C403.754 139.633 402.352 137.49 403.371 135.124C403.939 133.814 404.658 132.495 405.593 131.428C411.65 124.534 417.733 117.661 423.905 110.867C427.457 106.961 431.006 103.016 434.877 99.4362C441.796 93.0386 444.987 85.0777 445.03 75.89C445.085 64.5168 445.083 53.1197 444.439 41.7733C443.743 29.5394 442.189 17.3583 441.191 5.138C441.068 3.63115 441 2.12 440.964 0.605288L455.337 0.605287C464.607 22.0997 469.431 44.6571 470.529 68.1008C470.636 70.3626 470.824 72.6233 470.968 74.8799C471.11 77.1418 471.244 79.399 471.383 81.6608L471.794 81.7011Z" fill="#F9A549"/>
<path d="M350.575 0.605296C348.316 4.40437 345.556 7.90086 342.292 11.0983L341.19 12.1257C331.261 20.9474 320.249 21.2511 309.902 12.923C305.504 9.38629 301.933 5.21225 298.934 0.605301L313.646 0.605299C319.642 5.67771 327.431 5.63425 333.686 0.605298L350.575 0.605296ZM289.354 0.605302C287.859 4.607 285.985 8.45215 283.597 12.0858C281.003 16.0309 277.428 18.6243 272.932 20.0338C269.004 21.2684 265.499 20.5636 262.285 18.0593C257.11 14.0251 253.985 8.66953 252.323 2.43111C252.162 1.82376 252.007 1.21527 251.858 0.605305L262.934 0.605304C263.454 2.20221 264.138 3.75475 265.055 5.23909C267.796 9.67431 269.648 9.91307 272.796 5.81661C274.1 4.12074 275.291 2.38494 276.367 0.605303L289.354 0.605302Z" fill="#FEFEFE"/>
<path d="M122.686 172.556C122.862 167.953 124.686 164.395 128.302 161.768C135.89 156.262 143.591 150.911 151.072 145.262C155.983 141.556 160.66 137.531 165.307 133.488C169.857 129.529 172.079 124.494 171.421 118.376C170.734 111.939 169.989 105.508 169.328 99.0703C169.124 97.0786 168.869 95.0362 169.077 93.067C169.535 88.7506 173.27 86.5683 177.013 88.7542C180.614 90.8574 183.959 93.5068 187.095 96.276C189.673 98.5504 191.767 101.367 194.095 103.924C195.276 105.225 196.581 106.425 197.692 107.778C201.396 112.288 203.93 117.388 204.548 123.221C204.905 126.619 203.534 129.657 201.171 132.139C199.826 133.546 198.393 134.882 196.899 136.129C180.337 149.902 163.284 163 144.747 174.055C140.695 176.476 136.722 179.024 132.671 181.44C131.661 182.045 130.521 182.538 129.378 182.776C127.284 183.213 125.367 182.186 124.603 179.99C123.766 177.583 123.307 175.038 122.686 172.556Z" fill="#CF3438"/>
<path d="M204.005 22.6484C203.904 24.7951 203.956 27.392 203.626 29.9366C202.789 36.3635 195.567 40.0395 189.756 37.0996C189.196 36.8184 188.624 36.531 188.134 36.1435C182.764 31.9109 176.457 30.8 169.871 30.6287C150.636 30.1303 131.71 32.4617 112.979 36.6985C110.108 37.3519 107.176 37.8667 104.244 38.0793C100.987 38.3134 99.2369 36.8933 98.686 33.6969C98.152 30.6109 97.6797 27.4669 97.6624 24.3506C97.6362 19.052 99.9991 16.3664 105.245 15.4051C112.541 14.0658 119.881 12.9286 127.179 11.5752C144.759 8.30333 162.49 6.19663 180.282 4.54318C185.243 4.07981 190.215 4.00064 195.113 5.16403C200.417 6.42532 202.611 8.74479 203.348 14.1272C203.713 16.799 203.771 19.5137 204.005 22.6484Z" fill="#3EAD53"/>
<path d="M428.8 22.7506C428.274 26.1538 427.87 29.4513 427.211 32.6954C426.957 33.9436 426.277 35.1817 425.527 36.2404C423.628 38.9201 420.973 39.4935 418.073 37.9903C416.512 37.174 415.022 36.2133 413.439 35.451C402.572 30.2184 391.957 30.213 381.813 37.2541C379.507 38.85 377.404 38.294 375.248 37.2579C373.34 36.3369 373.388 34.5122 373.256 32.7127C372.934 28.389 372.44 24.0809 372.105 19.7614C371.995 18.3279 372.083 16.8681 372.215 15.4361C372.4 13.3816 373.419 11.7424 375.103 10.5601C376.024 9.90775 376.968 9.24638 377.986 8.77412C382.78 6.54734 387.155 3.73422 391.305 0.604804L425.664 0.604801C426.791 7.97572 427.758 15.3702 428.8 22.7506Z" fill="#FEFEFE"/>
<path d="M453.166 188.92C453.335 195.07 452.618 201.114 450.708 206.96C447.846 215.715 442.298 221.777 433.172 224.298C422.249 227.318 411.558 226.384 401.043 222.588C399.28 221.948 397.693 220.684 396.198 219.489C394.916 218.466 394.7 217.007 395.872 215.698C397.326 214.075 398.928 212.581 400.399 210.976C405.937 204.935 411.491 198.909 416.954 192.804C422.531 186.57 428.008 180.249 433.524 173.961C435.743 171.427 437.753 168.666 440.236 166.432C441.625 165.18 443.734 164.545 445.628 164.13C446.402 163.959 447.914 164.889 448.308 165.696C449.443 168.028 450.415 170.492 451.013 173.009C451.817 176.39 452.274 179.865 452.762 183.312C453.023 185.163 453.039 187.051 453.166 188.92Z" fill="#FEFEFE"/>
<path d="M268.144 110.81C270.6 110.81 273.051 110.845 275.503 110.801C277.905 110.757 279.572 111.811 280.665 113.922C288.622 129.277 297.884 143.94 304.939 159.77C305.935 162.006 307.429 164.011 308.474 166.225C309.351 168.081 310.537 168.271 312.067 167.301C315.722 164.978 319.408 162.693 322.933 160.185C325.954 158.038 328.719 155.534 331.68 153.299C335.203 150.64 338.62 151.65 340.286 155.724C341.878 159.608 341.679 161.129 338.456 163.875C331.478 169.84 324.385 175.672 317.313 181.527C316.445 182.246 315.452 182.819 314.479 183.391C311.423 185.181 308.385 185.036 305.692 182.788C303.629 181.064 301.548 179.221 299.979 177.065C293.705 168.411 287.459 159.727 281.537 150.835C277.147 144.239 273.254 137.317 269.195 130.507C268.445 129.246 267.475 128.466 266.042 128.492C263.031 128.55 260.025 128.681 257.018 128.84C255.258 128.933 253.509 129.193 251.749 129.286C249.487 129.401 248.364 128.55 247.729 126.411C247.068 124.181 246.313 121.971 245.749 119.72C244.841 116.099 245.96 113.864 249.629 113.066C253.729 112.175 257.935 111.744 262.113 111.285C264.102 111.069 266.134 111.25 268.144 111.25L268.144 110.81Z" fill="#3EAD53"/>
<path d="M95.8435 0.605319C92.2167 9.46947 84.983 15.3624 76.2026 19.2191C69.1443 22.3181 63.0964 19.8751 60.2392 12.6985C59.0711 9.77533 58.546 6.52602 58.1622 3.37461C58.0523 2.45887 58.0073 1.53415 57.9963 0.605322L95.8435 0.605319Z" fill="#F9A549"/>
<path d="M273.694 50.6257C273.694 54.585 273.633 58.5437 273.712 62.5009C273.797 66.9063 271.218 68.832 267.166 67.1785C264.838 66.2314 262.572 65.1294 260.305 64.0445C255.615 61.8099 253.164 58.071 252.895 52.8866C252.789 50.8771 252.608 48.8711 252.547 46.8642C252.52 45.837 252.15 45.3569 251.101 45.3747C246.577 45.4496 242.05 45.493 237.526 45.5684C235.697 45.5993 234.437 46.5566 233.704 48.1792C232.747 50.2996 231.844 52.4415 230.958 54.5887C229.089 59.1297 225.681 60.4343 220.457 57.8463C219.161 57.208 217.883 56.5333 216.631 55.8144C214.435 54.5625 213.275 52.6839 213.214 50.122C213.068 43.7087 214.117 37.462 215.938 31.3471C217.111 27.4182 219.695 24.739 223.896 24.2401C235.812 22.8343 247.733 22.5558 259.574 24.8841C262.079 25.3737 264.555 26.2511 266.878 27.3219C271.279 29.3455 273.853 32.7619 273.849 37.8092C273.841 42.0815 273.844 46.3528 273.844 50.6252L273.694 50.6257Z" fill="#3EAD53"/>
<path d="M382.996 196.115C383.123 185.703 384.688 176.974 389.775 169.214C393.835 163.019 399.351 158.339 405.703 154.64C411.787 151.095 418.373 149.287 425.39 150.456C429.148 151.086 432.996 151.858 436.242 154.225C438.669 155.998 439.225 159.136 437.151 161.389C434.063 164.739 430.823 167.954 427.652 171.229C423.351 175.673 419.07 180.134 414.746 184.556C412.078 187.284 409.345 189.952 406.643 192.645C401.29 197.984 395.908 203.292 390.6 208.675C388.793 210.504 386.332 210.337 385.151 208.045C384.696 207.172 384.428 206.161 384.278 205.183C383.744 201.74 383.299 198.284 382.996 196.115Z" fill="#FEFEFE"/>
<path d="M166.426 194.383C165.791 197.482 165.268 200.175 164.681 202.861C164.403 204.148 164.094 205.44 163.649 206.678C162.478 209.91 160.256 210.963 157.107 209.619C153.699 208.164 150.375 206.497 147.017 204.932C146.223 204.566 145.421 204.223 144.424 203.781C144.094 204.483 143.794 205.077 143.529 205.686C142.233 208.684 141.003 211.717 139.623 214.68C139.05 215.919 138.283 217.118 137.393 218.154C134.843 221.125 131.966 221.355 129.011 218.838C124.25 214.786 119.938 210.324 116.434 205.109C113.454 200.67 113.908 197.618 119.026 194.023C121.474 192.307 123.814 193.29 124.757 196.116L125 196.826C127.372 199.714 129.757 202.588 132.459 205.851C133.011 204.532 133.35 203.822 133.611 203.081C134.642 200.115 135.576 197.108 136.678 194.164C138.508 189.287 141.361 188.304 145.765 191.011C148.334 192.589 150.804 194.331 153.361 195.931C154.296 196.517 155.354 196.909 156.667 197.54C156.941 195.732 157.112 194.251 157.399 192.792C157.972 189.833 158.391 186.823 159.268 183.953C160.639 179.473 163.982 178.516 167.711 181.387C170.25 183.344 172.679 185.438 175.166 187.466C175.632 187.85 176.128 188.202 176.885 188.785C177.577 184.327 177.864 180.192 177.608 175.982C177.498 174.162 177.732 172.191 178.371 170.502C178.751 169.501 180.139 168.448 181.233 168.232C185.931 167.314 188.762 169.559 188.731 174.355C188.674 182.529 188.427 190.702 188.066 198.868C187.876 203.227 185.389 204.703 181.262 203.386C176.585 201.892 172.305 199.74 168.734 196.302C168.109 195.697 167.399 195.186 166.428 194.384L166.426 194.383Z" fill="#CF3438"/>
<path d="M323.788 94.4984C323.065 102.924 321.297 111.131 318.922 119.244C317.246 124.967 315.844 130.763 314.398 136.547C313.627 139.624 310.77 140.775 308.161 138.879C305.929 137.262 304.88 134.92 304.65 132.248C304.219 127.302 303.901 122.348 303.509 117.396C303.399 115.955 303.192 114.522 303.051 113.085C302.606 108.43 300.89 104.448 297.62 100.966C291.601 94.5696 287.03 87.0883 282.405 79.664C282.075 79.1352 281.788 78.5665 281.559 77.9843C280.88 76.2523 280.757 74.524 282.044 73.003C283.345 71.4637 285.125 71.2573 286.884 71.8259C292.025 73.4914 297.218 75.0487 302.208 77.0985C307.085 79.0954 311.783 81.5462 316.457 84.0018C318.202 84.9191 319.758 86.295 321.209 87.6568C323.14 89.4726 323.96 91.8229 323.788 94.4984Z" fill="#FEFEFE"/>
<path d="M68.2055 123.94C63.9205 123.371 59.5639 123.118 55.3632 122.171C47.5913 120.412 44.109 115.408 44.7126 107.464C45.0613 102.826 45.5409 98.198 45.9786 93.5691C46.2598 90.5402 47.9268 88.5292 50.7662 87.6522C52.8553 87.0045 55.0197 86.4971 57.1931 86.2337C65.1776 85.2588 73.179 84.4027 81.1756 83.5351C82.173 83.4294 83.1861 83.4604 84.1872 83.4991C87.2427 83.6143 89.5695 85.1353 90.192 88.0443C91.0245 91.9423 91.4429 95.9623 91.6502 99.952C91.7701 102.226 89.892 103.911 87.304 104.119C84.7557 104.326 82.1541 104.228 79.597 104.021C74.4607 103.594 69.3391 103.029 64.2164 102.46C63.0441 102.333 62.3733 102.593 62.3382 103.859L62.2592 104.419C61.5047 109.4 61.7032 109.749 66.5169 110.815C68.8327 111.33 71.2658 111.419 73.5141 112.115C75.9958 112.886 78.4341 113.953 80.6651 115.267C81.4185 115.708 81.8818 117.34 81.7896 118.366C81.5996 120.492 78.8927 122.784 76.7319 123.049C75.6089 123.185 74.48 123.309 73.3506 123.34C71.6532 123.389 69.9563 123.353 68.2594 123.353L68.2055 123.94Z" fill="#FEFEFE"/>
<path d="M92.012 167.79C97.0195 167.494 102.027 167.212 107.035 166.9C107.975 166.843 108.905 166.608 109.843 166.569C113.6 166.406 115.522 168.879 114.006 172.278C108.076 185.538 102.349 198.919 94.1764 211.033C91.8795 214.437 88.4051 214.983 85.6181 211.973C83.9526 210.173 82.4269 207.947 81.6908 205.642C78.3137 195.017 75.9905 184.124 74.4423 173.081C74.015 170.039 75.6681 167.803 78.8027 167.592C83.1767 167.301 87.5852 167.517 91.9801 167.517L92.012 167.79Z" fill="#FEFEFE"/>
<path d="M41.5376 0.605323C40.6565 6.38875 39.7722 12.1722 38.8533 17.9493C38.1261 22.5343 36.0752 24.0156 31.4902 23.2171C28.731 22.737 25.9529 22.0673 23.3471 21.0574C20.6768 20.0212 19.7019 18.073 20.2616 15.2912C21.2439 10.3937 22.2359 5.4992 23.2323 0.605325L41.5376 0.605323Z" fill="#CF3438"/>
<path d="M406.912 92.8015C405.289 92.6512 402.564 92.6114 399.929 92.114C396.186 91.4129 394.466 88.7934 395.246 85.0645C395.722 82.8063 396.463 80.5628 397.393 78.4512C401.167 69.8808 405.011 61.346 408.929 52.8467C410.697 49.01 414.079 48.5566 416.839 51.7573C418.096 53.2217 419.268 54.8473 420.088 56.5845C423.602 64.0403 426.703 71.6668 428.336 79.7906C428.741 81.8017 428.848 83.9048 428.821 85.963C428.776 89.5296 426.953 91.4165 423.403 91.6904C418.272 92.0867 413.127 92.3863 406.912 92.8015Z" fill="#FEFEFE"/>
<path d="M235.919 0.605306C235.919 3.95463 235.917 7.30391 235.91 10.6522C235.91 11.4684 235.839 12.2884 235.729 13.0958C235.411 15.4362 234.3 16.6445 231.994 16.8869C229.181 17.1733 226.356 17.4023 223.534 17.4682C220.219 17.5431 218.469 15.7796 218.654 12.4245C218.87 8.48408 219.094 4.54365 219.325 0.605308L235.919 0.605306Z" fill="#F9A549"/>
<path d="M109.222 51.8331C109.182 52.1331 109.182 52.8477 108.974 53.4948C107.07 59.4825 105.157 65.4639 103.168 71.4254C102.821 72.4788 102.204 73.4746 101.564 74.4009C100.294 76.2391 98.487 77.024 96.3089 76.3978C92.8046 75.3878 89.2904 74.3867 85.8746 73.1259C82.1441 71.7552 81.3242 69.7279 82.3692 65.8828C83.5373 61.5764 84.4897 57.2075 85.7646 52.9315C86.6065 50.1183 87.6867 47.3402 88.9689 44.6957C90.2386 42.0903 92.1565 41.2532 94.9299 42.1339C98.6813 43.3339 102.384 44.745 105.999 46.3094C108.085 47.2131 109.236 49.0471 109.222 51.8331Z" fill="#F9A549"/>
<path d="M18.0096 171.119C16.6876 172.45 15.6378 173.615 14.4792 174.65C9.71774 178.9 4.48986 177.643 2.59765 171.595C1.55311 168.257 0.984491 164.748 0.459343 161.279C0.0629954 158.651 1.54058 157.307 4.11868 156.769C7.12505 156.138 9.93816 156.642 12.8477 157.276C17.5127 158.299 22.2423 159.031 26.9199 159.987C29.0582 160.423 31.1702 161.046 33.2546 161.693C34.974 162.227 36.0762 163.955 35.583 165.922C34.2432 171.269 31.3373 175.594 26.3204 178.128C23.891 179.354 21.3307 178.27 19.9631 175.712C19.2311 174.345 18.7369 172.851 18.0096 171.119Z" fill="#F9A549"/>
<path d="M54.2522 201.061C46.5326 200.505 38.1303 199.955 29.7363 199.271C25.0063 198.883 23.3665 196.63 24.0801 191.918C24.155 191.419 24.2439 190.921 24.3539 190.432C25.456 185.639 27.4828 184.259 32.3379 185.053C41.5817 186.561 50.8228 188.091 60.0629 189.612C61.9221 189.916 63.7918 190.176 65.6437 190.529C68.3731 191.053 69.5104 192.16 69.7967 194.439C70.114 196.93 69.2192 198.336 66.6097 199.558C62.8745 201.304 58.9032 201.123 54.2522 201.061Z" fill="#3EAD53"/>
<path d="M245.343 102.104C243.32 101.68 241.248 101.403 239.277 100.798C235.78 99.7232 234.172 97.4305 234.631 93.811C235.023 90.7067 235.635 87.5867 236.574 84.6065C238.074 79.875 239.837 75.2167 241.684 70.6092C242.218 69.2819 243.223 67.9598 244.361 67.1037C246.327 65.6367 248.442 66.5175 250.206 68.1447C252.993 70.7103 252.838 73.6333 252.428 76.9314C251.578 83.7337 250.961 90.5664 250.28 97.3907C249.924 100.922 248.805 101.989 245.343 102.104Z" fill="#CF3438"/>
<path d="M384.635 244.794C379.485 243.665 374.196 242.73 369.443 240.151C366.785 238.705 365.881 235.593 367.663 233.168C370.589 229.182 373.688 225.263 377.175 221.777C380.116 218.837 383.793 219.859 385.319 223.72C387.262 228.623 389.018 233.605 390.715 238.6C391.614 241.25 390.375 243.334 387.69 244.119C386.73 244.401 385.732 244.556 384.635 244.794Z" fill="#CF3438"/>
<path d="M211.835 139.69C211.835 139.254 211.839 138.813 211.835 138.377C211.804 133.54 213.911 131.623 218.752 132.183C220.493 132.386 222.256 132.605 223.927 133.095C226.987 133.985 228.31 136.097 227.912 139.236C227.499 142.538 227.008 145.827 226.489 149.111C226.154 151.214 224.999 152.524 222.87 152.554C220.069 152.599 217.231 152.387 214.467 151.928C212.399 151.584 211.301 149.887 211.362 147.572C211.429 144.945 211.737 142.321 211.94 139.698L211.835 139.69Z" fill="#CF3438"/>
<path d="M45.2283 176.607C45.532 175.136 45.99 172.274 46.7487 169.5C47.5739 166.481 49.9719 164.858 52.9385 165.762C57.1313 167.032 61.2403 168.663 65.2111 170.515C67.7557 171.701 67.7467 176.096 65.0838 178.133C60.7413 181.461 55.8442 183.784 50.2179 183.873C46.8361 183.926 45.0869 181.747 45.2283 176.607Z" fill="#F9A549"/>
<path d="M464.26 147.63C464.278 153.159 460.374 157.818 455.728 157.818C450.529 157.813 445.712 152.708 445.742 147.232C445.769 142.049 449.93 137.953 455.173 137.944C460.539 137.941 464.242 141.886 464.26 147.63Z" fill="#3EAD53"/>
<path d="M224.606 212.603C225.919 212.709 227.247 212.713 228.538 212.946C231.033 213.392 232.435 215.075 232.228 217.598C232.047 219.779 231.673 221.963 231.161 224.092C230.646 226.257 227.379 228.303 224.826 228.297C221.811 228.289 219.47 226.803 218.746 224.179C218.195 222.191 217.803 220.142 217.534 218.091C217.089 214.683 218.676 212.89 222.151 212.695C222.965 212.651 223.785 212.691 224.601 212.691L224.606 212.603Z" fill="#FEFEFE"/>
<path d="M284.024 178.296C284.05 181.065 283.049 182.625 281.193 183.458C278.169 184.821 275.11 186.17 271.958 187.18C270.926 187.51 269.343 187.06 268.378 186.421C267.161 185.61 267.307 184.107 267.928 182.819C269.343 179.896 270.715 176.947 272.271 174.099C272.883 172.975 273.832 171.965 274.828 171.141C276.195 170.003 277.918 169.757 279.369 170.863C282.005 172.882 283.433 175.704 284.024 178.296Z" fill="#FEFEFE"/>
</svg>
