<svg width="40" height="40" viewBox="0 0 40 40" fill="none" xmlns="http://www.w3.org/2000/svg">
<mask id="mask0_39_84" style="mask-type:alpha" maskUnits="userSpaceOnUse" x="0" y="0" width="40" height="40">
<path d="M0 20C0 8.9543 8.9543 0 20 0V0C31.0457 0 40 8.9543 40 20V20C40 31.0457 31.0457 40 20 40V40C8.9543 40 0 31.0457 0 20V20Z" fill="black"/>
</mask>
<g mask="url(#mask0_39_84)">
<path d="M0 -1.25H42.9688V40.7812H0V-1.25Z" fill="black"/>
<path d="M30.8362 10.6784C32.7237 10.42 34.4338 10.3786 36.1361 10.698C36.5967 10.7846 37.0573 10.9159 37.4913 11.0912C38.4474 11.4781 38.9568 12.2437 39.1659 13.2269C39.4274 14.4569 39.4371 15.7049 39.2663 16.937C38.9146 19.4797 38.497 22.0132 38.111 24.5515C37.9847 25.3809 37.5033 25.9043 36.7403 26.2019C35.9892 26.4951 35.2024 26.6273 34.4055 26.6299C33.4131 26.6341 32.4194 26.5895 31.428 26.5284C30.7738 26.4881 30.5082 26.0654 30.7158 25.4376C30.9821 24.6323 31.4411 23.9343 31.9746 23.2822C32.5827 22.5383 33.303 21.9151 34.0973 21.3834C34.4581 21.1416 34.653 20.8273 34.7153 20.4145C34.8227 19.7019 34.9261 18.989 35.0292 18.2759C35.202 17.0791 35.3818 15.8831 35.5423 14.6847C35.6223 14.0871 35.5965 14.017 34.9941 13.9185C33.9086 13.7419 32.8139 13.6216 31.7221 13.4814C30.9171 13.3787 30.1125 13.2772 29.3063 13.1834C28.5364 13.0943 28.1506 12.612 27.9651 11.9106C27.8235 11.3758 28.2039 10.8695 28.7608 10.8346C29.5129 10.7863 30.2637 10.7222 30.8362 10.6784Z" fill="#F9A549"/>
<path d="M14.391 28.5372C14.3827 28.2544 14.3493 27.914 14.3671 27.5768C14.4126 26.7243 15.3239 26.1693 16.1163 26.497C16.1927 26.5289 16.2714 26.5609 16.3394 26.6063C17.0864 27.1081 17.9257 27.1907 18.7929 27.1472C21.3227 27.0199 23.7842 26.5237 26.201 25.7797C26.5715 25.6659 26.9511 25.568 27.334 25.5109C27.7594 25.4476 28.0034 25.6164 28.1084 26.0306C28.2088 26.4304 28.3023 26.8383 28.3359 27.2479C28.3924 27.9429 28.1091 28.319 27.4306 28.4977C26.4855 28.7476 25.5331 28.9699 24.5887 29.2208C22.3133 29.8267 20.0063 30.2812 17.6868 30.6767C17.0402 30.7871 16.3881 30.8475 15.7333 30.7437C15.0243 30.6313 14.7129 30.349 14.5621 29.6495C14.4874 29.3025 14.4526 28.9464 14.391 28.5372Z" fill="#3EAD53"/>
<path d="M11.8653 37.7303C11.8661 38.1772 11.8685 38.624 11.8703 39.0706L6.29888 39.4962C6.41539 38.8263 6.54993 38.1608 6.73322 37.5097C7.09316 36.2311 8.0107 35.3402 9.16985 34.7218C10.0655 34.2442 10.8842 34.5047 11.3318 35.4177C11.5139 35.7898 11.6154 36.2112 11.6974 36.6213C11.7699 36.9843 11.7632 37.362 11.7915 37.733L11.8653 37.7303Z" fill="#F9A549"/>
<path d="M17.5783 6.50934C17.6306 6.09608 17.6723 5.73706 17.7225 5.37872C17.7465 5.20693 17.7736 5.03422 17.8202 4.86706C17.9411 4.43106 18.2229 4.2709 18.6491 4.41543C19.1111 4.57223 19.5643 4.75763 20.0216 4.92951C20.1288 4.96952 20.2376 5.00671 20.3729 5.05452C20.4092 4.95916 20.4426 4.878 20.4713 4.79546C20.6114 4.38883 20.7424 3.97826 20.8939 3.57554C20.9574 3.40702 21.0455 3.24203 21.152 3.09705C21.4569 2.6813 21.8331 2.62234 22.246 2.92318C22.9113 3.40747 23.5227 3.94997 24.0347 4.59962C24.4704 5.15324 24.4419 5.55763 23.8054 6.08128C23.5013 6.33096 23.1841 6.22533 23.0319 5.86378L22.9929 5.77299C22.6526 5.41779 22.3106 5.0641 21.9231 4.663C21.8639 4.84162 21.8264 4.93824 21.8003 5.03793C21.694 5.43783 21.6015 5.84201 21.4863 6.23981C21.295 6.89838 20.9302 7.05595 20.3249 6.74471C19.9717 6.56328 19.63 6.35947 19.2783 6.17489C19.1497 6.10734 19.0067 6.0664 18.8279 5.99688C18.8102 6.23692 18.8026 6.43305 18.7801 6.62754C18.7339 7.02174 18.7097 7.4218 18.6227 7.80687C18.4877 8.40886 18.0584 8.56792 17.5405 8.22836C17.1874 7.99686 16.847 7.74628 16.5001 7.50511C16.4351 7.45939 16.3666 7.41809 16.2613 7.34918C16.2151 7.94127 16.2188 8.48723 16.2953 9.03738C16.328 9.2753 16.3164 9.53632 16.2495 9.76456C16.2097 9.8996 16.038 10.052 15.8965 10.0912C15.2888 10.2588 14.8947 9.99264 14.8511 9.36239C14.7761 8.28877 14.7266 7.21311 14.6921 6.13749C14.6738 5.56312 14.9851 5.34491 15.5401 5.476C16.1692 5.62529 16.7528 5.86476 17.2561 6.28053C17.3442 6.35346 17.4426 6.41364 17.5781 6.50922L17.5783 6.50934Z" fill="#CF3438"/>
<path d="M-2.08065 21.2025C-2.07014 20.089 -1.92097 18.993 -1.69043 17.9042C-1.52729 17.1359 -1.40132 16.3608 -1.26945 15.587C-1.19961 15.1751 -0.836011 14.9954 -0.474452 15.2181C-0.165113 15.4089 -0.00395399 15.7056 0.0529723 16.0535C0.159222 16.6986 0.251232 17.3465 0.351713 17.9921C0.381297 18.1803 0.42288 18.3662 0.455219 18.5543C0.560295 19.1604 0.825493 19.6659 1.29048 20.0903C2.14416 20.8699 2.81933 21.8063 3.50106 22.7346C3.54968 22.8008 3.59313 22.8726 3.62901 22.9468C3.73616 23.1673 3.76972 23.393 3.61531 23.6057C3.45991 23.8207 3.22823 23.8663 2.99164 23.8087C2.3006 23.6421 1.60245 23.4893 0.926726 23.2707C0.267068 23.0568 -0.37505 22.7821 -1.01335 22.5065C-1.25175 22.4036 -1.46935 22.2387 -1.67398 22.0744C-1.94574 21.8552 -2.07695 21.555 -2.08065 21.2025Z" fill="#FEFEFE"/>
<path d="M5.5907 33.6966C4.93606 33.7857 4.28079 33.8729 3.62647 33.9643C3.50365 33.9813 3.3839 34.0213 3.2611 34.0358C2.76951 34.095 2.49235 33.7895 2.65727 33.328C3.30288 31.5274 3.92061 29.7133 4.87221 28.0406C5.13966 27.5708 5.59029 27.4641 5.98641 27.8316C6.22313 28.051 6.44585 28.3281 6.56556 28.6234C7.11613 29.9845 7.52978 31.3915 7.84429 32.8258C7.93041 33.221 7.7358 33.5311 7.32634 33.5902C6.75498 33.6724 6.17399 33.6882 5.59695 33.7323L5.5907 33.6966Z" fill="#FEFEFE"/>
<path d="M35.7589 32.8084L35.7671 32.703C35.8793 31.2676 35.9802 29.8305 36.0974 28.3952C36.1473 27.7863 36.402 27.5708 37.0114 27.6295C37.3786 27.665 37.7504 27.7251 38.1024 27.8316C38.4637 27.9408 38.6112 28.1868 38.5656 28.5577C38.399 29.9169 38.2284 31.2753 38.0538 32.6331L35.7589 32.8084Z" fill="#CF3438"/>
<path d="M-1.1643 13.0814C-1.16208 13.0416 -1.16924 12.9479 -1.14845 12.8607C-0.958419 12.0562 -0.76728 11.2509 -0.565954 10.4485C-0.530259 10.3066 -0.459894 10.1695 -0.385099 10.0417C-0.236349 9.78753 -0.00745947 9.66639 0.285314 9.72721C0.755013 9.82403 1.22708 9.92018 1.68759 10.0516C2.1912 10.1948 2.31914 10.4522 2.22048 10.9674C2.11031 11.5447 2.02957 12.1279 1.90457 12.7021C1.82224 13.0799 1.70827 13.4553 1.56645 13.8155C1.42591 14.1708 1.18246 14.2995 0.809474 14.2115C0.304903 14.0918 -0.195404 13.9436 -0.685703 13.7745C-0.968652 13.6766 -1.13813 13.4475 -1.1643 13.0814Z" fill="#F9A549"/>
<path d="M37.2981 8.07544C37.4585 7.88722 37.5843 7.72396 37.7267 7.57632C38.3092 6.9705 39.0081 7.08314 39.3173 7.85828C39.4878 8.28593 39.5976 8.74102 39.7013 9.19132C39.7798 9.53223 39.5994 9.72357 39.2663 9.82017C38.8778 9.93302 38.5033 9.89525 38.1148 9.84112C37.492 9.75351 36.8642 9.70494 36.2399 9.62615C35.9548 9.59033 35.6718 9.52994 35.391 9.46573C35.1603 9.41288 34.998 9.19703 35.0429 8.93403C35.1651 8.21844 35.5032 7.62155 36.1369 7.23842C36.4432 7.05316 36.791 7.16979 36.9959 7.49184C37.1058 7.66385 37.1855 7.8551 37.2981 8.07544Z" fill="#F9A549"/>
<path d="M32.2394 4.50748C33.2585 4.50307 34.3676 4.49096 35.4764 4.49657C36.1011 4.50016 36.3395 4.77934 36.2927 5.40543C36.2878 5.47149 36.2818 5.53785 36.2718 5.60313C36.175 6.2434 35.9224 6.4449 35.2773 6.38942C34.0486 6.2842 32.8197 6.17609 31.5913 6.06954C31.3441 6.04769 31.096 6.03227 30.8493 6.00458C30.4857 5.96307 30.3253 5.82922 30.2649 5.53285C30.1982 5.20902 30.3016 5.01526 30.6326 4.82873C31.1054 4.56209 31.6288 4.54603 32.2394 4.50748Z" fill="#3EAD53"/>
<path d="M8.14214 19.4167C8.41202 19.4521 8.68689 19.4677 8.95169 19.5272C9.42204 19.6334 9.65572 19.9182 9.63181 20.3981C9.61137 20.8095 9.5628 21.2255 9.46894 21.6262C9.3195 22.2622 9.1347 22.8917 8.93844 23.5151C8.88218 23.6946 8.76353 23.8784 8.6221 24.0021C8.37876 24.2146 8.09212 24.12 7.84429 23.9242C7.4533 23.6151 7.44365 23.2299 7.46441 22.7929C7.50789 21.8911 7.52028 20.9878 7.54162 20.0848C7.55247 19.6176 7.68876 19.4665 8.14214 19.4167Z" fill="#CF3438"/>
<path d="M21.1388 11.5121C21.1432 11.5693 21.1476 11.6273 21.152 11.6846C21.2045 12.3192 20.9472 12.5929 20.3058 12.5672C20.0758 12.5581 19.8416 12.5475 19.6173 12.4999C19.2065 12.4131 19.0124 12.149 19.0324 11.7331C19.0543 11.2952 19.085 10.8586 19.1203 10.4221C19.1431 10.1428 19.2817 9.95925 19.5609 9.93377C19.9282 9.89998 20.3029 9.89922 20.6705 9.93172C20.9455 9.95607 21.1066 10.1679 21.1218 10.4726C21.1394 10.8182 21.1252 11.1657 21.1249 11.5121L21.1388 11.5121Z" fill="#CF3438"/>
<path d="M33.6695 7.62775C33.6444 7.82411 33.6129 8.20425 33.5417 8.57588C33.4637 8.98074 33.1644 9.2178 32.7659 9.12897C32.2033 9.00427 31.6468 8.83139 31.1068 8.62807C30.7615 8.49783 30.7186 7.92064 31.0471 7.6265C31.5839 7.14601 32.2036 6.79174 32.9414 6.72383C33.3854 6.6828 33.6364 6.95128 33.6695 7.62775Z" fill="#F9A549"/>
<path d="M9.7567 4.70114C9.5838 4.69976 9.40887 4.7125 9.237 4.69479C8.90491 4.66138 8.70391 4.45422 8.70632 4.12103C8.70774 3.83273 8.73496 3.54252 8.78083 3.2578C8.82739 2.9684 9.23576 2.66706 9.57037 2.64199C9.96642 2.61284 10.2886 2.78447 10.4099 3.12162C10.5023 3.37718 10.5743 3.64252 10.6301 3.90889C10.7234 4.35183 10.5324 4.60338 10.0781 4.66366C9.9716 4.6776 9.86404 4.68071 9.75645 4.68893L9.7567 4.70114Z" fill="#FEFEFE"/>
<path d="M22.4313 34.5622L22.1263 39.1498L22.0409 41.1882C21.547 41.5785 19.8107 40.7564 19.39 41.2238C19.3368 41.2829 19.2838 41.3421 19.231 41.4015C19.1199 41.1721 18.9626 40.9708 18.7683 40.7998C18.5114 40.5738 18.2097 40.4246 17.8735 40.3615C17.4287 40.2781 17.0185 40.428 16.7011 40.7454L16.6919 40.7545L16.6832 40.764C16.4359 41.0319 16.2223 41.363 16.036 41.6755C15.795 42.0797 15.5754 42.4974 15.3702 42.9208C15.2655 43.1372 15.1658 43.356 15.0709 43.5769C15.0613 43.5834 15.0516 43.59 15.042 43.5965C14.6477 43.8638 14.244 44.1173 13.8322 44.3565C13.4573 44.5741 13.0721 44.7776 12.6762 44.9544C12.3923 45.0812 12.0838 45.1996 11.7784 45.2621C11.7509 45.2677 11.7003 45.2767 11.6531 45.2808C11.6522 45.2557 11.6523 45.2305 11.6537 45.2053C11.6539 45.1994 11.6544 45.1936 11.6548 45.1877C11.9035 45.1723 12.1499 45.1201 12.3896 45.0401C12.8118 44.8995 13.2085 44.6959 13.5772 44.4476C13.9606 44.1894 14.3124 43.8882 14.6318 43.554C14.9434 43.2279 15.226 42.874 15.4652 42.4912L15.4715 42.4812L15.4774 42.471C15.7868 41.9328 16.0376 41.3046 15.9948 40.6727C15.9569 40.1139 14.7286 42.1312 14.2631 41.8055C13.8047 41.4846 12.197 42.3981 11.6548 42.471C11.2831 42.5208 12.6404 39.3234 12.6404 39.3234L14.8165 32.9693C17.3906 33.7979 20.0205 34.3472 22.4169 34.56C22.4211 34.56 22.4272 34.56 22.4313 34.5622ZM19.6932 44.4476L19.6873 44.4488L19.6958 44.4377L19.6932 44.4476Z" fill="#FEFEFE"/>
<path d="M22.8591 26.9948L22.5533 32.3786C20.3324 32.1781 17.8863 31.6596 15.4817 30.885L16.7213 26.9948H22.8591L22.8591 26.9948Z" fill="#FEFEFE"/>
<path d="M23.9775 16.0685C23.9775 16.2087 23.9501 16.3528 23.8956 16.4931L22.9506 18.8878L22.522 18.4533C22.0973 18.0207 21.5692 17.7051 20.9963 17.5317L21.7426 15.6436C21.9765 15.0474 22.6487 14.7571 23.2448 14.991C23.6989 15.1722 23.9775 15.6066 23.9775 16.0685Z" fill="#FEFEFE"/>
<path d="M26.2182 17.6077C26.2182 17.748 26.1908 17.8923 26.1362 18.0325L24.8601 21.2631C24.6517 21.791 24.1003 22.0794 23.5607 21.9722C23.4923 21.9605 23.4241 21.9391 23.358 21.9137C23.0695 21.8007 22.8534 21.5845 22.7325 21.3233C22.6039 21.0447 22.5863 20.7194 22.7072 20.4115L22.7188 20.3803C22.9857 20.2673 23.1787 20.0335 23.2391 19.749C23.278 19.5639 23.2586 19.375 23.1826 19.2074L23.9834 17.1809C24.2172 16.5867 24.8913 16.2944 25.4855 16.5302C25.9396 16.7095 26.2182 17.1459 26.2182 17.6077H26.2182Z" fill="#FEFEFE"/>
<path d="M26.8059 19.3696C26.4014 19.2097 25.9438 19.4082 25.784 19.8128L24.8188 22.3362C24.6588 22.7409 24.8574 23.1984 25.2619 23.3582C25.6665 23.518 26.124 23.3196 26.2838 22.915L27.249 20.3915C27.4088 19.9869 27.2105 19.5294 26.8059 19.3696Z" fill="#FEFEFE"/>
<path d="M24.7671 24.5416L22.9005 26.9951L16.9814 27.5406L15.0836 22.1962C14.7271 21.1927 15.0407 20.0743 15.8649 19.4042C16.4261 18.9462 17.0515 18.5839 17.7178 18.3247C18.3842 18.0655 19.0915 17.9097 19.8143 17.8668C19.8748 17.8628 19.935 17.8609 19.9956 17.8609C20.8275 17.8609 21.6302 18.196 22.2167 18.7942L22.6981 19.285C22.8988 19.4896 22.826 19.8326 22.5596 19.9379V19.938C21.788 20.242 20.9249 20.1991 20.1884 19.8172L18.8109 20.4173L20.7983 20.4563L22.6239 25.0311L21.6933 21.057L24.6188 23.3874C24.9754 23.6668 25.0416 24.181 24.7672 24.5416H24.7671Z" fill="#FEFEFE"/>
<path d="M22.4539 34.1474C26.9662 34.5469 30.526 33.7365 31.66 31.7023H31.6597C32.5248 30.1495 32.3319 27.4139 26.5822 23.1782C26.0152 24.279 25.5399 24.1036 25.5399 24.1036C31.1921 28.2011 30.8686 30.319 30.4674 31.0399C29.7952 32.2458 27.4883 32.9357 24.287 32.885C23.7161 32.8773 23.1297 32.8441 22.5296 32.7916C20.2598 32.5869 17.8126 32.0707 15.3556 31.2776C8.38168 29.0377 -1.61385 26.7405 -8.00652 33.4253C-8.78124 34.2354 -9.25434 35.4397 -9.66689 36.8284C-9.72186 37.0622 -9.66689 37.2513 -9.50187 37.3957C-9.33685 37.54 -9.1409 37.6329 -8.91401 37.6741C-8.68712 37.7154 -8.47052 37.7016 -8.26427 37.6329C-8.05809 37.5641 -7.93429 37.4472 -7.893 37.2822C-7.7005 36.306 -7.37397 35.4741 -6.91329 34.7866C-6.45261 34.0991 -5.90955 33.5284 -5.28391 33.0747C-4.65828 32.6209 -3.97422 32.2701 -3.23169 32.0227C-2.48928 31.7753 -1.48428 31.4272 -0.70052 31.3446L2.53453 30.6797C5.99759 30.1895 7.86007 30.3119 14.9427 32.5752C17.5633 33.4188 20.1352 33.9429 22.4539 34.1474Z" fill="#FAAE4A"/>
<path d="M17.9149 16.7551L17.5445 16.5112C17.7704 16.0772 17.5399 15.5535 16.9403 15.1588C16.9392 15.1581 16.9382 15.1574 16.9372 15.1567C16.937 15.1566 16.9369 15.1565 16.9367 15.1564C16.7183 15.0131 16.3531 14.7734 15.9059 14.5236L15.9038 14.5224C15.6817 14.3894 15.4675 14.262 15.3021 14.1641C15.3155 14.1181 15.3291 14.0722 15.3412 14.0258C15.4853 13.4821 15.5531 12.9008 15.474 12.3218C15.4555 12.1772 15.4237 12.0341 15.386 11.8925C15.3482 11.7554 15.2941 11.6018 15.2413 11.48C15.1197 11.1921 14.9287 10.9537 14.7191 10.7489C14.2933 10.3437 13.7998 10.0539 13.306 9.78934C12.8106 9.52706 12.3056 9.29717 11.8043 9.07448C11.3022 8.85293 10.8046 8.6389 10.3114 8.42651C9.81817 8.21512 9.329 8.00743 8.83751 7.82051C8.34533 7.63704 7.85033 7.46562 7.32954 7.39057C7.06946 7.35456 6.80172 7.34653 6.53706 7.39497C6.39093 7.42452 6.26813 7.47729 6.15262 7.53495C6.03804 7.59387 5.92849 7.65649 5.82534 7.72457C5.41141 7.99444 5.05331 8.30252 4.72001 8.61399C4.38846 8.9269 4.08628 9.24766 3.81735 9.57626C3.68307 9.74078 3.55689 9.90737 3.44238 10.0782C3.32774 10.2512 3.22503 10.4201 3.14132 10.6161C3.06402 10.8014 3.01627 10.9982 2.98659 11.1827C2.95685 11.369 2.94305 11.55 2.93834 11.7249C2.92441 12.424 3.03284 13.0223 3.16266 13.5036C3.29386 13.9852 3.45957 14.3493 3.60439 14.5848C3.67617 14.7026 3.7423 14.7883 3.79194 14.8492C3.83699 14.9002 3.8602 14.9265 3.8602 14.9265L3.8624 14.9292L3.94196 15.0065C3.96744 15.0323 4.00025 15.0621 4.04028 15.0954C4.07988 15.1293 4.12568 15.1695 4.17945 15.2096C4.36706 15.3561 4.64114 15.5411 4.9949 15.7481L4.98254 14.9757L5.3336 15.9405C5.45068 16.0053 5.57435 16.0721 5.70411 16.1408L5.70481 15.3447L6.05913 16.3258C6.1727 16.3841 6.29091 16.444 6.41195 16.5048L6.42732 15.7135L6.77531 16.6861C6.88743 16.7413 7.00201 16.7979 7.11909 16.8555L7.1499 16.0826L7.48803 17.0369C7.5984 17.091 7.71103 17.146 7.82554 17.2015L7.87229 16.4517L8.19813 17.3815C8.30749 17.4338 8.41912 17.4869 8.53207 17.5401L8.59474 16.8205L8.90396 17.7131C9.01426 17.7636 9.12608 17.8139 9.23965 17.8641L9.31695 17.1894L9.60113 18.0198C9.7162 18.068 9.83272 18.1156 9.95156 18.1621L10.0395 17.5584L10.2849 18.2863C10.3938 18.3249 10.5045 18.3619 10.6172 18.3966C10.8441 18.4664 11.0796 18.5276 11.3285 18.5647C11.4534 18.5822 11.5814 18.5939 11.7142 18.5921C11.7483 18.5905 11.7788 18.5919 11.816 18.588C11.8502 18.5844 11.892 18.5818 11.92 18.5767L11.965 18.5694L11.9875 18.5657L12.0216 18.5581C12.059 18.5493 12.0939 18.5379 12.1281 18.5255C12.3974 18.4206 12.6004 18.254 12.7967 18.0828C12.8699 18.0169 12.9406 17.9486 13.0104 17.8793C13.1399 17.926 13.3654 18.0067 13.617 18.0959C13.6994 18.3362 13.8646 18.559 14.1022 18.7165C14.3552 18.8846 14.6519 18.9555 14.9374 18.9166C15.1806 18.8835 15.3909 18.7738 15.5443 18.6053C15.6151 18.6046 15.686 18.5992 15.7569 18.5877C15.8176 18.6413 15.8743 18.7036 15.9285 18.7727C16.0949 18.6514 16.2661 18.5372 16.4416 18.4301C16.4121 18.3911 16.3816 18.3529 16.3498 18.3159C16.3679 18.301 16.3859 18.2839 16.4039 18.2675C16.411 18.2612 16.418 18.2552 16.425 18.2487C16.4509 18.2243 16.4767 18.198 16.5023 18.1705C16.5101 18.1622 16.518 18.1547 16.5256 18.1462C16.5582 18.1102 16.5905 18.072 16.6227 18.0306C16.6266 18.0256 16.6307 18.0201 16.6345 18.015L16.8849 18.1798C17.072 18.0824 17.2633 17.9928 17.4582 17.9113L17.6579 17.4062C17.0551 17.0084 16.5473 16.6735 16.2186 16.457C15.8962 16.2447 15.5739 16.0325 15.2514 15.8201C16.1047 16.2381 16.9242 16.7275 17.7238 17.2393L17.9153 16.7551H17.9149ZM15.3333 18.4167C15.3872 18.2281 15.4151 18.0395 15.3543 17.8475C15.3045 17.6634 15.1821 17.4957 15.0273 17.3855C14.858 17.2658 14.6505 17.2027 14.4431 17.2218C14.2304 17.2415 14.0632 17.335 13.9 17.4656C14.0982 16.9609 14.7236 16.8843 15.1449 17.145C15.3491 17.3007 15.5044 17.4986 15.544 17.7592C15.5804 18.0005 15.5091 18.2454 15.3332 18.4167H15.3333ZM12.9765 17.0311C12.9492 17.1022 12.9182 17.1719 12.8861 17.241C12.9507 16.5131 12.7961 15.621 12.3254 15.1052C11.9494 14.6933 11.4736 14.3772 10.8869 14.0726C10.8338 14.1738 10.7854 14.2764 10.7415 14.3804C11.025 14.5501 11.3093 14.7177 11.5787 14.9091C11.7559 15.0348 11.9346 15.1842 12.0661 15.3582C12.1655 15.4897 12.2477 15.6229 12.3286 15.766C12.2314 15.6387 12.1342 15.52 12.0205 15.4063C11.8699 15.2567 11.679 15.1368 11.4915 15.0393C11.2136 14.8954 10.9252 14.7744 10.6372 14.6526C10.456 15.1739 10.3647 15.7215 10.2824 16.274C10.2701 15.8882 10.2537 15.5047 10.2795 15.1189C10.3077 14.6965 10.3777 14.285 10.5067 13.8829C10.5054 13.8822 10.5042 13.8816 10.503 13.8811C10.5123 13.8589 10.5212 13.8367 10.5309 13.8147C10.711 13.4059 10.9103 13.0048 11.1176 12.6093C11.2838 12.2926 11.4685 11.9822 11.624 11.6595C11.7903 11.7378 11.9555 11.8183 12.1172 11.9052C12.0017 11.8117 11.8833 11.7232 11.7595 11.6405C10.8577 11.0375 9.86115 10.5638 8.88683 10.0915C8.005 9.66391 7.095 9.25055 6.13994 9.01657C6.24944 9.07028 6.36125 9.11884 6.47062 9.17274C6.47658 9.17569 6.4826 9.17876 6.48856 9.18171C6.37781 9.25073 6.26945 9.32502 6.16555 9.40339C5.75161 9.71474 5.35581 10.0716 5.0348 10.48C4.89024 10.6636 4.72477 10.875 4.6284 11.0975C4.46959 11.0329 4.31957 10.9772 4.1804 10.9331C3.53876 10.729 3.43529 11.1717 3.2532 11.6252C3.2692 11.3307 3.31162 11.0229 3.4319 10.732C3.47419 10.6337 3.53072 10.5301 3.59334 10.4266C3.86823 10.159 4.24044 10.0896 4.61234 10.2161C4.36625 10.0643 4.09851 10.0167 3.84025 10.062C3.91078 9.96647 3.98394 9.87135 4.06155 9.77667C4.08778 9.74479 4.11602 9.71311 4.14306 9.6813C4.42523 9.46501 4.81199 9.48114 5.15653 9.5895C4.9361 9.46576 4.69648 9.38426 4.44104 9.38256C4.42925 9.3825 4.41782 9.38369 4.40609 9.38407C4.52932 9.25073 4.65826 9.11872 4.79254 8.98802C5.0641 8.83178 5.41322 8.83755 5.71221 8.93268C5.51211 8.81434 5.28485 8.74381 5.05827 8.73678C5.18765 8.61932 5.32149 8.50318 5.46034 8.39074C5.73122 8.27504 6.08077 8.31952 6.35309 8.39281C6.16015 8.29273 5.94003 8.21386 5.72017 8.18977C5.81141 8.12282 5.90465 8.05806 6.00015 7.99613C6.00968 7.98979 6.01972 7.9844 6.02932 7.97819C6.33647 7.86066 6.70033 7.88407 7.01286 7.9711C6.82413 7.87478 6.61631 7.80476 6.40517 7.77577C6.47042 7.74866 6.53555 7.72664 6.59604 7.71472C6.81421 7.67494 7.04894 7.68065 7.28455 7.71453C7.45102 7.73856 7.61836 7.77508 7.78627 7.81957C7.55957 8.07237 7.33902 8.32981 7.12029 8.59052C6.94698 8.54409 6.77211 8.50293 6.59535 8.46848C6.70786 8.51491 6.8208 8.56141 6.93318 8.60878C7.93736 9.0347 8.90258 9.53742 9.88474 10.0104C10.3863 10.252 10.8924 10.4836 11.3997 10.7135C11.8083 10.8985 12.221 11.0776 12.6168 11.2893C12.5135 11.206 12.4086 11.1257 12.2984 11.051C12.2701 11.0317 12.2408 11.0138 12.2123 10.9949C12.3687 10.829 12.5251 10.6647 12.6913 10.509C12.8444 10.3662 13.007 10.2359 13.1717 10.1072C13.6418 10.361 14.1044 10.6406 14.4769 10.9984C14.6636 11.1813 14.8235 11.3881 14.9176 11.6133C14.9744 11.7464 15.0111 11.8557 15.0478 11.9853C15.0808 12.1119 15.1091 12.2397 15.1256 12.37C15.1695 12.6851 15.1646 13.0061 15.1244 13.3239C15.1172 13.219 15.1076 13.1139 15.0932 13.0086C15.0345 12.5777 14.8836 12.1495 14.6385 11.7891C14.3615 11.3809 13.9754 11.0897 13.5227 10.9016C13.9057 11.1343 14.2205 11.4323 14.4432 11.8244C14.638 12.1679 14.7384 12.5728 14.7632 12.9657C14.7818 13.2622 14.7606 13.5521 14.7199 13.8407C14.7081 13.7185 14.6915 13.5959 14.6694 13.4726C14.5163 12.6158 13.9323 11.8392 13.1355 11.4897C13.295 11.5899 13.4488 11.6994 13.5811 11.8349C14.2146 12.4843 14.4802 13.4068 14.3625 14.3001C14.3506 14.3901 14.3355 14.4791 14.3193 14.5677C14.3078 14.4545 14.2914 14.3409 14.27 14.2268C14.1051 13.3394 13.4737 12.5013 12.6499 12.1315C12.8139 12.2364 12.9696 12.3533 13.105 12.4945C13.413 12.8154 13.6822 13.2122 13.8131 13.6406C13.8713 13.8305 13.9347 14.0271 13.9522 14.2259C13.9698 14.423 13.9769 14.6105 13.9722 14.8082C13.9684 14.9677 13.9471 15.128 13.9156 15.2874C13.9061 15.2088 13.8945 15.1306 13.8793 15.0533C13.7764 14.5302 13.5321 14.0383 13.1992 13.6238C12.9209 13.2769 12.574 12.9556 12.164 12.7728C12.5396 12.9924 12.8419 13.3363 13.0747 13.7C13.3451 14.1214 13.5274 14.6068 13.5687 15.1074C13.5907 15.3745 13.5713 15.6316 13.5198 15.8831C13.5076 15.8079 13.4933 15.7329 13.475 15.6586C13.3464 15.138 13.0867 14.6654 12.7425 14.2562C12.4537 13.9139 12.0989 13.5844 11.6784 13.4147C11.9712 13.5937 12.2061 13.8556 12.4124 14.1263C12.6676 14.4616 12.8682 14.8314 13.0046 15.2305C13.1374 15.6197 13.1914 16.0439 13.1289 16.4521C13.0986 16.6507 13.0481 16.8436 12.9767 17.0312L12.9765 17.0311ZM9.62114 16.1799C9.11202 15.9815 8.61163 15.7583 8.11901 15.5223C7.12192 15.045 6.13217 14.543 5.17542 13.9887C4.83063 13.789 4.49042 13.5794 4.16502 13.3493C4.99967 13.7876 5.84435 14.2043 6.68909 14.6227C7.68926 15.1181 8.68422 15.6251 9.69838 16.0919C10.0843 16.2698 10.4731 16.445 10.8781 16.5758C10.4464 16.4899 10.03 16.3393 9.62114 16.1799V16.1799ZM8.05633 16.4221C7.05195 15.9306 6.04997 15.4227 5.09203 14.8442C4.78865 14.6612 4.49174 14.4703 4.2006 14.2685C5.04923 14.7465 5.92278 15.1779 6.7962 15.6084C7.78884 16.0981 8.77476 16.6062 9.77851 17.0726C10.1374 17.2391 10.4998 17.3993 10.8788 17.5153C9.8853 17.3419 8.95403 16.8614 8.05626 16.4221L8.05633 16.4221ZM7.91151 9.91653C7.82492 9.95907 7.74385 10.0276 7.66943 10.0879C7.48076 10.238 7.30181 10.3972 7.13083 10.5672C6.79827 10.8985 6.48348 11.2791 6.26638 11.6978C6.24166 11.7453 6.21932 11.7935 6.19824 11.8422C6.19648 11.8413 6.19453 11.8403 6.19278 11.8394C6.17922 11.8754 6.16304 11.9115 6.14716 11.9418C6.07714 12.0664 6.03371 12.2128 5.99255 12.3488C5.82584 12.8971 5.79773 13.4735 5.7897 14.0428C5.70719 13.5722 5.64074 13.0982 5.6595 12.6192C5.65887 12.6314 5.6585 12.6373 5.65969 12.6112C5.66992 12.4196 5.67757 12.2277 5.71685 12.0392C5.74465 11.9067 5.78016 11.7793 5.81975 11.6507C5.81749 11.6495 5.81511 11.6483 5.81279 11.6472C5.85452 11.5621 5.90722 11.4802 5.95384 11.4004C6.08918 11.1693 6.24316 10.9473 6.39959 10.73C6.56467 10.5009 6.73013 10.2717 6.89277 10.0413C6.9636 9.94037 7.03426 9.83941 7.10404 9.73789C7.12311 9.71047 7.22601 9.59558 7.23002 9.55053C7.46639 9.66925 7.70238 9.78865 7.93862 9.90781C7.93272 9.90781 7.92431 9.91025 7.91151 9.91647V9.91653ZM8.49743 10.3696C8.30743 10.5163 8.12773 10.6769 7.95938 10.8481C7.61208 11.2009 7.30037 11.5959 7.06513 12.0326C7.02905 12.0997 6.9978 12.1684 6.96881 12.238C6.96599 12.2366 6.96311 12.2351 6.96028 12.2337C6.94767 12.2712 6.93198 12.3072 6.92565 12.3213C6.86221 12.4614 6.80863 12.6024 6.76238 12.7487C6.59297 13.2859 6.56015 13.8559 6.53844 14.4146C6.46591 13.9423 6.40711 13.4674 6.43365 12.9884C6.43296 13.0007 6.4324 13.0065 6.43403 12.9798C6.43623 12.9474 6.43573 12.9556 6.43491 12.9698C6.45662 12.6504 6.50462 12.3506 6.59516 12.0459C6.59209 12.0443 6.58908 12.0427 6.586 12.0411C6.62472 11.9664 6.67353 11.8955 6.70597 11.8195C6.82619 11.6094 6.95658 11.4064 7.09004 11.2046C7.35552 10.8036 7.63907 10.4143 7.89764 10.0086C7.90875 9.99126 7.95461 9.92927 7.94689 9.91226C8.18301 10.0314 8.41924 10.1504 8.65592 10.2684C8.61062 10.2843 8.5091 10.3606 8.49743 10.3696ZM9.34412 10.639C9.1614 10.7709 8.9918 10.9239 8.83161 11.0817C8.46216 11.4452 8.14222 11.8638 7.89224 12.3172C7.83609 12.4191 7.78771 12.5237 7.74548 12.6302C7.7436 12.6293 7.74172 12.6282 7.73971 12.6273C7.73958 12.6276 7.73971 12.6278 7.73958 12.6282C7.72402 12.6562 7.71154 12.6861 7.69761 12.715C7.6412 12.8484 7.58611 12.9792 7.54112 13.1175C7.35796 13.6505 7.32232 14.229 7.28719 14.7865C7.22476 14.3116 7.1733 13.8343 7.20819 13.3546C7.20706 13.369 7.20625 13.3781 7.20844 13.3487C7.21127 13.3137 7.21032 13.3262 7.20901 13.3427C7.23404 13.0319 7.2826 12.7384 7.36938 12.4422C7.36486 12.44 7.36041 12.4377 7.35583 12.4354C7.46219 12.1816 7.62859 11.9352 7.77165 11.7052C8.0225 11.3022 8.29131 10.9107 8.54185 10.5076C8.57479 10.4563 8.60761 10.4049 8.63917 10.3526C8.6509 10.3329 8.67362 10.3033 8.6765 10.2786C8.90841 10.394 9.14082 10.5084 9.37418 10.6209C9.36614 10.6246 9.35654 10.63 9.34412 10.639ZM10.1086 10.9693C9.93205 11.0987 9.76954 11.2479 9.61499 11.4025C9.2436 11.7737 8.91927 12.2101 8.67638 12.6758C8.62041 12.7829 8.57166 12.8901 8.52824 12.9985C8.52623 12.9977 8.52441 12.9968 8.52246 12.996C8.51845 13.006 8.51274 13.0177 8.50464 13.0339C8.43437 13.175 8.37557 13.3194 8.32544 13.4685C8.13482 14.0094 8.08293 14.5915 8.03618 15.1587C7.98398 14.6826 7.93962 14.2032 7.98241 13.7244C7.98103 13.7386 7.98015 13.7474 7.98285 13.7175C7.98605 13.6837 7.98505 13.6946 7.9836 13.7104C8.01228 13.4052 8.06235 13.1154 8.14762 12.8243C8.14348 12.8223 8.13933 12.8203 8.13513 12.8184C8.23358 12.5862 8.36786 12.3647 8.49398 12.1498C8.71873 11.7662 8.9551 11.3896 9.18876 11.0112C9.24975 10.912 9.31174 10.813 9.36972 10.7118C9.38503 10.685 9.39934 10.6534 9.40109 10.6339C9.63664 10.7473 9.87332 10.8583 10.1105 10.9681C10.1098 10.9686 10.1094 10.9688 10.1086 10.9693ZM10.7554 11.3934C10.6745 11.4605 10.5922 11.528 10.5192 11.6034C10.3553 11.7637 10.2 11.9307 10.0577 12.1099C9.78892 12.4486 9.553 12.8196 9.37229 13.2125C9.34607 13.2695 9.32229 13.3273 9.29938 13.3855C9.28953 13.4017 9.27981 13.4162 9.27541 13.4246C9.2106 13.5521 9.15688 13.6842 9.10976 13.8194C8.91117 14.3687 8.84573 14.9531 8.78505 15.5304C8.74414 15.0505 8.70619 14.5679 8.75739 14.0869C8.75538 14.1049 8.75362 14.1216 8.75739 14.0863C8.75883 14.0728 8.75945 14.0667 8.75964 14.0649C8.75945 14.0674 8.75839 14.0764 8.75745 14.0855C8.79045 13.7736 8.84391 13.4762 8.9337 13.1784C8.93006 13.1769 8.92636 13.1751 8.92272 13.1736C9.02343 12.9373 9.15538 12.7108 9.27799 12.4884C9.48542 12.1119 9.70666 11.743 9.9247 11.3726C9.98174 11.2756 10.0401 11.1788 10.0942 11.0803C10.1006 11.0687 10.13 11.0131 10.1377 10.9809C10.3752 11.0906 10.6132 11.1991 10.8515 11.3072C10.8161 11.3319 10.7702 11.3809 10.7554 11.3934ZM9.53198 14.4551C9.56969 14.1357 9.62698 13.8302 9.72241 13.5249C9.72041 13.524 9.71852 13.5232 9.71651 13.5223C9.89252 13.1142 10.1112 12.7226 10.3248 12.3337C10.4349 12.133 10.5476 11.9338 10.6591 11.734C10.7096 11.6441 10.7605 11.5548 10.8099 11.4645C10.8136 11.4579 10.8594 11.3656 10.8778 11.3191C10.8863 11.323 10.8947 11.3271 10.9032 11.3308C11.1385 11.4372 11.375 11.5423 11.6092 11.6524C10.9313 12.1785 10.4244 12.938 10.0925 13.7215C10.0907 13.7259 10.0892 13.7303 10.0873 13.7347C10.0772 13.7538 10.0671 13.7728 10.057 13.7919C9.98757 13.9212 9.93186 14.0604 9.88392 14.1988C9.6921 14.7531 9.60746 15.323 9.53405 15.9023C9.50544 15.4208 9.47382 14.936 9.53205 14.4551C9.5407 14.3793 9.52301 14.5293 9.53205 14.4551H9.53198ZM4.88534 12.4388C4.86765 12.0401 4.92506 11.655 5.03957 11.2755C5.03932 11.2753 5.0392 11.2753 5.03901 11.2753C5.44246 10.5238 6.04093 9.90373 6.49891 9.18686C6.74004 9.3052 6.98049 9.4251 7.22055 9.54583C7.18121 9.56434 7.04223 9.65387 7.02824 9.6636C6.93763 9.72735 6.8506 9.79694 6.76439 9.8669C6.56812 10.0261 6.38409 10.1994 6.20821 10.3803C5.90973 10.6899 5.62549 11.0359 5.43731 11.4251C5.4232 11.4544 5.41084 11.4842 5.39823 11.514C5.24939 11.8198 5.14317 12.1435 5.10508 12.4846C5.0503 12.88 5.03662 13.2722 5.04095 13.671C4.96095 13.2618 4.90354 12.8559 4.88528 12.4389L4.88534 12.4388ZM3.53656 11.7546C3.56919 11.6149 3.61167 11.4652 3.72649 11.3698C3.93136 11.1999 4.26485 11.302 4.46859 11.4236C4.26623 11.4519 4.00364 11.3478 3.81948 11.4544C3.71614 11.5133 3.66105 11.6452 3.61619 11.7493C3.57584 11.843 3.538 11.9379 3.4949 12.0304C3.47181 12.0152 3.53072 11.7795 3.53656 11.7546ZM8.22712 7.95315C8.3356 7.98948 8.44416 8.02776 8.55271 8.06772C8.33417 8.32097 8.12353 8.57954 7.91665 8.84301C7.66178 8.7504 7.40358 8.66695 7.14187 8.59617C7.49983 8.37443 7.85936 8.15871 8.22712 7.95315ZM9.28225 8.35447C9.06904 8.61179 8.86537 8.87501 8.66734 9.14432C8.43939 9.04499 8.20918 8.95112 7.97626 8.86497C8.30568 8.64517 8.63804 8.4329 8.98013 8.23218C9.08059 8.27228 9.18142 8.313 9.28225 8.35447ZM9.6852 8.52288C9.78911 8.56687 9.89327 8.61123 9.99761 8.65609C9.78516 8.92339 9.58475 9.19734 9.39161 9.47894C9.17539 9.37409 8.95741 9.27207 8.73724 9.17475C9.04934 8.95075 9.36552 8.73584 9.69387 8.53323C9.69104 8.52978 9.68809 8.52627 9.6852 8.52288ZM10.405 8.83598C10.4033 8.83391 10.4015 8.83197 10.3998 8.82996C10.5022 8.87445 10.6047 8.919 10.7076 8.96374C10.4946 9.24377 10.2962 9.5314 10.1069 9.82781C9.89057 9.72158 9.6741 9.61648 9.45875 9.51144C9.76589 9.27401 10.0781 9.04838 10.405 8.83598ZM11.4152 9.27382C11.2004 9.56867 11.0036 9.87167 10.8175 10.1856C10.6024 10.074 10.3858 9.96497 10.1687 9.85792C10.473 9.60462 10.7841 9.36512 11.1131 9.14087C11.2138 9.18498 11.3144 9.2294 11.4152 9.27382ZM12.1157 9.58799C12.0079 9.73795 11.9021 9.88949 11.8063 10.0477C11.7046 10.2181 11.6099 10.3915 11.5162 10.5661C11.3037 10.4441 11.0884 10.3264 10.8708 10.213C11.1729 9.94244 11.4824 9.6882 11.8141 9.45089C11.9147 9.49619 12.0153 9.54187 12.1157 9.58799ZM12.8088 9.91948C12.7072 10.0674 12.6084 10.2171 12.5186 10.3728C12.405 10.574 12.3018 10.7793 12.1996 10.9866C11.9889 10.847 11.7733 10.7142 11.5538 10.5873C11.6917 10.4515 11.8302 10.317 11.975 10.188C12.1435 10.039 12.3232 9.90442 12.5032 9.77014C12.6055 9.81921 12.7075 9.86859 12.8088 9.91948ZM16.854 15.5495C16.998 15.6886 17.1095 15.8343 17.2129 16.0054C17.0947 15.8661 16.9741 15.7514 16.8279 15.6426C16.6504 15.5221 16.4542 15.4243 16.2556 15.3445C15.9703 15.2298 15.6823 15.1226 15.3933 15.0175L14.8232 15.9084C15.0989 16.1363 15.3751 16.3647 15.6378 16.6075C15.8251 16.7802 15.9919 16.9699 16.1297 17.1838C16.2473 17.3504 16.3085 17.5549 16.3743 17.7453C16.2911 17.5868 16.2096 17.4261 16.0968 17.2853C15.9393 17.089 15.7459 16.938 15.5449 16.7888C15.2486 16.5832 14.9377 16.3986 14.6276 16.2141L14.6266 16.2156C14.3736 16.0652 14.127 15.922 13.9879 15.8415L14.9574 14.3692C15.0665 14.4336 15.2284 14.5296 15.4125 14.6392C15.7122 14.8059 16.0115 14.9734 16.3045 15.1513C16.4953 15.2669 16.6933 15.394 16.854 15.5495V15.5495Z" fill="#FAAE4A"/>
<path d="M21.4564 15.1391C21.4564 15.2813 21.4291 15.4255 21.3744 15.5658L20.6342 17.4401C20.412 17.3973 20.1839 17.3739 19.954 17.3739C19.8838 17.3739 19.8139 17.3759 19.7438 17.3797C19.167 17.4148 18.5999 17.5162 18.0485 17.6817L19.2215 14.7143C19.4553 14.12 20.1295 13.8278 20.7237 14.0616C21.1775 14.2428 21.4563 14.6773 21.4563 15.1391H21.4564Z" fill="#FEFEFE"/>
</g>
</svg>
